<svg width="512" height="512" viewBox="0 0 512 512" fill="none" xmlns="http://www.w3.org/2000/svg">
  <defs>
    <linearGradient id="bg" x1="72" y1="56" x2="440" y2="456" gradientUnits="userSpaceOnUse">
      <stop stop-color="#0D1A33"/>
      <stop offset="1" stop-color="#071126"/>
    </linearGradient>
    <linearGradient id="tileA" x1="0" y1="0" x2="1" y2="1">
      <stop stop-color="#74C0FC"/>
      <stop offset="1" stop-color="#4DABF7"/>
    </linearGradient>
    <linearGradient id="tileB" x1="0" y1="0" x2="1" y2="1">
      <stop stop-color="#8CE99A"/>
      <stop offset="1" stop-color="#69DB7C"/>
    </linearGradient>
  </defs>
  <rect width="512" height="512" rx="112" fill="url(#bg)"/>
  <rect x="78" y="78" width="356" height="356" rx="52" fill="#132442" stroke="#74C0FC" stroke-opacity="0.5" stroke-width="14"/>

  <rect x="120" y="120" width="78" height="78" rx="16" fill="url(#tileA)"/>
  <rect x="217" y="120" width="78" height="78" rx="16" fill="url(#tileB)"/>
  <rect x="314" y="120" width="78" height="78" rx="16" fill="url(#tileA)"/>

  <rect x="120" y="217" width="78" height="78" rx="16" fill="url(#tileB)"/>
  <rect x="217" y="217" width="78" height="78" rx="16" fill="#F8F9FA"/>
  <rect x="314" y="217" width="78" height="78" rx="16" fill="url(#tileB)"/>

  <rect x="120" y="314" width="78" height="78" rx="16" fill="url(#tileA)"/>
  <rect x="217" y="314" width="78" height="78" rx="16" fill="url(#tileB)"/>
  <rect x="314" y="314" width="78" height="78" rx="16" fill="url(#tileA)"/>
</svg>
