<?xml version="1.0" standalone="no"?>
<!DOCTYPE svg PUBLIC "-//W3C//DTD SVG 20010904//EN"
 "http://www.w3.org/TR/2001/REC-SVG-20010904/DTD/svg10.dtd">
<svg version="1.0" xmlns="http://www.w3.org/2000/svg"
 width="1024.000000pt" height="1280.000000pt" viewBox="0 0 1024.000000 1280.000000"
 preserveAspectRatio="xMidYMid meet">
<metadata>
Created by potrace 1.15, written by Peter Selinger 2001-2017
</metadata>
<g transform="translate(0.000000,1280.000000) scale(0.100000,-0.100000)"
fill="#000000" stroke="none">
<path d="M5418 12785 c-37 -7 -108 -30 -158 -50 l-91 -37 -152 14 c-200 17
-666 17 -772 -1 -44 -7 -143 -28 -220 -48 -130 -32 -156 -35 -370 -43 -314
-11 -465 -43 -695 -144 -186 -82 -330 -178 -475 -318 -77 -73 -92 -82 -261
-160 -1010 -469 -1676 -1179 -1963 -2093 -74 -238 -118 -461 -146 -750 -9 -88
-29 -257 -46 -375 -78 -563 -88 -934 -33 -1303 33 -224 87 -403 200 -660 41
-92 103 -241 140 -330 245 -602 597 -1206 1105 -1897 58 -80 193 -273 299
-430 462 -681 1076 -1519 1527 -2082 52 -65 103 -139 115 -165 11 -27 26 -55
33 -63 7 -8 15 -37 19 -63 24 -188 192 -306 498 -351 238 -35 426 -29 558 17
111 38 196 144 176 221 -5 19 30 43 287 201 837 514 1285 804 1607 1040 96 71
229 167 295 213 1548 1091 2533 2129 2898 3052 88 222 130 389 177 696 16 109
32 200 35 202 3 3 5 -16 5 -43 0 -27 2 -46 5 -43 3 2 12 42 21 88 8 45 40 182
69 304 93 380 122 596 132 981 14 556 -56 968 -229 1335 -22 47 -66 162 -98
255 -144 421 -327 752 -584 1055 -50 59 -70 88 -52 77 15 -10 29 -17 31 -15 6
6 -63 146 -96 195 -116 172 -309 323 -537 422 -40 18 -110 61 -155 95 -290
224 -623 390 -857 427 -74 12 -76 13 -150 84 -80 77 -161 124 -249 145 -81 19
-220 8 -309 -25 l-73 -26 -77 78 c-152 155 -318 236 -487 237 -105 1 -201 -25
-278 -74 l-48 -30 -45 42 c-64 61 -138 105 -214 129 -83 27 -223 33 -312 14z"/>
<path d="M3601 1275 c-119 -26 -222 -110 -250 -205 -17 -59 -101 -615 -101
-672 0 -108 85 -226 204 -282 62 -29 136 -45 419 -87 200 -30 223 -32 289 -21
130 22 236 99 273 196 8 23 37 183 63 356 51 333 52 368 16 447 -27 56 -111
135 -178 166 -59 28 -161 48 -486 97 -156 23 -163 23 -249 5z"/>
</g>
</svg>
