<?xml version="1.0" standalone="no"?>
<!DOCTYPE svg PUBLIC "-//W3C//DTD SVG 20010904//EN"
 "http://www.w3.org/TR/2001/REC-SVG-20010904/DTD/svg10.dtd">
<svg version="1.0" xmlns="http://www.w3.org/2000/svg"
 width="1280.000000pt" height="1065.000000pt" viewBox="0 0 1280.000000 1065.000000"
 preserveAspectRatio="xMidYMid meet">
<metadata>
Created by potrace 1.15, written by Peter Selinger 2001-2017
</metadata>
<g transform="translate(0.000000,1065.000000) scale(0.100000,-0.100000)"
fill="#000000" stroke="none">
<path d="M10682 10480 c-342 -35 -685 -234 -935 -542 -284 -351 -447 -806
-472 -1323 -6 -119 4 -353 19 -430 2 -11 7 -44 11 -74 6 -44 5 -52 -6 -45 -8
5 -53 35 -101 67 -99 65 -196 112 -313 150 -139 45 -190 52 -375 52 -156 -1
-187 -4 -281 -27 -663 -167 -1175 -855 -1275 -1714 -22 -189 -15 -538 15 -709
125 -731 536 -1290 1089 -1484 45 -15 79 -30 77 -33 -3 -3 29 -17 70 -31 50
-17 75 -22 76 -14 0 7 5 1 10 -12 8 -19 4 -36 -17 -78 -36 -75 -30 -84 53 -81
l68 3 -3 -67 c-2 -70 -25 -153 -86 -324 -50 -141 -61 -231 -47 -408 15 -202
14 -279 -10 -525 -25 -256 -22 -426 12 -661 33 -230 32 -474 -4 -670 -76 -409
-102 -604 -113 -851 -8 -165 -3 -199 26 -199 31 0 37 29 43 215 7 193 32 403
82 679 19 105 39 229 46 276 16 122 14 366 -5 500 -34 245 -38 304 -33 478 3
98 13 249 22 337 15 141 15 183 4 351 -6 106 -9 223 -5 260 4 42 31 140 67
249 39 116 65 212 72 268 l11 89 41 -7 c42 -6 61 3 120 58 45 42 97 66 230
106 305 90 528 238 739 491 186 222 341 537 417 845 53 216 62 304 66 644 3
289 5 328 21 355 10 17 29 37 43 43 13 7 23 17 22 23 -2 5 4 7 12 4 8 -4 12
-11 8 -17 -3 -5 -1 -7 4 -4 6 4 48 -11 94 -32 46 -21 110 -47 141 -57 31 -9
54 -22 51 -27 -3 -5 4 -6 17 -2 14 4 20 3 16 -3 -5 -8 98 -46 187 -67 33 -9
33 -13 6 -75 -32 -74 -13 -96 57 -69 16 5 39 8 51 4 22 -5 23 -10 23 -93 0
-118 -14 -220 -60 -452 -53 -263 -65 -398 -51 -592 34 -479 35 -500 24 -898
-12 -474 -6 -617 43 -1035 36 -304 38 -335 38 -625 0 -255 -4 -352 -27 -590
-40 -426 -47 -558 -54 -980 -5 -392 -2 -440 31 -440 32 0 36 38 36 363 0 358
9 542 45 967 57 662 55 822 -12 1390 l-37 315 4 395 c7 619 4 780 -15 1005
-21 249 -16 391 20 580 58 302 77 424 83 548 l7 132 44 -3 c41 -3 47 -1 100
51 65 64 100 83 236 127 247 79 458 219 630 418 265 305 424 677 486 1132 19
139 16 489 -5 630 -27 186 -108 496 -127 485 -4 -3 -5 5 -1 17 4 15 2 19 -7
13 -10 -6 -11 -2 -6 16 4 13 4 21 0 17 -5 -5 -26 38 -47 95 -198 527 -569 921
-1009 1068 -165 55 -356 76 -527 59z m-2505 -6116 c-3 -3 -12 -4 -19 -1 -8 3
-5 6 6 6 11 1 17 -2 13 -5z"/>
<path d="M4855 9270 c-588 -87 -1084 -631 -1249 -1372 -73 -328 -76 -743 -6
-1081 74 -364 235 -715 447 -977 90 -111 255 -266 361 -339 114 -77 250 -146
361 -182 46 -14 78 -28 71 -31 -14 -4 132 -51 229 -73 36 -8 68 -12 73 -9 12
8 10 -8 -8 -64 -22 -67 -14 -86 29 -77 17 3 48 7 67 8 l35 2 3 -75 c2 -62 -4
-102 -35 -215 -47 -179 -50 -287 -10 -475 33 -158 36 -191 47 -495 10 -271 12
-286 93 -596 60 -228 72 -347 58 -539 -29 -385 -33 -522 -22 -729 9 -147 16
-212 27 -229 17 -26 27 -28 44 -7 9 11 10 44 1 146 -15 186 -14 418 5 658 28
354 15 497 -70 808 -55 200 -66 284 -75 573 -8 239 -12 280 -41 420 -39 190
-37 253 14 459 26 103 36 167 36 222 0 68 2 77 20 82 11 3 18 1 14 -4 -3 -5 5
-9 19 -9 16 0 43 21 85 66 49 51 80 73 140 100 305 140 406 206 567 376 206
216 364 518 450 859 90 353 92 819 5 1171 -36 147 -73 258 -83 251 -6 -4 -7
-1 -3 6 11 17 -2 63 -15 55 -8 -4 -9 1 -4 17 4 13 4 21 -1 16 -4 -4 -23 34
-41 85 -103 284 -265 548 -462 751 -238 246 -499 393 -785 442 -92 16 -301 18
-391 5z"/>
<path d="M1494 8025 c-179 -33 -372 -116 -529 -226 -171 -122 -352 -323 -480
-534 -151 -249 -263 -588 -307 -925 -15 -123 -15 -498 1 -620 83 -624 354
-1134 766 -1442 102 -77 267 -165 372 -199 40 -12 70 -26 67 -30 -2 -4 6 -5
18 -1 12 3 19 1 15 -4 -3 -6 37 -24 89 -41 60 -20 94 -27 94 -20 0 7 6 4 12
-7 8 -15 6 -31 -12 -73 -27 -66 -22 -87 23 -80 17 3 41 8 53 12 14 4 27 1 38
-11 27 -27 13 -122 -45 -300 -63 -198 -66 -237 -39 -459 23 -181 23 -319 4
-575 -8 -103 10 -270 53 -484 33 -164 37 -197 37 -351 1 -131 -5 -203 -22
-314 -42 -258 -53 -382 -59 -623 -6 -249 -3 -268 37 -268 10 0 21 7 24 16 3 9
6 105 6 214 0 216 8 318 45 573 53 360 51 493 -10 807 -44 228 -51 340 -36
595 11 178 10 216 -6 340 -9 77 -17 190 -17 250 0 102 3 119 42 235 49 148 71
238 73 300 1 28 4 35 6 18 3 -19 13 -30 34 -37 43 -15 70 2 109 67 61 104 75
114 245 177 193 72 333 154 473 276 296 260 524 690 606 1144 60 331 55 699
-15 1010 -30 135 -101 355 -112 348 -5 -3 -6 4 -2 17 4 13 3 20 -2 17 -5 -3
-22 31 -38 75 -42 121 -154 340 -232 455 -251 375 -589 613 -961 678 -105 18
-318 18 -418 0z"/>
</g>
</svg>
