<?xml version="1.0" standalone="no"?>
<!DOCTYPE svg PUBLIC "-//W3C//DTD SVG 20010904//EN"
 "http://www.w3.org/TR/2001/REC-SVG-20010904/DTD/svg10.dtd">
<svg version="1.0" xmlns="http://www.w3.org/2000/svg"
 width="1280.000000pt" height="1200.000000pt" viewBox="0 0 1280.000000 1200.000000"
 preserveAspectRatio="xMidYMid meet">
<metadata>
Created by potrace 1.15, written by Peter Selinger 2001-2017
</metadata>
<g transform="translate(0.000000,1200.000000) scale(0.100000,-0.100000)"
fill="#000000" stroke="none">
<path d="M5855 10860 c-174 -27 -322 -101 -461 -232 -108 -102 -189 -211 -257
-345 -29 -57 -55 -103 -59 -103 -5 0 -25 15 -45 33 -110 96 -274 183 -400 211
-204 45 -441 0 -610 -115 -232 -159 -393 -483 -393 -788 0 -75 31 -253 55
-312 5 -13 -13 -19 -102 -38 -214 -45 -408 -166 -520 -326 -34 -49 -99 -185
-121 -255 -87 -273 -73 -529 43 -768 55 -114 130 -232 148 -232 10 0 6 -22
-15 -85 -16 -46 -35 -113 -43 -147 -10 -44 -13 -50 -10 -20 5 42 5 42 -27 42
-123 0 -292 -54 -407 -130 -182 -120 -314 -312 -352 -510 -18 -94 -16 -279 5
-383 41 -214 120 -364 270 -513 207 -207 496 -350 813 -404 190 -33 445 -24
557 19 24 10 27 9 22 -4 -8 -22 171 -204 256 -261 70 -46 203 -114 223 -114
17 0 399 -382 511 -510 151 -174 212 -252 313 -404 72 -106 90 -141 80 -147
-8 -5 -17 -9 -20 -9 -4 0 -10 -8 -13 -17 -8 -19 9 -33 40 -33 18 0 20 -6 19
-58 l-1 -57 -245 -3 -245 -2 -46 -48 -45 -47 -48 -613 c-41 -521 -46 -615 -34
-623 8 -5 83 -9 166 -9 l153 0 67 45 c112 76 158 89 303 90 117 0 129 -2 187
-29 76 -35 144 -104 180 -183 21 -45 27 -78 31 -152 5 -112 -7 -183 -47 -268
-26 -55 -35 -63 -88 -89 -54 -27 -66 -29 -178 -29 -111 0 -124 2 -177 28 -86
42 -153 121 -179 210 -11 40 -22 78 -25 85 -2 9 -54 12 -212 12 l-208 0 -46
-47 -47 -48 14 -75 c54 -303 237 -498 545 -581 75 -20 108 -23 270 -23 158 0
197 4 265 22 298 81 533 312 617 607 20 69 23 103 23 250 0 194 -11 247 -75
380 -126 260 -374 397 -690 382 -122 -6 -213 -28 -303 -74 -27 -13 -50 -23
-51 -21 -2 2 4 90 12 196 l15 192 440 0 440 0 48 49 49 48 0 159 c0 87 -3 169
-6 181 l-6 23 -322 2 -321 3 -1 58 c-1 56 0 57 27 57 15 0 31 4 34 10 9 14
-13 50 -31 50 -22 0 -18 7 78 155 134 205 432 545 693 790 l124 115 48 -11
c55 -13 241 -16 291 -5 33 8 36 5 260 -221 125 -125 282 -293 348 -373 131
-157 333 -450 311 -450 -8 0 -21 -8 -30 -18 -20 -22 -6 -42 30 -42 21 0 23 -4
23 -60 0 -57 -1 -60 -27 -65 -178 -38 -292 -104 -426 -245 -127 -133 -191
-250 -242 -444 -54 -201 -77 -517 -56 -774 44 -551 228 -846 588 -944 112 -30
334 -30 448 0 236 63 437 248 542 496 139 328 160 939 46 1336 -33 118 -111
273 -176 351 -97 117 -256 203 -412 224 -111 14 -105 10 -105 71 0 49 2 54 23
54 38 0 49 13 31 38 -8 12 -22 22 -30 22 -8 0 -14 2 -14 5 0 7 201 308 210
315 4 3 54 61 111 130 57 69 212 234 343 368 213 215 243 242 265 237 318 -67
689 53 940 304 45 45 81 84 81 89 0 4 -62 6 -137 6 l-138 -2 135 9 c421 28
755 154 1042 394 327 273 454 804 277 1158 -124 246 -355 417 -616 455 -55 9
-52 -5 -35 152 11 109 2 242 -23 345 -20 81 -74 217 -83 211 -4 -2 -7 57 -7
132 -1 319 -119 599 -322 766 -144 120 -351 196 -533 196 l-56 0 -12 83 c-7
46 -23 117 -37 157 -30 87 -94 220 -109 226 -7 3 -10 47 -8 133 4 149 -14 241
-72 385 -58 146 -121 241 -231 352 -87 88 -112 107 -195 148 -133 65 -228 88
-370 88 -126 1 -209 -15 -312 -58 -203 -85 -390 -274 -515 -520 l-56 -111 -84
67 c-100 81 -239 152 -352 181 -71 18 -105 21 -216 17 l-132 -3 -34 54 c-47
75 -171 200 -246 249 -152 97 -378 148 -548 122z m2470 -5080 c3 -5 1 -10 -4
-10 -6 0 -11 5 -11 10 0 6 2 10 4 10 3 0 8 -4 11 -10z m5 -85 c0 -19 -7 -26
-32 -33 -52 -14 -61 -6 -53 47 10 70 23 80 57 42 15 -17 28 -42 28 -56z m-104
10 c-4 -14 -13 -25 -21 -25 -22 0 -29 -20 -11 -33 17 -12 19 1 -109 -582 -8
-33 -52 -236 -99 -451 -47 -214 -95 -415 -105 -445 -19 -52 -20 -53 -20 -19
-2 88 81 1110 114 1416 l6 50 79 39 c44 22 99 51 122 66 45 28 54 24 44 -16z
m112 -107 c-3 -23 -30 -119 -61 -213 -30 -93 -106 -326 -168 -517 -62 -191
-114 -346 -116 -345 -5 5 115 576 190 906 11 48 15 54 39 57 46 5 67 14 79 35
9 18 8 19 -8 11 -10 -5 -35 -15 -57 -20 l-38 -11 6 31 c3 18 11 49 16 70 10
35 12 37 31 25 11 -6 30 -28 42 -47 18 -28 22 -32 25 -16 2 10 -5 31 -16 46
l-21 28 22 10 c31 14 40 1 35 -50z m-402 -258 c-27 -275 -32 -256 -14 50 7
123 16 208 22 212 6 4 12 2 13 -5 2 -6 -8 -122 -21 -257z m-20 198 c-3 -29
-10 -152 -16 -273 -26 -549 -32 -656 -52 -897 -12 -142 -23 -256 -25 -255 -1
2 -11 226 -22 498 -11 271 -23 550 -26 618 -5 115 -4 123 12 116 10 -4 33 -9
51 -12 25 -4 32 -2 32 10 0 9 -13 18 -32 22 -67 13 -68 14 -68 56 0 38 1 39
45 51 52 14 59 33 14 43 -45 10 -33 35 26 56 28 10 54 18 59 18 4 1 6 -23 2
-51z m484 -106 c0 -15 -27 -89 -160 -447 -43 -115 -124 -334 -180 -485 -96
-259 -178 -445 -164 -375 16 81 23 104 268 855 69 212 139 430 157 484 l32 99
23 -58 c13 -32 24 -65 24 -73z m-2990 68 c0 -5 -4 -10 -10 -10 -5 0 -10 5 -10
10 0 6 5 10 10 10 6 0 10 -4 10 -10z m114 -36 c-25 -660 -66 -1306 -84 -1327
-3 -4 -12 149 -19 340 -7 192 -16 438 -21 548 -6 110 -10 228 -10 262 l0 62
32 -10 c45 -13 58 -11 58 6 0 8 -12 17 -27 21 -62 13 -73 22 -73 59 0 33 2 36
46 47 26 7 49 18 51 25 3 8 12 9 26 4 16 -6 22 -16 21 -37z m2285 37 c9 -6 6
-8 -13 -8 -14 0 -23 3 -20 8 7 11 15 11 33 0z m-2261 -217 c-18 -205 -30 -285
-23 -149 2 44 7 140 11 213 4 89 10 132 18 132 9 0 7 -51 -6 -196z m165 164
c37 -7 67 -15 67 -19 0 -8 -22 -109 -40 -184 -11 -49 -38 -169 -135 -615 -41
-190 -84 -379 -96 -420 -25 -86 -43 -116 -34 -55 3 22 10 128 15 235 6 107 15
240 20 295 6 55 19 197 30 315 11 118 25 273 32 343 l11 129 31 -6 c17 -4 61
-12 99 -18z m185 -33 c2 -2 -39 -136 -91 -297 -53 -161 -119 -366 -148 -455
-29 -89 -55 -161 -57 -158 -2 2 1 20 8 39 6 19 13 52 15 74 2 21 38 195 80
388 43 192 80 360 82 374 9 52 10 53 61 45 26 -4 49 -8 50 -10z m-528 -11 c0
-8 -5 -12 -10 -9 -6 4 -8 11 -5 16 9 14 15 11 15 -7z m640 6 c0 -5 -38 -112
-85 -237 -46 -126 -141 -381 -210 -568 -113 -306 -193 -501 -202 -491 -11 11
20 110 288 931 37 116 80 247 95 293 l26 82 44 0 c24 0 44 -4 44 -10z m1737
-12 c-3 -8 -6 -5 -6 6 -1 11 2 17 5 13 3 -3 4 -12 1 -19z m-1677 -48 c18 -28
28 -54 24 -61 -4 -8 -3 -9 4 -5 13 8 15 -4 6 -28 -4 -9 -18 -16 -34 -16 -15 0
-33 -6 -39 -14 -9 -11 -6 -12 14 -8 17 3 25 0 25 -9 0 -18 -43 -99 -52 -99 -4
0 -12 15 -17 33 l-9 32 -1 -28 c-1 -16 4 -37 10 -48 8 -17 -19 -76 -167 -367
-164 -321 -200 -389 -179 -337 15 40 218 585 291 784 74 201 82 221 89 221 1
0 17 -22 35 -50z m2391 -11 c23 -34 37 -59 32 -56 -5 3 -9 -4 -9 -15 1 -17 -7
-23 -32 -29 -44 -9 -63 -27 -22 -21 16 2 30 1 30 -2 0 -11 -50 -106 -56 -106
-3 0 -11 15 -19 33 -11 25 -14 27 -15 11 0 -12 5 -35 11 -52 10 -29 0 -52
-165 -374 -97 -189 -176 -341 -176 -338 0 4 41 116 91 250 50 135 130 353 179
485 104 282 101 275 106 275 2 0 22 -28 45 -61z m-3103 29 c6 -8 19 -221 31
-528 11 -283 23 -576 27 -650 3 -74 3 -132 0 -129 -3 3 -30 75 -60 160 -30 85
-109 300 -175 478 -67 178 -121 325 -121 328 0 2 14 2 30 -2 17 -4 30 -2 30 3
0 5 -16 13 -36 16 -23 5 -38 14 -43 29 -11 29 -8 33 37 48 39 13 185 152 232
222 27 40 33 43 48 25z m2412 -445 c28 -656 32 -863 19 -833 -6 14 -33 86 -59
160 -26 74 -102 281 -169 459 -67 179 -121 326 -121 328 0 2 9 -1 19 -7 25
-13 41 -13 41 0 0 6 -9 10 -20 10 -23 0 -60 33 -60 55 0 8 12 18 28 21 38 9
82 33 82 44 0 5 25 32 55 61 30 28 73 76 96 106 70 89 69 92 89 -404z m-1620
312 c0 -20 68 -75 101 -82 16 -3 29 -9 29 -13 0 -5 -49 -62 -110 -128 -137
-148 -217 -244 -331 -395 -49 -65 -89 -116 -89 -113 0 2 63 128 141 280 131
257 142 275 162 267 37 -14 54 0 18 15 l-31 13 22 46 c22 45 32 53 43 35 3 -5
14 -10 23 -10 13 0 12 3 -6 16 -25 17 -30 44 -8 44 8 0 22 -10 30 -22 9 -12
18 -19 21 -16 3 3 -5 18 -18 34 -13 16 -22 35 -20 42 6 15 23 6 23 -13z m2391
-8 c18 -38 72 -77 105 -77 13 0 24 -3 24 -7 0 -5 -53 -64 -117 -133 -129 -138
-258 -294 -353 -424 -34 -47 -64 -86 -67 -86 -2 0 60 125 139 279 131 255 145
278 164 271 11 -5 27 -4 34 0 10 6 7 10 -13 15 -32 9 -33 14 -7 66 18 35 23
38 41 29 11 -6 25 -9 32 -6 7 2 5 5 -4 5 -25 1 -45 29 -31 43 9 9 18 6 37 -12
14 -13 25 -18 25 -11 0 6 -11 22 -23 34 -13 12 -22 28 -20 35 7 20 17 14 34
-21z m-2166 -122 c33 -10 61 -20 63 -21 1 -1 -32 -34 -75 -75 -231 -218 -623
-628 -623 -653 0 -3 -47 -77 -105 -164 -58 -86 -105 -153 -105 -149 0 4 23 58
52 120 84 180 198 355 383 587 131 164 327 381 340 378 6 -2 37 -12 70 -23z
m2392 -2 c29 -10 52 -21 50 -25 -1 -4 -78 -78 -170 -166 -306 -289 -469 -475
-626 -714 -57 -87 -105 -158 -107 -158 -2 0 13 35 32 78 20 42 44 96 55 119
67 153 310 482 589 797 93 105 85 102 177 69z m-3631 -323 c63 -168 114 -309
114 -315 0 -12 -105 219 -129 285 -9 25 -23 55 -29 68 -32 58 -111 255 -106
263 21 34 42 -10 150 -301z m2367 48 c53 -145 106 -288 118 -318 11 -30 18
-52 14 -48 -8 7 -132 280 -145 318 -5 14 -35 86 -68 160 -58 130 -61 149 -27
150 6 0 54 -118 108 -262z m87 -353 c99 -238 180 -436 180 -439 0 -3 -6 -6
-12 -6 -7 0 -60 73 -118 161 -145 222 -225 316 -517 608 -139 140 -252 255
-251 257 2 1 35 -4 73 -13 82 -17 264 -13 335 9 l45 14 43 -79 c24 -43 124
-273 222 -512z m-3016 566 c82 -15 208 -13 286 4 36 8 71 14 77 15 21 0 86
-142 266 -575 208 -503 189 -455 174 -455 -8 0 -67 80 -133 177 -156 233 -248
340 -533 622 -130 128 -227 231 -216 228 11 -3 47 -11 79 -16z m719 -678 c36
-102 28 -105 -11 -3 -16 44 -27 80 -23 80 3 0 19 -34 34 -77z m2382 3 c14 -38
24 -70 22 -73 -4 -3 -57 131 -57 144 0 15 11 -8 35 -71z m252 -985 c82 -41
143 -135 176 -271 37 -149 42 -213 42 -530 -1 -343 -11 -443 -60 -584 -33 -93
-52 -118 -111 -138 -147 -51 -293 11 -364 156 -71 146 -95 341 -87 724 5 274
18 380 62 505 32 93 65 133 123 152 61 20 167 13 219 -14z"/>
</g>
</svg>
