<?xml version="1.0" standalone="no"?>
<!DOCTYPE svg PUBLIC "-//W3C//DTD SVG 20010904//EN"
 "http://www.w3.org/TR/2001/REC-SVG-20010904/DTD/svg10.dtd">
<svg version="1.0" xmlns="http://www.w3.org/2000/svg"
 width="1280.000000pt" height="1130.000000pt" viewBox="0 0 1280.000000 1130.000000"
 preserveAspectRatio="xMidYMid meet">
<metadata>
Created by potrace 1.15, written by Peter Selinger 2001-2017
</metadata>
<g transform="translate(0.000000,1130.000000) scale(0.100000,-0.100000)"
fill="#000000" stroke="none">
<path d="M7386 11285 c-219 -42 -381 -129 -547 -294 -144 -144 -220 -273 -272
-460 -18 -65 -21 -103 -21 -261 1 -172 2 -191 28 -275 69 -232 190 -411 361
-538 204 -151 430 -218 693 -204 168 9 274 37 417 108 215 108 415 326 494
540 107 285 80 646 -65 882 -132 215 -334 382 -553 459 -151 52 -386 71 -535
43z"/>
<path d="M5915 9734 c-62 -10 -172 -47 -230 -77 -47 -25 -112 -84 -305 -278
-135 -136 -623 -618 -1084 -1070 -462 -453 -858 -848 -881 -877 -131 -166
-192 -423 -167 -699 14 -146 37 -245 79 -335 40 -83 110 -174 170 -220 26 -20
253 -149 503 -287 250 -137 761 -418 1135 -623 l680 -374 -3 -1179 c-4 -1173
-4 -1180 17 -1260 63 -237 228 -344 527 -345 293 0 462 102 536 325 l23 70 0
1510 0 1510 -37 106 c-38 111 -122 288 -154 326 -11 12 -347 199 -749 414
-401 215 -736 394 -743 398 -8 5 190 213 589 619 332 337 606 609 610 605 4
-5 123 -232 265 -507 186 -359 270 -512 302 -547 58 -64 143 -106 247 -120 52
-6 356 -9 875 -7 791 3 795 3 861 26 65 21 136 66 172 106 99 113 125 385 51
546 -34 74 -64 112 -121 149 -101 67 -78 65 -826 71 l-679 5 -458 862 c-252
475 -476 884 -497 910 -52 64 -151 144 -220 178 -109 53 -167 66 -318 70 -77
2 -153 1 -170 -1z"/>
<path d="M2562 5560 c-254 -21 -534 -80 -737 -154 -242 -89 -526 -249 -755
-426 -122 -95 -384 -356 -487 -486 -232 -293 -408 -644 -492 -980 -67 -268
-85 -425 -86 -724 0 -489 80 -848 280 -1255 262 -533 717 -988 1250 -1250 287
-141 530 -215 865 -262 155 -21 585 -24 730 -5 594 81 1062 291 1483 666 718
641 1043 1499 931 2456 -65 553 -289 1044 -669 1463 -507 560 -1049 855 -1730
942 -147 19 -445 27 -583 15z"/>
<path d="M9840 5563 c-230 -13 -509 -67 -733 -143 -817 -277 -1514 -995 -1756
-1808 -144 -486 -156 -1048 -31 -1542 93 -371 280 -742 528 -1050 160 -199
402 -418 622 -564 362 -241 732 -376 1200 -438 127 -16 556 -17 690 0 614 76
1146 331 1579 755 481 472 733 955 832 1597 20 124 23 184 23 415 0 228 -4
293 -23 415 -79 521 -277 956 -612 1345 -95 112 -339 350 -439 431 -526 425
-1173 627 -1880 587z"/>
</g>
</svg>
