<?xml version="1.0" standalone="no"?>
<!DOCTYPE svg PUBLIC "-//W3C//DTD SVG 20010904//EN"
 "http://www.w3.org/TR/2001/REC-SVG-20010904/DTD/svg10.dtd">
<svg version="1.0" xmlns="http://www.w3.org/2000/svg"
 width="1044.000000pt" height="1280.000000pt" viewBox="0 0 1044.000000 1280.000000"
 preserveAspectRatio="xMidYMid meet">
<metadata>
Created by potrace 1.15, written by Peter Selinger 2001-2017
</metadata>
<g transform="translate(0.000000,1280.000000) scale(0.100000,-0.100000)"
fill="#000000" stroke="none">
<path d="M5334 12495 l-139 -295 -313 0 -312 0 137 -132 c76 -73 177 -171 225
-218 l87 -85 -25 -195 c-14 -107 -26 -195 -27 -196 -1 0 -71 -45 -156 -98
-560 -355 -1341 -947 -1811 -1371 -196 -178 -188 -161 -83 -170 197 -15 357
-50 528 -114 l100 -38 3 -96 3 -97 -41 0 c-39 0 -40 -1 -40 -33 0 -31 -4 -35
-41 -46 -62 -19 -151 -111 -178 -184 -11 -32 -21 -78 -21 -102 0 -53 27 -33
-440 -325 -391 -244 -551 -350 -690 -459 -99 -76 -270 -236 -270 -252 0 -4 12
-14 26 -24 55 -36 182 -71 294 -81 l70 -7 0 -93 0 -94 -40 0 c-37 0 -40 -2
-40 -29 0 -25 -8 -32 -65 -60 -194 -96 -238 -358 -87 -514 37 -39 88 -70 149
-91 l33 -11 -362 -361 c-354 -351 -487 -474 -655 -601 -104 -80 -307 -213
-361 -237 -23 -11 -42 -22 -42 -25 0 -3 12 -13 28 -22 15 -9 70 -43 122 -76
265 -168 581 -301 897 -378 l113 -27 0 -84 0 -84 -40 0 c-37 0 -40 -2 -40 -29
0 -24 -6 -31 -44 -45 -66 -25 -134 -91 -167 -161 -16 -33 -29 -67 -29 -75 -1
-8 -57 -59 -126 -113 -303 -240 -648 -551 -941 -848 -276 -280 -430 -465 -493
-589 -40 -80 -39 -101 9 -142 61 -52 219 -104 452 -148 l55 -11 -2 -42 c-2
-41 -3 -42 -38 -42 -34 0 -36 -2 -36 -31 0 -27 -5 -32 -38 -42 -63 -20 -132
-80 -171 -152 -33 -60 -36 -71 -36 -150 0 -101 20 -153 85 -224 64 -69 137
-101 235 -101 66 0 90 5 135 26 198 94 253 350 109 512 -22 25 -64 58 -94 73
-49 24 -55 30 -55 58 0 31 -1 32 -35 28 l-35 -4 0 47 c0 40 3 46 18 41 45 -14
429 -64 732 -96 218 -22 1439 -130 1474 -130 5 0 1 -8 -8 -19 -32 -35 -56
-118 -56 -192 0 -134 83 -252 209 -300 72 -27 183 -23 252 10 63 30 127 95
158 161 32 70 36 194 7 248 -9 19 -16 36 -14 38 4 3 321 -31 538 -59 79 -10
178 -11 405 -6 165 4 375 8 468 8 l167 1 0 -1237 c0 -1159 1 -1240 18 -1272 9
-19 30 -44 45 -55 28 -21 38 -21 602 -21 564 0 574 0 602 21 15 11 36 36 45
55 17 32 18 114 18 1285 l0 1252 173 6 c453 16 1034 36 1055 36 21 0 22 -4 22
-65 l0 -65 -40 0 c-37 0 -40 -2 -40 -28 0 -25 -7 -32 -52 -52 -64 -29 -126
-89 -158 -155 -21 -42 -25 -65 -25 -140 0 -79 4 -96 28 -142 36 -69 88 -120
156 -152 80 -37 193 -37 271 0 70 33 126 89 159 159 37 78 37 191 0 271 -32
68 -83 121 -149 154 -43 22 -50 29 -50 55 0 28 -3 30 -35 30 l-35 0 0 65 0 64
33 5 c17 3 154 10 302 16 911 37 1796 105 2193 169 l52 8 0 -83 0 -84 -40 0
c-39 0 -40 -1 -40 -35 0 -27 -4 -35 -18 -35 -10 0 -38 -13 -63 -28 -221 -142
-209 -455 23 -571 51 -26 73 -31 134 -31 136 0 232 56 294 172 31 57 34 71 35
148 0 66 -5 95 -22 132 -29 64 -93 131 -153 159 -45 21 -50 27 -50 56 0 31 -2
33 -35 33 l-36 0 3 86 3 86 94 24 c95 24 138 44 147 69 18 45 -151 250 -454
553 -614 612 -1588 1460 -1887 1643 l-40 24 226 11 c382 20 781 72 1087 142
l122 29 0 -94 0 -93 -39 0 c-37 0 -40 -2 -43 -32 -2 -27 -9 -34 -34 -41 -51
-15 -127 -79 -161 -136 -81 -135 -62 -290 48 -399 70 -69 118 -87 229 -87 80
0 102 4 140 24 203 106 245 370 83 527 -23 23 -63 50 -88 60 -40 17 -45 22
-45 52 0 30 -2 32 -36 32 l-37 0 7 38 c3 20 6 64 6 98 l0 60 108 28 c59 16
185 53 281 85 l174 56 -79 55 c-458 314 -926 719 -1265 1094 l-99 109 48 22
c62 29 136 111 159 178 42 125 7 266 -89 352 -27 24 -65 50 -84 57 -29 10 -34
16 -34 45 0 31 -2 33 -35 33 l-35 0 0 75 0 75 43 0 c126 0 344 53 461 112 l60
30 -68 42 c-480 294 -755 513 -1263 1008 -365 357 -500 463 -751 591 -65 32
-103 56 -87 53 66 -14 422 -18 525 -7 174 20 501 101 534 131 11 11 -463 486
-693 694 -370 336 -832 720 -1125 936 -69 51 -126 98 -126 104 0 6 -16 110
-35 231 l-35 220 223 217 222 218 -317 0 -318 0 -145 290 c-80 160 -147 290
-149 290 -1 0 -66 -133 -142 -295z m-1617 -2992 c67 -32 122 -60 122 -63 0 -3
-34 -33 -74 -68 -57 -49 -79 -62 -95 -57 -15 5 -20 15 -20 41 0 32 -2 34 -35
34 l-35 0 0 85 c0 47 3 85 8 85 4 0 62 -26 129 -57z m-1212 -1648 c263 -22
384 -44 505 -90 70 -27 97 -42 90 -48 -3 -2 -27 -17 -55 -33 -133 -75 -347
-225 -453 -316 -36 -31 -52 -29 -52 6 0 37 -58 142 -97 176 -19 17 -55 41 -79
53 -39 18 -44 25 -44 54 0 31 -2 33 -35 33 l-35 0 0 90 0 90 38 0 c21 0 118
-7 217 -15z m5565 -190 c162 -22 293 -35 360 -35 l60 0 0 -75 0 -75 -40 0
c-37 0 -40 -2 -40 -27 0 -24 -9 -32 -61 -57 -38 -18 -76 -47 -103 -78 l-43
-49 -40 53 c-90 120 -263 359 -263 364 0 3 15 2 33 -1 17 -3 79 -12 137 -20z
m-5967 -2441 c59 -9 106 -19 104 -21 -2 -2 -44 -29 -94 -61 -82 -53 -93 -57
-137 -54 l-49 4 7 52 c3 28 6 64 6 80 0 26 3 28 28 23 15 -3 75 -14 135 -23z"/>
</g>
</svg>
