<?xml version="1.0" standalone="no"?>
<!DOCTYPE svg PUBLIC "-//W3C//DTD SVG 20010904//EN"
 "http://www.w3.org/TR/2001/REC-SVG-20010904/DTD/svg10.dtd">
<svg version="1.0" xmlns="http://www.w3.org/2000/svg"
 width="1280.000000pt" height="1166.000000pt" viewBox="0 0 1280.000000 1166.000000"
 preserveAspectRatio="xMidYMid meet">
<metadata>
Created by potrace 1.15, written by Peter Selinger 2001-2017
</metadata>
<g transform="translate(0.000000,1166.000000) scale(0.100000,-0.100000)"
fill="#000000" stroke="none">
<path d="M4525 11654 c-808 -34 -1316 -82 -1890 -179 -486 -83 -982 -201
-1385 -331 -80 -25 -161 -51 -180 -56 -116 -34 -391 -161 -507 -235 -238 -151
-427 -360 -503 -555 -53 -137 -71 -295 -50 -440 6 -37 28 -233 50 -435 105
-955 210 -1747 490 -3678 76 -528 162 -1122 190 -1320 72 -510 106 -739 134
-900 14 -77 47 -322 75 -545 73 -578 112 -789 197 -1045 114 -345 268 -591
544 -865 386 -387 880 -659 1540 -850 328 -94 745 -172 1135 -211 235 -23 895
0 1275 46 1071 130 1930 477 2620 1061 196 165 397 405 527 629 60 102 169
323 209 423 70 173 128 414 142 587 l7 90 505 5 c451 4 509 7 542 22 20 10
138 47 261 82 304 88 335 99 462 161 120 59 347 213 501 342 192 158 429 415
581 629 277 388 516 911 638 1392 38 152 127 597 147 737 18 127 15 616 -5
910 -9 132 -17 271 -17 309 0 55 -18 136 -85 390 -134 510 -201 703 -290 841
-29 44 -97 159 -151 255 -188 337 -298 482 -455 604 -37 28 -114 91 -172 139
-59 48 -176 137 -262 197 -201 141 -275 170 -605 244 -85 19 -175 42 -200 51
-121 43 -277 60 -420 46 -178 -18 -306 -49 -413 -97 -94 -43 -100 -44 -123
-29 -60 39 -102 124 -149 301 -93 349 -138 422 -350 569 -361 249 -877 427
-1568 540 -563 91 -862 121 -1582 155 -208 10 -1255 21 -1410 14z m5869 -2544
c110 -16 244 -56 290 -88 55 -38 221 -204 288 -288 276 -348 454 -804 529
-1358 26 -195 37 -662 20 -857 -42 -467 -165 -909 -362 -1298 -200 -394 -466
-699 -789 -906 -158 -102 -435 -216 -605 -250 -93 -19 -293 -34 -449 -35
l-109 0 7 163 c3 89 15 380 26 647 11 267 24 575 30 685 5 110 14 304 20 430
13 288 83 1687 111 2220 17 336 19 414 8 487 -13 92 -7 174 16 218 33 64 142
139 261 180 182 63 470 83 708 50z"/>
</g>
</svg>
