<?xml version="1.0" standalone="no"?>
<!DOCTYPE svg PUBLIC "-//W3C//DTD SVG 20010904//EN"
 "http://www.w3.org/TR/2001/REC-SVG-20010904/DTD/svg10.dtd">
<svg version="1.0" xmlns="http://www.w3.org/2000/svg"
 width="1280.000000pt" height="960.000000pt" viewBox="0 0 1280.000000 960.000000"
 preserveAspectRatio="xMidYMid meet">
<metadata>
Created by potrace 1.15, written by Peter Selinger 2001-2017
</metadata>
<g transform="translate(0.000000,960.000000) scale(0.100000,-0.100000)"
fill="#000000" stroke="none">
<path d="M8238 8336 c-132 -46 -233 -119 -460 -332 -98 -91 -178 -171 -178
-175 0 -5 -14 -9 -30 -9 -114 0 -303 -70 -442 -162 -101 -68 -161 -137 -216
-250 -20 -43 -41 -77 -45 -78 -5 0 -22 9 -38 21 -62 44 -299 139 -349 139 -8
0 -78 16 -154 35 -76 19 -152 35 -168 35 -16 0 -62 14 -101 31 -72 32 -130 44
-360 74 -196 26 -305 24 -402 -9 -146 -49 -508 -138 -565 -139 -30 -1 -91 7
-135 18 -131 30 -251 10 -495 -81 -36 -14 -73 -29 -83 -35 -30 -17 -307 -129
-367 -149 -14 -4 -92 -40 -175 -80 -186 -89 -214 -102 -295 -135 -230 -95
-473 -229 -725 -401 -231 -158 -440 -271 -575 -313 -19 -6 -62 -20 -95 -32
-95 -33 -174 -56 -260 -74 -430 -91 -486 -111 -1191 -406 -50 -21 -136 -60
-191 -87 -55 -27 -109 -51 -121 -54 l-22 -6 0 -1791 0 -1792 22 12 c12 6 80
51 152 98 201 134 259 171 421 268 371 223 752 433 784 433 7 0 55 20 109 44
173 79 419 164 657 227 284 75 459 103 655 103 171 0 314 -29 560 -113 461
-158 637 -174 1195 -108 334 40 412 42 577 15 88 -14 132 -5 177 39 75 73 173
128 291 163 96 28 266 115 352 180 89 68 227 216 294 316 131 197 161 324 110
468 -40 114 -39 118 64 170 51 26 170 136 170 157 0 5 4 9 9 9 6 0 6 -13 0
-32 -14 -46 -1 -284 21 -394 11 -54 36 -127 60 -177 49 -104 87 -145 205 -225
28 -19 54 -41 59 -49 4 -8 29 -39 55 -68 25 -28 66 -78 91 -110 83 -107 140
-133 360 -165 75 -10 179 -33 231 -50 52 -16 123 -36 159 -44 36 -8 99 -22
140 -31 91 -20 174 -34 485 -87 l240 -40 345 5 c190 3 415 1 500 -3 139 -6
166 -11 265 -43 144 -46 248 -72 370 -92 55 -9 190 -36 300 -60 244 -54 393
-79 590 -100 279 -29 620 -97 825 -164 47 -16 126 -41 175 -56 50 -16 117 -41
150 -56 33 -15 79 -32 103 -39 23 -6 95 -31 160 -56 64 -25 153 -56 197 -70
44 -13 88 -27 98 -30 16 -5 17 70 17 1479 l0 1484 -52 6 c-50 6 -161 28 -238
47 -19 5 -80 21 -135 35 -147 38 -435 103 -653 146 -56 11 -139 35 -185 54
-252 102 -336 138 -370 161 -45 29 -90 96 -113 168 -30 91 -84 218 -149 351
-35 72 -90 191 -123 265 -109 246 -250 537 -334 690 -35 63 -97 176 -137 251
-123 231 -225 323 -486 439 -233 103 -252 110 -485 182 -124 38 -288 88 -365
113 -196 62 -307 93 -362 101 -26 4 -65 15 -88 25 -60 28 -199 25 -287 -5z
m-1593 -3672 c-23 -55 -30 -33 -9 27 13 36 20 46 22 32 2 -12 -4 -38 -13 -59z"/>
</g>
</svg>
