<?xml version="1.0" standalone="no"?>
<!DOCTYPE svg PUBLIC "-//W3C//DTD SVG 20010904//EN"
 "http://www.w3.org/TR/2001/REC-SVG-20010904/DTD/svg10.dtd">
<svg version="1.0" xmlns="http://www.w3.org/2000/svg"
 width="1280.000000pt" height="1204.000000pt" viewBox="0 0 1280.000000 1204.000000"
 preserveAspectRatio="xMidYMid meet">
<metadata>
Created by potrace 1.15, written by Peter Selinger 2001-2017
</metadata>
<g transform="translate(0.000000,1204.000000) scale(0.100000,-0.100000)"
fill="#000000" stroke="none">
<path d="M4485 12028 c-473 -47 -1034 -278 -1524 -626 -477 -339 -861 -765
-1090 -1211 -323 -631 -307 -1205 48 -1706 55 -78 243 -276 331 -350 25 -20
36 -34 25 -30 -179 65 -328 107 -480 136 -45 9 -145 14 -285 14 -204 0 -220
-1 -325 -29 -252 -65 -435 -174 -620 -367 -667 -697 -757 -2259 -195 -3404
294 -598 707 -960 1220 -1066 139 -29 387 -31 535 -5 111 20 303 73 380 105
l50 21 -40 -32 c-171 -141 -335 -317 -440 -473 -128 -191 -199 -368 -230 -575
-64 -418 108 -876 483 -1283 516 -561 1337 -981 2165 -1108 172 -27 544 -37
695 -19 327 37 596 131 824 286 316 215 524 549 614 983 26 127 34 154 34 111
0 -48 54 -280 91 -394 193 -590 599 -935 1171 -996 932 -99 2210 607 2854
1576 150 227 275 497 330 716 117 461 42 876 -225 1253 -55 78 -243 276 -331
350 -25 20 -36 34 -25 30 179 -65 328 -107 480 -136 45 -9 145 -14 285 -14
204 0 220 1 325 29 252 65 435 174 620 367 667 697 757 2259 195 3404 -294
598 -707 960 -1220 1066 -139 29 -387 31 -535 5 -111 -20 -303 -73 -380 -105
l-50 -21 40 32 c171 141 335 317 440 473 128 191 199 368 230 575 64 418 -108
876 -483 1283 -516 561 -1337 981 -2165 1108 -172 27 -544 37 -695 19 -327
-37 -596 -131 -824 -286 -316 -215 -524 -549 -614 -983 -26 -127 -34 -154 -34
-111 0 48 -54 280 -91 394 -237 721 -789 1072 -1564 994z m1800 -3423 c40
-287 100 -635 152 -878 20 -92 34 -169 32 -171 -2 -2 -64 -6 -137 -9 l-132 -5
5 32 c11 71 26 588 28 971 1 226 5 388 9 360 5 -27 24 -162 43 -300z m2555
-989 c0 -2 -42 -35 -94 -74 -246 -185 -609 -485 -853 -704 l-131 -118 -33 58
c-17 31 -49 83 -70 114 l-39 57 168 87 c360 188 712 383 962 532 90 54 90 54
90 48z m-5009 -292 c110 -56 709 -284 1039 -395 129 -43 234 -82 233 -86 -1
-5 -28 -58 -60 -120 l-59 -112 -124 81 c-219 142 -587 366 -829 505 -130 75
-238 137 -240 139 -10 9 13 3 40 -12z m4164 -2011 c214 -138 588 -365 812
-493 111 -63 200 -116 198 -118 -2 -2 -17 4 -35 13 -111 58 -711 286 -1038
395 -128 43 -233 82 -232 86 0 5 26 59 57 121 54 105 59 111 78 99 11 -7 83
-54 160 -103z m-2895 -98 c28 -44 57 -90 66 -101 15 -22 12 -24 -153 -110
-343 -178 -832 -449 -993 -549 -55 -34 -60 -36 -60 -32 0 3 44 38 97 78 246
185 716 574 913 757 44 42 67 57 73 49 4 -7 30 -48 57 -92z m1496 -747 c-12
-72 -27 -586 -29 -973 -1 -226 -5 -388 -9 -360 -5 28 -24 163 -43 300 -40 286
-100 637 -151 871 -18 89 -34 166 -34 172 0 7 37 12 108 15 59 1 120 4 135 5
26 2 28 0 23 -30z"/>
</g>
</svg>
