<?xml version="1.0" standalone="no"?>
<!DOCTYPE svg PUBLIC "-//W3C//DTD SVG 20010904//EN"
 "http://www.w3.org/TR/2001/REC-SVG-20010904/DTD/svg10.dtd">
<svg version="1.0" xmlns="http://www.w3.org/2000/svg"
 width="1280.000000pt" height="1280.000000pt" viewBox="0 0 1280.000000 1280.000000"
 preserveAspectRatio="xMidYMid meet">
<metadata>
Created by potrace 1.15, written by Peter Selinger 2001-2017
</metadata>
<g transform="translate(0.000000,1280.000000) scale(0.100000,-0.100000)"
fill="#000000" stroke="none">
<path d="M6145 11934 c-60 -51 -88 -64 -143 -64 -34 0 -75 -9 -115 -26 -84
-35 -152 -53 -167 -44 -27 17 -169 -41 -210 -85 -14 -15 -49 -45 -77 -66 -30
-22 -55 -50 -59 -64 -3 -14 -1 -55 6 -93 7 -37 18 -101 26 -142 17 -96 18
-186 3 -280 -19 -116 -16 -142 19 -208 l31 -61 -41 2 c-44 2 -42 3 -79 -77
-13 -29 -51 -78 -91 -117 -56 -56 -78 -70 -125 -84 -32 -9 -102 -38 -155 -66
-124 -62 -233 -99 -296 -99 -44 0 -58 -6 -124 -54 -72 -53 -219 -126 -253
-126 -9 0 -29 -12 -44 -28 -23 -23 -29 -39 -34 -99 -4 -39 -12 -84 -17 -99
-13 -33 -16 -91 -6 -101 4 -5 32 -10 62 -13 l55 -5 -82 -50 c-209 -128 -213
-129 -315 -96 -33 10 -119 24 -191 30 -85 7 -153 18 -190 32 -128 46 -164 47
-231 8 -41 -24 -42 -24 -42 3 0 22 -55 112 -99 160 l-24 27 38 35 c37 35 38
36 32 93 -7 70 -29 93 -108 112 -53 13 -55 12 -129 -23 -41 -20 -82 -36 -92
-36 -10 0 -30 14 -45 31 -42 47 -83 62 -138 48 -24 -6 -52 -9 -60 -5 -25 9
-65 -11 -65 -34 0 -11 20 -40 44 -65 63 -63 66 -69 50 -134 -20 -84 -18 -109
15 -146 23 -26 30 -46 36 -99 6 -64 8 -67 51 -97 69 -47 72 -55 80 -234 7
-157 7 -159 35 -185 28 -25 28 -25 17 -91 -16 -94 4 -200 43 -234 l28 -23 -47
-6 c-26 -3 -60 -6 -77 -6 -16 1 -44 -7 -61 -16 -22 -12 -42 -15 -67 -10 -37 7
-37 8 -37 55 0 55 -9 66 -67 79 -57 13 -87 -3 -91 -48 -4 -39 -11 -46 -67 -61
-22 -6 -49 -17 -61 -24 -20 -13 -21 -12 -20 22 1 46 -22 63 -58 43 -23 -12
-28 -11 -39 5 -12 15 -22 17 -62 10 -42 -6 -57 -15 -106 -65 -31 -32 -65 -72
-75 -89 -10 -17 -21 -31 -25 -31 -3 0 -12 26 -19 57 -10 46 -21 66 -59 104
-28 28 -59 75 -80 120 -60 132 -53 124 -94 125 -32 0 -41 6 -57 32 -20 32 -61
44 -75 22 -3 -5 -21 -10 -38 -10 -38 0 -90 -29 -113 -65 -21 -32 -78 -36 -94
-5 -18 33 -48 44 -74 26 -20 -13 -24 -25 -28 -89 -3 -40 -8 -79 -12 -85 -5 -8
-38 -12 -90 -12 -72 0 -86 -3 -116 -25 -43 -32 -76 -33 -86 -2 -16 53 -59 71
-107 45 -12 -6 -47 -30 -77 -53 -55 -43 -56 -43 -79 -24 -13 11 -31 19 -41 19
-16 0 -233 -106 -287 -140 -21 -13 -123 -202 -123 -228 0 -36 125 -65 176 -39
16 8 50 17 76 20 56 8 74 -7 59 -46 -8 -20 -18 -26 -47 -29 -34 -3 -38 -6 -50
-48 -10 -33 -10 -47 -2 -58 19 -23 65 -42 101 -42 26 0 45 -10 77 -37 l42 -38
-112 -1 c-95 -1 -116 -4 -138 -21 -20 -15 -27 -29 -27 -54 0 -33 2 -35 60 -54
69 -23 81 -30 114 -67 22 -25 23 -30 12 -73 -13 -53 3 -106 40 -125 32 -18
141 -7 182 17 18 11 62 23 97 27 37 4 73 15 84 24 15 14 20 14 24 4 8 -23 64
-82 91 -96 14 -8 53 -17 86 -21 74 -9 111 -27 118 -57 10 -38 81 -101 114 -99
124 5 131 4 171 -39 36 -37 43 -40 93 -40 30 0 69 4 87 9 25 8 32 7 32 -5 0
-8 16 -32 36 -53 l35 -40 133 6 c119 5 133 4 139 -11 4 -10 0 -31 -9 -47 -24
-48 -30 -158 -10 -197 28 -54 49 -62 146 -53 47 4 93 11 104 16 16 7 18 5 14
-21 -3 -16 -11 -42 -18 -59 -9 -23 -10 -40 -1 -71 10 -36 16 -43 45 -48 38 -7
53 -21 56 -51 4 -35 1 -43 -19 -50 -10 -3 -31 -17 -45 -30 -33 -31 -34 -71 -1
-150 19 -48 33 -66 70 -90 36 -24 57 -49 96 -120 27 -49 54 -108 59 -130 10
-47 60 -96 153 -150 34 -20 83 -50 109 -67 28 -18 66 -32 92 -35 38 -5 46 -10
57 -35 28 -67 61 -73 151 -28 l60 31 -6 -27 c-4 -15 -16 -40 -27 -55 -24 -34
-24 -55 0 -110 30 -70 46 -156 32 -172 -6 -8 -10 -39 -9 -70 1 -31 -1 -59 -5
-63 -12 -13 -39 22 -56 72 -11 31 -29 58 -53 77 -36 29 -38 29 -63 13 -34 -23
-32 -57 10 -138 18 -37 37 -83 41 -103 5 -29 10 -35 32 -35 l25 0 -21 -23
c-26 -28 -27 -45 -4 -73 23 -28 46 -39 108 -53 41 -10 61 -23 106 -69 68 -71
109 -124 137 -179 22 -43 56 -172 47 -180 -2 -2 -7 11 -11 29 -4 18 -17 51
-30 73 -25 44 -157 172 -228 222 -76 53 -82 37 -98 -252 -5 -93 -14 -235 -20
-315 -7 -80 -11 -176 -11 -213 1 -51 -4 -79 -19 -109 -39 -77 -8 -108 69 -69
45 23 52 20 52 -21 0 -22 -4 -28 -22 -28 -13 0 -41 -11 -63 -23 -38 -21 -40
-26 -47 -82 -4 -33 -14 -91 -22 -130 -8 -38 -20 -142 -26 -230 -12 -182 -47
-371 -118 -629 -63 -230 -119 -323 -212 -350 -44 -13 -45 -15 -43 -51 4 -55
18 -67 68 -59 42 6 43 5 54 -29 7 -20 17 -38 24 -40 20 -7 47 12 47 33 0 11 1
20 3 20 1 0 32 -10 68 -23 61 -22 65 -25 58 -48 -10 -39 -30 -72 -61 -101 -15
-14 -28 -31 -28 -37 0 -17 67 -81 85 -81 9 0 29 10 45 21 l29 22 39 -32 c29
-22 50 -31 78 -31 25 0 45 -7 60 -21 13 -13 39 -23 61 -25 21 -1 58 -10 82
-18 24 -9 58 -16 76 -16 23 0 43 -10 74 -40 23 -23 52 -40 65 -40 32 0 53 -20
63 -60 11 -44 39 -50 79 -17 22 19 37 23 66 19 27 -3 45 2 67 17 l30 21 53
-56 c29 -31 55 -59 58 -63 3 -4 18 -17 34 -29 40 -30 105 -29 175 3 l55 26 41
-41 c22 -22 45 -40 51 -40 6 0 21 11 33 24 20 21 27 23 63 14 23 -5 77 -7 120
-5 70 3 82 7 108 32 32 31 39 71 20 121 -6 15 -9 28 -7 30 2 2 39 -11 83 -30
48 -20 104 -35 144 -39 86 -8 92 -11 112 -57 13 -32 22 -40 43 -40 15 0 33 7
41 15 14 13 20 12 55 -5 21 -11 39 -27 39 -34 0 -8 12 -28 26 -45 33 -40 74
-42 103 -5 18 23 23 25 38 13 9 -8 36 -14 60 -14 43 0 45 -1 59 -40 11 -32 12
-45 2 -63 -16 -31 0 -55 38 -56 16 -1 53 -16 82 -35 42 -27 52 -38 52 -61 0
-48 22 -56 93 -35 34 10 86 29 115 43 l54 24 60 -31 c47 -24 74 -31 116 -31
47 0 60 -4 84 -27 l28 -27 28 22 c54 43 134 84 206 107 72 23 77 23 146 9 112
-24 127 -5 61 74 -68 82 -84 163 -55 276 16 63 15 162 -4 276 -9 54 -9 56 27
96 35 40 53 70 64 105 4 11 22 18 57 22 29 4 60 13 70 22 9 8 32 15 50 15 28
0 44 11 97 65 48 50 63 72 63 94 0 32 33 52 53 32 18 -18 62 -12 85 12 12 12
32 42 45 67 16 30 32 46 51 51 16 4 36 15 46 24 16 15 18 13 30 -15 8 -18 28
-39 49 -50 20 -10 49 -32 65 -49 32 -34 82 -42 92 -16 5 12 10 10 26 -11 40
-50 101 -50 140 -1 l18 22 0 -27 c0 -35 28 -51 61 -34 21 11 29 8 70 -21 111
-79 175 -77 201 8 6 22 14 39 18 39 10 0 40 -35 40 -47 0 -29 39 -43 151 -53
62 -5 122 -10 132 -10 23 0 22 -22 -4 -71 -23 -47 -22 -92 3 -97 10 -2 47 8
83 23 75 30 97 27 122 -17 10 -16 39 -41 64 -53 52 -27 170 -51 197 -40 26 11
317 37 395 35 51 -1 75 3 95 17 14 10 49 29 77 43 27 14 50 30 51 35 0 6 4 33
8 60 6 42 12 53 37 68 18 10 37 33 46 57 12 31 21 40 39 40 27 0 100 61 109
91 4 10 26 27 50 38 66 29 122 78 148 130 21 41 27 46 61 49 52 4 195 79 209
109 8 17 8 36 0 64 -10 37 -8 43 13 67 79 88 123 146 136 181 15 39 15 42 -5
67 -12 16 -21 42 -21 68 -1 33 -5 42 -21 44 -12 2 -31 -8 -45 -23 -18 -19 -33
-25 -65 -25 -22 0 -45 -4 -51 -10 -18 -18 -70 -14 -100 7 -16 11 -47 26 -69
33 -22 7 -62 23 -90 35 -27 12 -62 28 -78 34 -15 6 -32 23 -37 38 -6 16 -19
44 -30 64 -11 20 -20 52 -20 70 0 19 -9 52 -19 74 -17 38 -17 41 -1 65 9 14
27 53 40 88 22 61 23 62 61 62 36 0 39 2 39 29 0 17 -11 42 -25 59 -18 21 -25
42 -25 70 0 49 -10 58 -102 86 -69 21 -74 24 -95 66 -12 25 -22 56 -22 69 -1
13 -17 41 -36 62 -45 50 -45 69 -2 69 19 0 37 3 40 7 4 4 32 5 62 4 58 -3 66
2 123 77 20 28 25 29 52 19 24 -9 32 -8 49 7 31 29 55 99 47 145 -4 28 -2 42
9 51 27 23 16 48 -46 99 -33 28 -64 51 -69 51 -4 0 -13 14 -21 31 -10 25 -10
38 -1 62 15 40 -5 73 -50 85 -27 7 -41 22 -75 80 l-42 71 22 16 c12 8 28 15
35 15 21 0 142 120 142 141 0 31 -38 107 -59 118 -11 6 -33 11 -49 11 -29 0
-29 0 -21 43 12 64 12 67 -28 84 -21 8 -40 17 -42 19 -2 2 13 23 33 48 47 57
47 91 3 134 -26 25 -33 39 -29 60 5 34 -4 42 -92 77 -77 30 -104 29 -190 -4
-28 -11 -64 -23 -79 -26 -16 -3 -50 -26 -76 -50 -56 -52 -74 -55 -97 -17 -10
15 -28 36 -41 48 l-24 21 36 52 c37 56 41 71 25 101 -8 15 1 25 57 64 57 39
125 107 151 151 4 7 21 18 37 26 25 12 31 21 33 53 3 39 -23 116 -40 116 -4 0
-8 4 -8 8 0 4 38 20 84 35 62 20 100 40 141 74 52 43 56 50 52 79 -5 28 0 36
35 64 24 19 51 56 67 88 41 87 42 88 88 100 35 10 43 16 43 36 0 27 -34 53
-80 63 -35 7 -34 3 -15 51 24 58 63 83 119 76 49 -7 55 -14 31 -34 -19 -16
-19 -34 -1 -49 10 -9 40 -10 101 -5 80 6 90 10 134 45 31 23 54 53 65 79 l17
42 43 -6 c55 -9 70 7 60 60 -5 26 -23 55 -56 90 l-48 51 21 49 c11 27 22 68
23 91 2 23 15 62 30 88 31 57 32 68 5 111 -21 34 -25 67 -21 166 2 54 5 61 51
112 34 37 52 67 57 93 3 21 15 53 25 71 14 24 19 51 18 95 -1 47 4 73 22 107
37 73 130 202 180 250 53 51 93 125 134 253 35 107 31 114 -69 124 -52 5 -75
12 -97 31 -23 19 -36 23 -62 18 -74 -14 -145 -11 -227 9 -80 20 -85 23 -94 53
-5 18 -20 44 -33 58 -26 28 -35 28 -122 -13 -42 -19 -63 -23 -95 -19 -22 4
-59 8 -81 9 -40 2 -84 27 -130 73 -13 13 -28 24 -32 24 -24 -1 -85 -29 -97
-46 -14 -18 -15 -18 -34 -1 -10 9 -25 36 -32 60 -19 64 -38 97 -65 109 -17 8
-27 22 -31 47 -3 20 -8 44 -11 54 -6 23 -117 77 -156 77 -15 0 -51 14 -80 30
-30 17 -65 30 -78 30 -14 0 -54 -20 -88 -45 -51 -35 -67 -42 -82 -34 -11 5
-19 14 -19 19 0 27 -34 40 -108 40 -64 0 -79 3 -99 21 -24 23 -58 28 -109 16
-37 -9 -78 18 -98 68 -25 60 -91 98 -112 64 -4 -7 -12 1 -20 19 -10 24 -22 33
-54 42 -25 7 -55 25 -74 45 -35 38 -130 85 -169 85 -26 0 -27 3 -27 49 0 28 5
53 11 57 16 10 4 97 -18 134 -17 30 -17 32 4 73 27 54 36 106 22 123 -7 8 -31
14 -56 14 -41 0 -50 -5 -94 -49 -42 -43 -49 -55 -49 -90 0 -45 -26 -71 -71
-71 -15 0 -51 -16 -80 -35 -59 -40 -71 -40 -172 -2 -59 22 -59 22 -54 58 3 20
14 46 26 58 12 12 21 34 21 49 0 29 -26 62 -48 62 -7 0 -12 11 -12 24 0 41 18
76 45 86 37 14 32 44 -12 71 -21 12 -54 40 -74 61 l-35 37 -115 0 c-78 0 -121
-5 -135 -14 -20 -13 -22 -11 -33 40 -15 66 -62 139 -112 172 -39 26 -120 35
-166 19 -18 -7 -27 -1 -53 35 -23 33 -30 50 -25 69 22 87 22 86 -48 130 -42
27 -67 49 -71 65 -9 34 -42 40 -105 19 -46 -15 -80 -43 -95 -77 -5 -13 -49 32
-93 96 -20 28 -37 40 -71 49 l-45 11 7 86 c6 80 5 88 -18 122 -13 20 -28 53
-32 75 -3 21 -11 45 -17 52 -15 19 -49 14 -82 -14z"/>
<path d="M11702 2350 c-47 -7 -61 -21 -63 -60 0 -14 -3 -83 -5 -154 -2 -71 -6
-132 -9 -134 -3 -3 -15 0 -28 5 -28 13 -85 2 -168 -33 -31 -13 -65 -24 -75
-24 -23 0 -115 -42 -154 -70 -15 -11 -35 -20 -42 -20 -30 0 -48 -35 -48 -93 0
-48 -4 -58 -26 -76 -14 -11 -34 -23 -45 -26 -14 -5 -19 -16 -19 -40 0 -31 3
-35 39 -45 21 -5 44 -17 52 -26 11 -13 9 -14 -14 -9 -32 9 -77 -31 -77 -69 0
-46 68 -139 130 -177 12 -7 10 -13 -15 -34 -16 -14 -41 -31 -55 -38 -32 -16
-35 -35 -10 -74 18 -31 23 -33 75 -33 30 0 55 -4 55 -9 0 -5 -5 -32 -11 -59
-10 -43 -16 -51 -40 -56 -20 -4 -29 -12 -29 -24 0 -32 33 -52 83 -52 51 0 70
-16 42 -36 -10 -8 -19 -31 -22 -58 -5 -40 -1 -50 31 -94 38 -53 52 -62 94 -62
15 0 46 -9 70 -20 36 -16 47 -29 67 -74 18 -42 31 -57 51 -62 36 -9 74 22 89
72 6 22 24 58 38 80 15 21 27 44 27 50 0 6 9 23 21 38 15 19 20 36 16 59 -3
21 1 38 11 50 11 13 17 50 22 135 l7 117 62 122 c57 114 61 127 61 190 0 37
-5 108 -10 157 -8 64 -7 99 1 123 11 35 -2 147 -22 185 -5 10 -9 25 -9 33 0 9
-11 21 -25 27 -19 9 -24 16 -19 32 7 23 27 61 46 87 8 12 6 26 -10 60 -12 27
-23 74 -26 119 -4 61 -9 78 -27 93 -12 9 -26 16 -33 16 -6 -1 -31 -5 -54 -9z"/>
</g>
</svg>
