<?xml version="1.0" standalone="no"?>
<!DOCTYPE svg PUBLIC "-//W3C//DTD SVG 20010904//EN"
 "http://www.w3.org/TR/2001/REC-SVG-20010904/DTD/svg10.dtd">
<svg version="1.0" xmlns="http://www.w3.org/2000/svg"
 width="1135.000000pt" height="1280.000000pt" viewBox="0 0 1135.000000 1280.000000"
 preserveAspectRatio="xMidYMid meet">
<metadata>
Created by potrace 1.15, written by Peter Selinger 2001-2017
</metadata>
<g transform="translate(0.000000,1280.000000) scale(0.100000,-0.100000)"
fill="#000000" stroke="none">
<path d="M5428 12585 c-41 -14 -101 -67 -456 -408 -516 -497 -1692 -1626
-2692 -2587 -1909 -1833 -2042 -1963 -2058 -1999 -34 -79 -12 -191 50 -247 65
-60 53 -59 550 -62 l458 -3 0 -3255 c0 -2439 3 -3267 12 -3301 15 -60 87 -137
143 -152 29 -8 1184 -11 4073 -11 3623 0 4036 2 4070 16 47 19 88 58 115 109
l22 40 3 3278 2 3277 448 0 448 0 55 28 c76 38 112 92 117 177 3 50 0 73 -17
107 -15 32 -284 296 -1065 1047 l-1046 1004 -2 1076 -3 1076 -23 58 c-33 81
-114 166 -194 203 l-63 29 -550 0 -550 0 -67 -33 c-83 -41 -158 -120 -187
-197 -18 -47 -21 -81 -22 -218 -1 -89 -4 -212 -8 -273 l-6 -111 -260 249
c-940 904 -1100 1055 -1130 1071 -49 25 -112 29 -167 12z"/>
</g>
</svg>
