<?xml version="1.0" standalone="no"?>
<!DOCTYPE svg PUBLIC "-//W3C//DTD SVG 20010904//EN"
 "http://www.w3.org/TR/2001/REC-SVG-20010904/DTD/svg10.dtd">
<svg version="1.0" xmlns="http://www.w3.org/2000/svg"
 width="960.000000pt" height="1280.000000pt" viewBox="0 0 960.000000 1280.000000"
 preserveAspectRatio="xMidYMid meet">
<metadata>
Created by potrace 1.15, written by Peter Selinger 2001-2017
</metadata>
<g transform="translate(0.000000,1280.000000) scale(0.100000,-0.100000)"
fill="#000000" stroke="none">
<path d="M935 12781 c-100 -46 -136 -145 -99 -270 31 -106 112 -219 297 -416
l75 -80 104 109 c131 138 202 232 247 326 30 63 35 85 36 145 0 82 -24 131
-85 171 -90 60 -206 34 -265 -58 -16 -26 -32 -47 -35 -47 -3 0 -18 21 -35 47
-53 83 -152 113 -240 73z"/>
<path d="M3335 12781 c-100 -46 -136 -145 -99 -272 31 -106 113 -222 280 -398
l89 -93 97 98 c174 178 260 304 288 422 29 126 -43 242 -162 258 -80 11 -169
-37 -198 -106 -7 -16 -15 -30 -19 -30 -3 0 -21 23 -39 51 -54 83 -149 111
-237 70z"/>
<path d="M5735 12781 c-99 -46 -136 -145 -100 -268 31 -105 113 -222 273 -392
l98 -104 98 101 c182 187 262 307 287 429 15 71 3 126 -37 179 -29 40 -98 74
-147 74 -73 0 -152 -50 -177 -111 -7 -16 -15 -29 -19 -29 -3 0 -19 22 -36 48
-53 83 -152 114 -240 73z"/>
<path d="M6535 12781 c-119 -54 -147 -192 -71 -345 46 -92 110 -176 238 -310
l103 -108 106 108 c254 262 332 437 256 576 -40 74 -137 112 -224 89 -38 -11
-78 -46 -123 -111 -15 -22 -16 -22 -46 27 -53 85 -150 115 -239 74z"/>
<path d="M7352 12789 c-47 -14 -109 -79 -122 -130 -36 -132 48 -293 279 -535
l103 -109 99 105 c117 124 163 182 217 271 68 112 88 212 57 287 -62 146 -255
164 -340 30 -16 -26 -32 -47 -35 -47 -3 0 -18 21 -35 47 -49 77 -132 107 -223
81z"/>
<path d="M8149 12791 c-45 -15 -79 -43 -104 -85 -34 -59 -39 -103 -21 -176 32
-122 109 -235 283 -413 l96 -98 35 33 c70 67 215 235 260 302 55 83 92 180 92
242 0 199 -244 279 -352 115 -18 -28 -35 -51 -38 -51 -3 0 -14 17 -25 37 -32
59 -83 93 -146 98 -30 3 -66 1 -80 -4z"/>
<path d="M135 12771 c-56 -25 -101 -80 -113 -138 -28 -131 55 -287 272 -510
l111 -115 101 105 c192 200 275 335 282 458 3 52 0 74 -17 106 -39 78 -122
122 -206 108 -53 -8 -98 -40 -132 -93 l-27 -44 -18 23 c-51 69 -65 83 -102
100 -52 23 -100 24 -151 0z"/>
<path d="M1755 12778 c-77 -27 -135 -106 -135 -184 0 -129 88 -275 298 -494
l91 -95 96 100 c188 198 279 341 291 460 5 53 3 66 -23 115 -23 44 -39 60 -82
82 -30 16 -69 28 -90 28 -57 0 -121 -38 -156 -92 -16 -26 -32 -47 -35 -47 -3
0 -20 22 -38 50 -50 77 -133 106 -217 77z"/>
<path d="M2522 12773 c-65 -32 -112 -109 -112 -184 0 -49 39 -154 81 -220 50
-77 154 -200 243 -289 l66 -64 71 69 c240 235 352 441 309 569 -16 48 -66 105
-107 122 -42 18 -127 18 -161 0 -33 -18 -75 -61 -94 -100 l-15 -29 -18 29
c-28 44 -67 84 -97 100 -36 19 -125 17 -166 -3z"/>
<path d="M4147 12776 c-77 -28 -126 -102 -127 -187 0 -61 33 -155 82 -231 44
-68 175 -222 257 -302 l50 -50 103 109 c172 180 250 297 278 413 24 102 -15
193 -102 236 -28 14 -68 26 -88 26 -56 0 -121 -38 -155 -92 -16 -26 -32 -47
-35 -47 -3 -1 -18 19 -33 44 -16 24 -43 54 -62 65 -44 27 -119 34 -168 16z"/>
<path d="M4942 12764 c-112 -56 -139 -180 -71 -325 45 -92 115 -185 246 -325
l102 -109 37 35 c76 73 218 238 265 310 109 165 116 319 18 392 -102 76 -216
59 -281 -41 -18 -28 -35 -50 -38 -50 -3 0 -18 21 -35 47 -34 54 -99 92 -155
92 -20 0 -60 -12 -88 -26z"/>
<path d="M8922 12764 c-87 -43 -126 -134 -102 -236 28 -117 107 -235 279 -414
l104 -109 104 110 c239 250 320 416 269 549 -57 149 -262 167 -342 30 -14 -24
-29 -44 -34 -44 -4 0 -13 13 -20 29 -24 60 -104 111 -173 111 -18 0 -57 -12
-85 -26z"/>
<path d="M935 11992 c-122 -57 -146 -188 -65 -350 47 -92 118 -183 246 -313
l94 -96 89 91 c236 241 327 411 292 544 -29 106 -155 170 -258 131 -36 -13
-88 -64 -104 -100 -6 -16 -14 -29 -18 -28 -3 0 -19 21 -36 46 -43 66 -74 86
-142 90 -42 3 -69 -2 -98 -15z"/>
<path d="M2557 11995 c-78 -20 -146 -104 -147 -180 0 -55 29 -146 71 -217 43
-73 179 -237 269 -323 l52 -50 102 107 c127 131 195 220 244 317 32 66 37 83
37 150 0 67 -3 81 -27 116 -87 128 -265 115 -337 -23 l-17 -33 -36 54 c-52 78
-122 106 -211 82z"/>
<path d="M3335 11994 c-131 -72 -150 -212 -50 -382 47 -80 104 -152 221 -276
l101 -107 115 120 c136 140 228 273 258 367 30 100 24 153 -28 223 -44 60
-146 88 -219 60 -36 -13 -88 -64 -104 -100 -6 -16 -14 -29 -18 -29 -3 0 -16
18 -29 40 -36 64 -84 94 -156 97 -42 2 -70 -2 -91 -13z"/>
<path d="M5735 11994 c-124 -68 -146 -187 -66 -349 47 -94 113 -179 244 -314
l96 -99 104 107 c159 163 237 275 271 390 19 64 20 92 6 143 -29 102 -156 165
-257 127 -36 -13 -88 -64 -104 -100 -6 -16 -14 -29 -18 -28 -3 0 -19 21 -36
46 -44 68 -74 87 -148 90 -43 2 -71 -2 -92 -13z"/>
<path d="M6526 11987 c-22 -12 -53 -39 -70 -60 -29 -36 -31 -44 -31 -120 0
-72 4 -90 33 -150 43 -87 109 -175 240 -315 l105 -113 70 68 c147 145 267 305
303 404 40 110 11 224 -68 276 -35 24 -52 28 -109 28 -78 0 -103 -14 -158 -88
l-35 -46 -30 47 c-58 88 -165 118 -250 69z"/>
<path d="M7335 11991 c-50 -22 -91 -69 -105 -119 -13 -49 -13 -77 4 -138 30
-113 115 -235 287 -411 l90 -91 102 105 c272 280 349 479 235 608 -39 45 -103
69 -169 63 -60 -6 -94 -29 -134 -91 -16 -25 -33 -46 -36 -46 -4 -1 -12 12 -18
28 -16 36 -68 87 -104 100 -42 16 -107 13 -152 -8z"/>
<path d="M8124 11991 c-23 -10 -53 -34 -67 -52 -100 -133 -27 -322 231 -589
l117 -122 119 128 c224 243 302 408 251 532 -35 82 -107 126 -195 120 -68 -5
-110 -31 -150 -96 l-28 -45 -25 39 c-63 100 -154 130 -253 85z"/>
<path d="M122 11979 c-25 -13 -55 -39 -69 -60 -92 -139 -16 -320 247 -593
l105 -109 103 109 c129 136 192 218 240 313 34 68 37 82 37 157 0 76 -2 85
-31 121 -89 112 -244 109 -316 -8 l-32 -51 -16 23 c-74 114 -167 148 -268 98z"/>
<path d="M1735 11981 c-80 -36 -122 -114 -112 -208 12 -114 99 -252 283 -447
l100 -107 96 98 c273 278 354 469 257 603 -70 97 -214 107 -292 21 -19 -21
-38 -48 -42 -60 -9 -30 -16 -26 -50 27 -53 83 -152 113 -240 73z"/>
<path d="M4135 11981 c-100 -46 -136 -145 -99 -272 31 -102 97 -199 258 -372
l109 -118 84 83 c98 96 202 221 244 293 43 73 73 177 65 227 -20 122 -112 191
-231 173 -53 -7 -115 -56 -135 -105 -7 -17 -15 -30 -19 -30 -3 0 -19 22 -36
48 -53 83 -152 114 -240 73z"/>
<path d="M4941 11978 c-91 -45 -128 -140 -97 -252 35 -123 111 -233 284 -410
l97 -98 73 78 c131 141 196 220 239 292 70 117 89 214 58 290 -62 146 -255
164 -340 30 -34 -53 -41 -57 -50 -27 -4 12 -23 39 -42 60 -55 61 -143 76 -222
37z"/>
<path d="M8919 11977 c-80 -43 -119 -130 -100 -226 24 -121 107 -246 280 -425
l106 -108 88 93 c214 227 297 365 297 491 0 195 -251 270 -355 106 -16 -26
-33 -48 -36 -48 -4 0 -12 13 -18 29 -16 36 -68 87 -104 100 -47 18 -110 13
-158 -12z"/>
<path d="M974 11241 c-81 -20 -141 -87 -151 -171 -15 -129 98 -320 321 -540
l66 -64 41 39 c85 82 214 233 261 305 51 79 88 178 88 236 0 120 -122 219
-237 194 -59 -14 -87 -33 -120 -86 -15 -24 -31 -44 -34 -44 -3 0 -19 22 -36
48 -42 67 -123 101 -199 83z"/>
<path d="M3372 11240 c-55 -13 -108 -55 -132 -105 -63 -130 22 -311 257 -553
l113 -117 101 105 c275 286 349 481 232 611 -63 70 -176 84 -251 31 -17 -12
-42 -43 -57 -69 l-28 -46 -15 29 c-29 57 -82 102 -134 114 -27 5 -50 10 -51 9
-1 -1 -17 -5 -35 -9z"/>
<path d="M2522 11219 c-86 -44 -124 -130 -103 -232 25 -122 109 -248 289 -431
l97 -98 98 103 c201 214 287 358 287 481 0 195 -251 270 -355 106 -16 -26 -32
-48 -35 -48 -3 0 -14 17 -25 37 -50 92 -162 129 -253 82z"/>
<path d="M4972 11230 c-77 -18 -152 -109 -152 -185 0 -129 92 -282 300 -498
l88 -92 42 40 c83 78 214 231 262 304 61 93 93 193 85 264 -13 102 -93 171
-198 170 -73 -1 -119 -28 -155 -89 -14 -24 -29 -44 -32 -44 -4 0 -20 20 -35
45 -45 71 -123 104 -205 85z"/>
<path d="M125 11215 c-48 -24 -93 -82 -104 -133 -18 -87 13 -186 99 -312 36
-52 247 -291 271 -305 14 -9 157 131 245 240 177 218 202 410 66 496 -38 24
-57 29 -107 29 -75 0 -115 -23 -162 -93 l-31 -47 -26 45 c-40 67 -87 95 -161
95 -33 0 -73 -7 -90 -15z"/>
<path d="M1735 11216 c-78 -35 -121 -116 -111 -210 12 -120 100 -259 282 -444
l104 -107 106 110 c176 182 253 301 276 422 14 77 2 127 -45 180 -40 45 -82
63 -148 63 -72 0 -114 -24 -157 -87 l-36 -54 -14 28 c-19 38 -61 82 -94 99
-34 18 -123 18 -163 0z"/>
<path d="M4115 11205 c-22 -13 -51 -41 -65 -61 -21 -32 -25 -49 -25 -114 0
-70 4 -84 42 -161 45 -91 154 -229 272 -344 l72 -70 90 94 c230 239 324 413
289 540 -13 50 -63 109 -107 127 -44 19 -128 17 -170 -3 -21 -10 -49 -38 -71
-70 l-36 -54 -14 28 c-19 38 -61 82 -94 99 -44 23 -136 18 -183 -11z"/>
<path d="M8945 11221 c-54 -14 -95 -41 -123 -83 -23 -36 -27 -51 -27 -118 0
-68 4 -84 37 -151 49 -98 118 -187 244 -317 l104 -107 100 105 c173 181 257
307 280 425 16 75 3 130 -42 181 -43 48 -83 67 -148 68 -70 1 -115 -24 -155
-86 -16 -26 -33 -47 -37 -47 -4 -1 -14 12 -22 27 -24 47 -75 89 -121 101 -48
12 -47 12 -90 2z"/>
<path d="M5734 11201 c-63 -29 -114 -109 -114 -181 0 -109 103 -279 278 -461
l115 -120 101 107 c183 194 271 332 283 447 10 98 -37 180 -122 213 -93 35
-188 1 -237 -86 -13 -22 -26 -40 -29 -40 -4 0 -12 13 -18 29 -16 36 -68 87
-104 100 -43 16 -107 13 -153 -8z"/>
<path d="M6595 11213 c-55 -10 -67 -16 -100 -45 -143 -125 -75 -325 214 -628
l101 -105 105 108 c124 127 209 237 250 327 24 54 30 78 30 141 0 66 -4 81
-27 117 -66 99 -212 116 -290 34 -20 -20 -42 -49 -50 -65 l-14 -27 -34 52
c-47 71 -114 104 -185 91z"/>
<path d="M7350 11195 c-94 -29 -147 -124 -129 -234 18 -115 96 -236 277 -427
l102 -108 71 69 c195 191 309 368 317 490 7 110 -46 188 -147 215 -87 23 -163
-15 -219 -109 l-20 -34 -21 40 c-25 50 -70 89 -119 103 -46 12 -56 12 -112 -5z"/>
<path d="M8125 11197 c-42 -20 -92 -74 -106 -115 -6 -20 -9 -64 -7 -102 9
-120 92 -250 293 -459 l90 -93 103 108 c128 133 192 217 239 312 58 116 58
222 1 288 -92 105 -240 97 -310 -16 -17 -27 -32 -50 -34 -50 -1 0 -14 19 -30
43 -39 63 -84 90 -152 94 -34 2 -69 -2 -87 -10z"/>
<path d="M108 10381 c-96 -61 -116 -189 -48 -322 51 -100 115 -185 238 -309
l113 -115 100 105 c55 58 123 134 150 170 137 182 169 335 89 432 -40 48 -86
68 -157 68 -72 0 -120 -29 -159 -95 l-26 -45 -31 47 c-47 70 -87 93 -162 93
-50 0 -69 -5 -107 -29z"/>
<path d="M925 10396 c-62 -28 -115 -110 -115 -180 0 -55 37 -158 81 -227 50
-77 154 -200 243 -289 l66 -64 71 69 c204 202 320 387 319 514 -1 71 -58 156
-123 180 -40 15 -123 14 -155 -3 -33 -17 -75 -61 -94 -100 l-15 -29 -33 51
c-43 65 -91 92 -161 92 -30 -1 -67 -7 -84 -14z"/>
<path d="M1745 10396 c-62 -28 -115 -110 -115 -180 0 -55 37 -158 81 -227 50
-77 154 -200 243 -289 l66 -64 66 64 c83 81 198 218 244 290 19 30 44 83 56
117 l21 62 16 -57 c29 -104 109 -218 271 -388 l101 -107 118 123 c123 129 216
256 248 340 29 76 26 175 -7 226 -69 107 -216 125 -295 36 -19 -20 -41 -48
-49 -61 l-16 -23 -30 49 c-53 85 -150 115 -240 74 -44 -20 -104 -85 -104 -113
0 -29 -17 -21 -23 11 -8 38 -63 100 -104 117 -42 18 -127 18 -161 0 -33 -17
-75 -61 -94 -100 l-15 -29 -33 51 c-43 65 -91 92 -161 92 -30 -1 -67 -7 -84
-14z"/>
<path d="M4152 10400 c-80 -19 -152 -109 -152 -191 0 -60 36 -159 88 -239 47
-72 176 -223 261 -305 l41 -39 41 39 c83 80 214 232 261 304 51 78 88 179 88
240 0 20 -12 61 -26 89 -66 133 -247 144 -327 21 -18 -27 -34 -49 -37 -49 -3
0 -19 22 -37 49 -44 67 -123 99 -201 81z"/>
<path d="M4925 10396 c-62 -28 -115 -110 -115 -180 0 -55 37 -158 81 -227 50
-78 154 -201 244 -289 l66 -65 104 107 c272 280 346 475 232 605 -40 45 -82
63 -147 63 -75 0 -134 -39 -172 -114 l-15 -29 -18 29 c-28 44 -67 84 -97 100
-34 18 -123 18 -163 0z"/>
<path d="M7328 10390 c-143 -76 -133 -260 24 -468 60 -80 245 -282 257 -282
15 0 205 200 261 275 122 162 158 291 110 390 -33 69 -94 105 -175 105 -75 0
-115 -23 -161 -93 l-32 -48 -26 45 c-40 68 -87 96 -161 96 -40 -1 -73 -8 -97
-20z"/>
<path d="M8125 10396 c-17 -7 -44 -29 -62 -49 -115 -131 -42 -323 231 -604
l105 -108 41 40 c85 81 215 232 262 305 52 80 88 179 88 239 -1 71 -58 156
-123 180 -16 6 -51 11 -79 11 -67 0 -120 -31 -160 -93 l-31 -49 -15 28 c-19
39 -61 83 -94 100 -34 17 -123 18 -163 0z"/>
<path d="M8925 10394 c-84 -44 -126 -133 -107 -230 24 -116 115 -253 291 -435
l90 -94 86 85 c122 120 209 231 258 329 38 77 42 91 42 161 0 87 -20 127 -83
171 -52 36 -154 39 -202 7 -19 -13 -49 -45 -66 -70 l-32 -47 -35 53 c-21 32
-49 59 -70 69 -44 21 -133 22 -172 1z"/>
<path d="M5725 10384 c-82 -42 -122 -118 -111 -210 14 -119 102 -258 281 -442
l104 -107 81 80 c252 247 355 457 288 584 -34 67 -86 103 -152 109 -30 2 -67
1 -81 -2 -34 -9 -100 -69 -115 -106 -15 -35 -26 -38 -35 -9 -10 29 -63 87 -96
105 -37 19 -126 18 -164 -2z"/>
<path d="M6534 10381 c-82 -37 -124 -132 -103 -233 25 -117 117 -254 292 -435
l90 -93 101 107 c115 121 174 194 220 273 95 161 86 296 -22 371 -30 20 -48
24 -108 24 -85 0 -111 -14 -160 -89 l-31 -47 -33 51 c-55 86 -152 114 -246 71z"/>
<path d="M3295 10365 c-22 -13 -51 -41 -65 -61 -21 -32 -25 -49 -25 -114 0
-70 4 -84 42 -161 48 -96 143 -217 263 -334 l81 -80 90 94 c176 182 262 311
289 432 17 77 -5 153 -56 199 -46 40 -73 50 -137 50 -69 0 -114 -25 -156 -88
l-34 -50 -31 46 c-46 69 -86 92 -160 92 -47 0 -70 -6 -101 -25z"/>
<path d="M4966 9635 c-80 -21 -145 -104 -146 -186 0 -61 37 -162 88 -240 47
-72 178 -224 261 -304 l41 -39 66 64 c159 157 271 311 304 418 26 85 25 128
-5 188 -71 141 -267 142 -341 2 -8 -16 -18 -28 -22 -28 -4 0 -18 18 -32 40
-48 77 -124 108 -214 85z"/>
<path d="M7355 9625 c-50 -17 -112 -85 -121 -132 -27 -142 54 -298 271 -521
l110 -114 112 116 c121 126 183 206 234 306 31 59 34 73 34 151 0 79 -2 88
-29 123 -54 71 -131 98 -212 76 -43 -12 -87 -51 -125 -109 l-15 -24 -21 34
c-59 95 -142 128 -238 94z"/>
<path d="M966 9619 c-141 -33 -186 -190 -104 -354 50 -99 112 -179 238 -308
l109 -112 103 109 c181 191 259 311 277 427 18 112 -35 205 -133 234 -99 30
-182 -8 -231 -103 l-16 -34 -28 44 c-36 55 -60 77 -108 94 -44 15 -53 15 -107
3z"/>
<path d="M3360 9618 c-93 -26 -145 -107 -138 -213 8 -122 120 -296 317 -489
l70 -70 103 108 c226 238 304 386 276 521 -8 37 -21 60 -52 91 -97 97 -245 74
-307 -48 l-20 -40 -28 44 c-38 58 -69 84 -116 97 -47 13 -58 13 -105 -1z"/>
<path d="M4160 9618 c-119 -34 -171 -162 -122 -304 29 -83 129 -221 252 -348
l115 -118 100 101 c180 184 272 326 282 439 8 91 -2 128 -51 176 -98 98 -239
78 -308 -45 l-22 -39 -27 42 c-34 55 -58 77 -106 94 -44 15 -65 16 -113 2z"/>
<path d="M5708 9601 c-172 -109 -90 -360 217 -661 l87 -85 100 105 c171 179
253 304 277 422 29 136 -58 248 -191 248 -71 0 -115 -25 -157 -87 l-34 -51
-31 46 c-46 69 -86 92 -161 92 -50 0 -69 -5 -107 -29z"/>
<path d="M6528 9610 c-143 -76 -133 -262 27 -474 65 -87 245 -277 259 -274 7
2 62 56 123 120 123 130 214 257 244 342 58 167 -22 306 -176 306 -75 0 -115
-23 -161 -92 l-30 -47 -35 51 c-19 28 -50 60 -69 70 -47 24 -133 23 -182 -2z"/>
<path d="M8915 9616 c-39 -17 -93 -78 -101 -114 -13 -63 -16 -64 -28 -10 -20
90 -157 154 -253 117 -36 -13 -88 -64 -104 -100 -15 -37 -23 -36 -39 1 -18 43
-83 98 -125 106 -97 18 -178 -20 -223 -107 -67 -128 36 -338 288 -584 l81 -80
104 107 c156 161 237 276 265 378 7 25 14 52 17 60 3 8 11 -10 19 -40 8 -30
35 -90 61 -132 44 -73 183 -237 273 -323 l41 -40 104 107 c182 188 269 324
281 445 6 54 3 69 -19 115 -34 68 -80 100 -152 106 -30 2 -65 2 -79 -2 -35 -9
-93 -62 -115 -104 l-18 -34 -31 49 c-41 64 -93 93 -163 93 -30 -1 -68 -7 -84
-14z"/>
<path d="M125 9604 c-85 -44 -126 -133 -106 -231 23 -117 156 -309 330 -478
l51 -49 86 84 c122 120 209 232 257 329 38 77 42 91 42 161 0 87 -20 127 -83
171 -52 36 -154 39 -202 7 -19 -13 -49 -45 -66 -70 l-32 -47 -35 53 c-21 32
-49 59 -70 69 -44 21 -133 22 -172 1z"/>
<path d="M1780 9610 c-111 -20 -168 -101 -158 -225 10 -116 96 -252 275 -435
l113 -115 95 100 c178 187 267 324 284 432 21 142 -59 243 -194 243 -75 0
-115 -23 -157 -90 l-30 -49 -32 46 c-17 26 -43 55 -57 66 -33 24 -92 35 -139
27z"/>
<path d="M2590 9610 c-51 -9 -96 -39 -128 -84 -24 -34 -27 -49 -27 -115 0 -65
5 -86 32 -143 44 -92 125 -199 248 -326 l104 -107 52 50 c92 89 233 260 272
331 84 151 84 267 0 346 -37 35 -77 50 -135 49 -69 0 -114 -25 -156 -88 l-36
-54 -14 28 c-18 34 -60 81 -87 96 -30 16 -86 24 -125 17z"/>
<path d="M4960 8818 c-136 -38 -180 -192 -101 -349 51 -99 116 -184 237 -308
l111 -115 99 103 c184 193 265 315 283 429 18 114 -35 208 -131 237 -93 27
-167 -1 -224 -87 l-30 -47 -19 35 c-26 48 -76 91 -122 103 -44 13 -56 13 -103
-1z"/>
<path d="M6160 8810 c-60 -11 -110 -51 -142 -114 l-15 -28 -27 46 c-39 67 -87
96 -158 96 -68 0 -103 -12 -141 -48 -47 -44 -61 -80 -60 -155 0 -120 86 -261
281 -467 l100 -105 72 70 c259 251 366 465 300 600 -37 76 -124 120 -210 105z"/>
<path d="M6580 8810 c-51 -9 -96 -39 -128 -84 -24 -34 -27 -49 -27 -115 0 -64
5 -86 32 -143 44 -93 126 -200 249 -326 l104 -107 100 104 c278 289 351 481
234 611 -40 44 -86 63 -151 62 -66 -2 -110 -28 -151 -89 l-36 -54 -14 28 c-18
34 -60 81 -87 96 -30 16 -86 24 -125 17z"/>
<path d="M7352 8809 c-47 -14 -109 -79 -122 -130 -23 -86 10 -197 98 -326 43
-62 269 -313 283 -313 13 0 238 251 281 313 73 108 103 183 103 262 0 82 -24
131 -85 171 -90 60 -206 34 -265 -58 -16 -26 -32 -47 -35 -47 -3 0 -18 21 -35
47 -49 77 -132 107 -223 81z"/>
<path d="M8925 8801 c-48 -22 -79 -54 -100 -103 -53 -128 34 -303 271 -547
l103 -106 81 80 c253 247 355 456 288 584 -45 87 -126 125 -223 107 -42 -8
-107 -63 -125 -106 -16 -37 -24 -38 -39 -1 -16 36 -68 87 -104 100 -42 16
-107 13 -152 -8z"/>
<path d="M168 8800 c-57 -10 -112 -52 -138 -105 -65 -135 34 -339 285 -585
l87 -85 100 105 c118 125 186 212 232 300 73 139 67 253 -16 324 -46 40 -86
51 -157 44 -60 -6 -103 -35 -137 -93 l-26 -45 -31 47 c-54 79 -114 107 -199
93z"/>
<path d="M958 8801 c-59 -19 -97 -52 -124 -107 -23 -47 -26 -62 -20 -112 13
-117 106 -263 291 -457 l95 -100 106 110 c131 135 194 218 241 315 33 66 37
84 37 152 1 69 -2 80 -29 119 -82 117 -251 113 -321 -7 -14 -24 -29 -44 -32
-43 -4 0 -20 21 -37 47 -16 25 -44 54 -61 64 -37 22 -109 31 -146 19z"/>
<path d="M3358 8800 c-106 -32 -158 -125 -137 -244 20 -115 98 -233 277 -422
l104 -109 105 110 c128 133 192 217 239 312 66 130 55 254 -27 315 -101 76
-225 54 -285 -48 -14 -24 -29 -44 -32 -43 -4 0 -20 21 -37 47 -47 74 -128 106
-207 82z"/>
<path d="M4158 8801 c-116 -38 -168 -139 -135 -267 29 -114 111 -233 285 -414
l92 -95 89 92 c220 227 313 387 298 515 -12 102 -93 173 -197 173 -69 0 -118
-28 -157 -90 -15 -25 -30 -45 -33 -45 -3 0 -18 21 -35 47 -16 26 -44 55 -61
65 -37 21 -109 31 -146 19z"/>
<path d="M8122 8784 c-87 -43 -126 -134 -102 -236 28 -117 107 -235 279 -414
l104 -109 104 110 c239 250 320 416 269 549 -57 149 -262 167 -342 30 -14 -24
-29 -44 -34 -44 -4 0 -13 13 -20 29 -24 60 -104 111 -173 111 -18 0 -57 -12
-85 -26z"/>
<path d="M1785 8795 c-5 -2 -22 -6 -38 -9 -15 -4 -45 -22 -67 -42 -137 -124
-66 -326 219 -624 l101 -105 104 107 c189 195 272 329 282 455 5 59 3 74 -18
113 -36 65 -101 103 -178 103 -71 0 -115 -25 -156 -90 -15 -24 -30 -43 -33
-43 -3 0 -16 18 -29 40 -12 22 -39 51 -60 64 -34 23 -104 40 -127 31z"/>
<path d="M2575 8791 c-105 -26 -163 -123 -144 -241 18 -116 96 -235 283 -431
l98 -103 109 111 c189 195 269 324 277 449 4 58 1 77 -17 111 -39 78 -131 122
-215 103 -52 -11 -84 -36 -123 -94 l-32 -47 -17 33 c-44 87 -131 131 -219 109z"/>
<path d="M4935 7986 c-62 -28 -115 -110 -115 -180 0 -55 37 -158 81 -227 50
-77 154 -200 243 -289 l66 -64 66 64 c87 85 210 233 253 304 86 143 92 259 18
343 -40 45 -82 63 -147 63 -75 0 -134 -39 -172 -114 l-15 -29 -18 29 c-28 44
-67 84 -97 100 -34 18 -123 18 -163 0z"/>
<path d="M8953 7993 c-35 -7 -110 -80 -124 -120 -22 -67 -7 -160 39 -249 44
-83 166 -236 274 -342 l65 -63 103 108 c125 130 205 236 245 323 26 55 30 77
30 147 0 90 -10 111 -77 165 -26 21 -50 31 -91 35 -77 8 -135 -21 -178 -88
-18 -27 -33 -49 -34 -49 -1 0 -16 22 -34 49 -48 75 -121 103 -218 84z"/>
<path d="M975 7980 c-110 -25 -162 -103 -153 -225 10 -116 96 -252 275 -435
l113 -115 95 100 c178 187 267 324 284 432 21 140 -63 246 -194 245 -79 -1
-131 -34 -170 -110 l-16 -34 -28 44 c-32 50 -73 86 -108 93 -54 11 -70 12 -98
5z"/>
<path d="M3375 7981 c-148 -36 -196 -177 -117 -345 47 -100 108 -181 237 -314
l114 -117 96 100 c228 239 311 396 283 529 -21 99 -123 165 -226 146 -57 -10
-89 -33 -124 -91 l-31 -49 -20 32 c-53 90 -130 129 -212 109z"/>
<path d="M4166 7979 c-90 -21 -146 -97 -146 -198 0 -123 69 -243 255 -441 65
-69 121 -126 126 -128 12 -5 193 186 262 276 148 193 169 368 54 456 -62 48
-167 52 -226 9 -14 -11 -40 -41 -57 -66 l-31 -47 -22 40 c-47 83 -125 119
-215 99z"/>
<path d="M5708 7961 c-131 -83 -115 -262 42 -466 66 -86 243 -275 257 -275 6
0 41 33 79 73 226 238 305 367 305 498 1 120 -76 199 -193 199 -71 0 -115 -25
-157 -88 l-35 -51 -30 47 c-46 69 -86 92 -161 92 -50 0 -69 -5 -107 -29z"/>
<path d="M7370 7978 c-86 -24 -140 -99 -140 -193 0 -123 85 -267 269 -457
l116 -120 100 101 c180 184 272 326 282 439 8 90 -2 127 -50 176 -96 99 -240
78 -309 -45 l-22 -39 -27 42 c-34 55 -58 77 -106 94 -44 15 -65 16 -113 2z"/>
<path d="M125 7961 c-91 -41 -130 -137 -101 -251 30 -116 119 -243 293 -421
l85 -86 112 117 c63 65 134 147 160 182 104 147 140 281 98 364 -43 85 -113
122 -209 111 -55 -6 -88 -29 -129 -89 l-31 -46 -34 46 c-49 67 -91 92 -153 92
-28 0 -69 -9 -91 -19z"/>
<path d="M6566 7973 c-38 -10 -93 -54 -113 -91 -32 -56 -37 -101 -19 -172 32
-122 109 -235 284 -413 l96 -98 49 48 c79 77 229 256 265 315 43 73 72 157 72
213 0 200 -244 281 -352 116 -18 -28 -36 -51 -39 -51 -4 0 -12 13 -19 29 -32
79 -135 126 -224 104z"/>
<path d="M8147 7965 c-105 -37 -150 -145 -112 -272 31 -106 114 -224 274 -393
l100 -105 103 109 c132 139 202 232 247 326 30 63 35 85 36 145 0 82 -24 131
-85 171 -90 60 -206 34 -265 -58 -16 -26 -32 -47 -35 -47 -3 0 -18 21 -35 47
-51 80 -138 110 -228 77z"/>
<path d="M1717 7949 c-20 -11 -49 -38 -65 -61 -24 -37 -27 -51 -27 -122 0 -71
5 -90 32 -147 18 -36 59 -100 90 -141 70 -91 246 -278 261 -278 18 0 239 247
292 326 61 93 91 171 91 245 1 122 -76 199 -198 199 -72 0 -120 -29 -159 -96
l-26 -45 -32 48 c-46 70 -86 93 -160 93 -41 -1 -73 -7 -99 -21z"/>
<path d="M2545 7955 c-39 -18 -56 -33 -85 -75 -21 -30 -25 -46 -25 -111 0 -69
4 -83 42 -160 45 -91 153 -227 272 -344 l71 -69 41 39 c92 88 229 252 272 324
100 168 97 296 -8 377 -30 22 -50 29 -100 32 -85 6 -126 -15 -173 -85 l-36
-54 -14 28 c-19 38 -61 82 -94 99 -34 18 -124 17 -163 -1z"/>
<path d="M5734 7201 c-52 -24 -90 -73 -105 -137 -30 -128 65 -297 298 -535
l85 -86 95 98 c132 137 197 220 246 318 38 77 42 91 42 162 0 71 -2 80 -31
115 -55 68 -77 79 -159 79 -86 0 -111 -14 -161 -87 l-31 -46 -34 46 c-49 67
-91 92 -153 92 -28 0 -70 -9 -92 -19z"/>
<path d="M7365 7211 c-104 -25 -163 -123 -144 -241 18 -116 96 -235 282 -430
l98 -103 71 69 c258 254 361 459 300 596 -53 121 -216 152 -304 60 -20 -20
-42 -50 -51 -66 l-15 -30 -20 41 c-26 50 -71 89 -120 103 -41 11 -54 11 -97 1z"/>
<path d="M8135 7201 c-69 -31 -115 -104 -115 -182 0 -108 101 -276 274 -455
l114 -119 82 80 c251 245 355 456 288 584 -45 87 -126 125 -223 107 -42 -8
-107 -63 -125 -106 -16 -37 -24 -38 -39 -1 -16 36 -68 87 -104 100 -42 16
-107 13 -152 -8z"/>
<path d="M4935 7196 c-16 -7 -43 -26 -59 -42 -84 -84 -75 -220 26 -375 43 -68
175 -223 256 -302 l49 -48 102 108 c220 231 303 384 281 515 -16 90 -99 158
-194 158 -65 0 -117 -29 -155 -87 -18 -26 -35 -46 -39 -44 -4 3 -19 24 -34 48
-47 73 -152 105 -233 69z"/>
<path d="M6534 7191 c-73 -33 -122 -125 -110 -205 20 -127 100 -255 272 -435
l116 -121 101 106 c182 190 272 332 284 447 14 133 -79 234 -207 225 -68 -5
-110 -32 -151 -95 l-28 -45 -24 39 c-63 99 -154 129 -253 84z"/>
<path d="M8935 7191 c-69 -31 -115 -104 -115 -182 0 -33 27 -124 52 -174 34
-68 127 -185 235 -296 l104 -107 113 118 c176 183 261 318 273 433 14 134 -79
234 -209 225 -69 -5 -100 -25 -143 -91 -16 -25 -33 -46 -36 -46 -4 -1 -12 12
-18 28 -16 36 -68 87 -104 100 -42 16 -107 13 -152 -8z"/>
<path d="M914 7181 c-115 -52 -140 -194 -62 -347 45 -89 107 -170 233 -301
l106 -112 102 106 c128 132 200 227 246 323 31 66 36 84 36 150 0 63 -4 81
-24 111 -43 63 -84 84 -167 84 -85 0 -110 -14 -161 -88 l-31 -47 -31 48 c-55
87 -153 116 -247 73z"/>
<path d="M1715 7181 c-69 -31 -115 -104 -115 -182 0 -108 101 -276 274 -455
l114 -119 82 80 c251 245 355 456 288 584 -45 87 -126 125 -223 107 -42 -8
-107 -63 -125 -106 -16 -37 -24 -38 -39 -1 -16 36 -68 87 -104 100 -42 16
-107 13 -152 -8z"/>
<path d="M2531 7189 c-98 -39 -142 -138 -116 -261 21 -95 117 -234 277 -403
l103 -108 106 114 c200 214 268 325 277 449 6 87 -20 148 -81 188 -34 23 -51
27 -111 27 -84 0 -121 -21 -165 -91 l-27 -44 -34 52 c-19 28 -51 60 -70 70
-37 19 -119 23 -159 7z"/>
<path d="M3302 7179 c-26 -13 -55 -39 -70 -62 -24 -36 -27 -51 -27 -121 0 -70
4 -90 31 -146 40 -85 128 -200 251 -329 l99 -104 107 114 c132 141 187 213
235 308 93 186 29 349 -142 359 -77 4 -119 -17 -163 -82 -18 -26 -35 -47 -38
-47 -3 0 -20 21 -38 47 -18 26 -48 56 -67 66 -48 25 -124 23 -178 -3z"/>
<path d="M122 7169 c-26 -13 -55 -39 -70 -62 -24 -36 -27 -50 -27 -126 0 -78
4 -92 34 -151 47 -90 122 -187 243 -315 l104 -108 107 114 c133 142 187 213
235 308 34 68 37 82 37 156 0 70 -3 87 -24 117 -38 54 -84 81 -150 86 -77 6
-131 -22 -172 -86 -16 -26 -32 -47 -34 -47 -2 0 -18 22 -36 48 -56 85 -155
111 -247 66z"/>
<path d="M4115 7176 c-119 -52 -149 -194 -72 -347 47 -95 110 -178 238 -313
l104 -109 103 109 c128 134 192 217 240 313 91 183 29 347 -137 359 -77 6
-131 -22 -172 -86 -16 -26 -33 -45 -37 -43 -4 3 -19 24 -34 48 -47 73 -152
105 -233 69z"/>
<path d="M945 6377 c-55 -22 -74 -37 -99 -80 -33 -57 -41 -106 -26 -169 27
-117 110 -239 285 -419 l98 -100 35 33 c70 67 215 235 260 302 55 83 92 180
92 242 0 199 -244 279 -352 115 -18 -28 -36 -51 -39 -51 -4 0 -12 13 -19 29
-35 85 -148 132 -235 98z"/>
<path d="M3319 6367 c-24 -13 -57 -43 -74 -66 -27 -38 -30 -51 -30 -115 1 -61
6 -83 36 -146 45 -94 116 -187 247 -326 l104 -109 99 105 c244 257 327 429
274 558 -62 147 -255 164 -340 30 -16 -26 -32 -47 -35 -47 -3 0 -18 21 -35 47
-55 87 -158 115 -246 69z"/>
<path d="M5741 6379 c-49 -20 -84 -54 -108 -106 -21 -46 -24 -62 -18 -113 14
-120 100 -255 284 -446 l105 -108 98 104 c244 259 327 428 273 558 -62 147
-255 164 -340 30 -16 -26 -32 -47 -35 -47 -3 0 -18 21 -35 47 -48 76 -148 112
-224 81z"/>
<path d="M6540 6379 c-76 -30 -129 -107 -130 -185 0 -125 86 -270 289 -484
l100 -105 103 109 c132 139 202 232 247 326 30 63 35 85 36 146 0 64 -3 77
-30 115 -83 118 -244 116 -320 -3 -16 -26 -32 -47 -35 -47 -3 0 -18 21 -35 47
-48 76 -147 112 -225 81z"/>
<path d="M7322 6364 c-83 -41 -121 -124 -102 -224 23 -120 104 -244 279 -424
l106 -108 103 108 c127 133 192 217 238 310 76 153 48 291 -71 345 -88 41
-186 11 -238 -73 -16 -26 -33 -48 -37 -48 -4 0 -13 13 -19 29 -16 38 -68 86
-110 100 -53 17 -92 13 -149 -15z"/>
<path d="M8125 6371 c-52 -23 -102 -81 -111 -127 -27 -144 52 -296 275 -527
l105 -108 64 63 c116 114 231 259 275 347 39 79 42 90 42 167 0 77 -2 85 -31
121 -91 115 -243 108 -321 -15 l-27 -44 -16 23 c-71 110 -159 144 -255 100z"/>
<path d="M135 6366 c-22 -8 -57 -34 -77 -56 -116 -130 -21 -358 269 -643 l69
-68 110 113 c181 187 263 319 272 438 6 85 -9 129 -58 174 -102 92 -224 68
-310 -62 l-15 -23 -35 47 c-19 26 -46 56 -60 66 -34 25 -115 32 -165 14z"/>
<path d="M1720 6353 c-44 -23 -60 -39 -83 -83 -26 -49 -28 -62 -23 -115 12
-119 94 -250 283 -451 l103 -109 51 50 c83 81 213 235 258 304 47 73 81 172
81 235 0 58 -37 124 -89 161 -36 26 -52 30 -104 30 -76 0 -123 -26 -164 -90
-15 -25 -30 -45 -33 -44 -3 0 -18 21 -35 47 -36 56 -76 81 -142 88 -40 5 -57
1 -103 -23z"/>
<path d="M2520 6364 c-87 -38 -126 -119 -108 -229 17 -113 103 -244 280 -429
l103 -107 122 133 c140 152 171 193 222 292 33 64 36 79 36 152 0 69 -4 86
-24 116 -43 62 -84 83 -167 83 -85 0 -111 -14 -160 -88 l-30 -46 -35 51 c-19
28 -50 59 -69 69 -42 23 -121 24 -170 3z"/>
<path d="M4120 6353 c-45 -23 -60 -37 -83 -83 -26 -49 -28 -62 -23 -115 7 -67
45 -155 104 -242 43 -63 268 -313 281 -313 12 0 169 166 235 248 180 224 203
407 63 500 -33 22 -52 27 -101 27 -78 -1 -117 -22 -159 -85 -17 -27 -34 -49
-37 -49 -3 0 -18 21 -35 47 -36 56 -76 81 -142 88 -40 5 -57 1 -103 -23z"/>
<path d="M4956 6365 c-93 -33 -146 -131 -126 -235 23 -121 110 -253 287 -433
l98 -99 101 105 c192 200 275 335 282 458 3 52 0 74 -17 106 -39 78 -122 122
-206 108 -53 -8 -98 -40 -132 -93 l-27 -44 -18 23 c-51 69 -65 83 -102 100
-49 22 -87 23 -140 4z"/>
<path d="M8936 6365 c-48 -17 -94 -59 -113 -105 -20 -47 -18 -138 6 -199 32
-85 127 -216 249 -342 l115 -120 70 68 c258 254 365 469 298 600 -40 79 -121
121 -208 108 -49 -7 -99 -45 -134 -102 l-22 -36 -18 24 c-52 70 -66 83 -103
100 -48 22 -87 23 -140 4z"/>
<path d="M924 5581 c-23 -10 -53 -34 -67 -52 -100 -133 -27 -320 230 -589
l118 -123 73 79 c233 250 312 380 312 508 -1 199 -264 268 -361 96 -13 -22
-26 -40 -30 -40 -3 0 -12 13 -18 29 -16 36 -68 87 -104 100 -43 16 -107 13
-153 -8z"/>
<path d="M2947 5589 c-49 -8 -84 -34 -124 -92 l-31 -47 -26 45 c-39 66 -87 95
-159 95 -139 0 -218 -100 -195 -245 17 -109 104 -242 282 -430 l94 -100 87 85
c122 119 209 231 258 329 38 77 42 91 42 161 0 67 -4 82 -27 118 -43 64 -120
95 -201 81z"/>
<path d="M3325 5581 c-51 -23 -91 -70 -106 -123 -35 -133 56 -303 288 -540
l94 -97 102 106 c273 283 349 479 235 608 -39 45 -103 69 -169 63 -60 -6 -94
-29 -134 -91 -16 -25 -33 -46 -36 -46 -4 -1 -12 12 -18 28 -16 36 -68 87 -104
100 -42 16 -107 13 -152 -8z"/>
<path d="M5725 5581 c-86 -39 -125 -122 -107 -224 23 -124 105 -249 280 -429
l104 -107 101 106 c273 283 349 479 235 608 -61 71 -182 85 -253 31 -19 -15
-45 -45 -57 -66 -13 -22 -26 -40 -29 -40 -4 0 -12 13 -18 29 -16 36 -68 87
-104 100 -42 16 -107 13 -152 -8z"/>
<path d="M6525 5582 c-122 -57 -146 -188 -65 -350 46 -91 110 -172 242 -310
l96 -101 95 97 c232 237 323 407 288 540 -29 106 -155 170 -258 131 -36 -13
-88 -64 -104 -100 -6 -16 -14 -29 -18 -28 -3 0 -19 21 -36 46 -43 66 -74 86
-142 90 -42 3 -69 -2 -98 -15z"/>
<path d="M7341 5590 c-109 -47 -154 -170 -107 -299 36 -99 158 -262 303 -404
l70 -68 105 113 c131 140 197 228 240 315 29 60 33 78 33 149 0 73 -3 84 -27
117 -44 56 -82 78 -146 84 -76 6 -135 -23 -178 -89 l-30 -47 -35 46 c-51 69
-80 86 -146 90 -32 1 -69 -2 -82 -7z"/>
<path d="M8111 5578 c-28 -14 -54 -38 -73 -67 -28 -43 -29 -51 -25 -126 3 -65
10 -92 36 -145 46 -90 121 -188 243 -315 l104 -108 107 114 c133 142 187 213
235 308 34 68 37 82 37 156 0 69 -4 87 -24 116 -80 117 -248 118 -321 2 -17
-26 -33 -48 -35 -48 -2 0 -18 21 -35 47 -55 84 -158 111 -249 66z"/>
<path d="M125 5571 c-52 -23 -102 -81 -111 -126 -26 -142 55 -296 279 -531
l100 -105 70 68 c112 110 222 249 269 336 41 78 43 86 43 168 0 75 -3 90 -25
122 -15 23 -45 48 -78 64 -95 46 -188 19 -246 -74 -16 -24 -29 -43 -30 -43 -2
0 -17 22 -35 49 -54 84 -148 112 -236 72z"/>
<path d="M1722 5569 c-86 -43 -124 -129 -103 -232 25 -122 109 -247 289 -431
l97 -98 97 103 c243 258 326 428 273 557 -62 147 -255 164 -340 30 -34 -53
-41 -57 -50 -27 -4 12 -23 39 -42 60 -55 61 -143 76 -221 38z"/>
<path d="M4120 5568 c-26 -14 -57 -41 -75 -66 -27 -39 -30 -51 -30 -117 1 -65
5 -82 42 -157 49 -97 110 -175 247 -318 l98 -103 102 108 c55 59 125 140 155
179 104 136 150 273 121 360 -51 156 -257 183 -345 44 -16 -26 -32 -47 -35
-47 -3 0 -18 21 -35 47 -35 55 -99 92 -160 92 -22 0 -61 -10 -85 -22z"/>
<path d="M4945 5576 c-141 -63 -157 -229 -39 -414 48 -75 145 -190 237 -280
l74 -73 102 108 c128 135 191 217 239 312 34 68 37 82 37 157 0 76 -2 85 -31
121 -89 112 -244 109 -316 -8 l-32 -51 -16 23 c-32 49 -76 92 -107 105 -41 18
-109 17 -148 0z"/>
<path d="M8946 5583 c-39 -10 -93 -54 -115 -94 -18 -31 -23 -55 -22 -107 0
-59 6 -78 45 -157 47 -96 151 -228 274 -348 l69 -68 102 108 c128 135 191 217
239 312 34 68 37 82 37 157 0 76 -2 85 -31 121 -89 112 -244 108 -318 -10
l-30 -49 -16 23 c-66 101 -139 136 -234 112z"/>
<path d="M970 4830 c-48 -9 -72 -23 -108 -64 -111 -127 -35 -322 237 -606
l101 -105 104 107 c189 192 275 331 283 456 4 57 1 74 -19 112 -35 64 -98 101
-171 101 -80 0 -140 -38 -179 -115 l-15 -28 -27 46 c-45 77 -121 112 -206 96z"/>
<path d="M3370 4830 c-48 -9 -72 -23 -108 -64 -46 -52 -58 -103 -44 -178 23
-121 102 -242 276 -423 l106 -110 104 107 c127 131 196 220 243 318 33 66 37
84 38 150 0 66 -3 80 -28 116 -37 55 -94 85 -160 85 -28 0 -63 -4 -77 -9 -31
-12 -77 -57 -96 -94 -8 -16 -18 -28 -22 -28 -4 0 -20 20 -35 45 -45 71 -114
101 -197 85z"/>
<path d="M2512 4804 c-99 -49 -132 -165 -84 -292 33 -87 128 -217 250 -344
l117 -121 103 109 c192 201 271 328 280 452 3 55 1 75 -16 108 -73 142 -254
153 -336 21 -30 -49 -31 -49 -46 -27 -85 122 -160 148 -268 94z"/>
<path d="M4951 4815 c-102 -32 -152 -124 -130 -242 21 -112 106 -241 283 -428
l95 -100 71 70 c119 115 228 253 273 344 38 77 42 91 42 161 0 67 -4 82 -28
118 -35 53 -95 85 -162 85 -75 0 -139 -42 -177 -116 l-14 -27 -34 52 c-55 82
-131 111 -219 83z"/>
<path d="M115 4803 c-74 -39 -105 -94 -105 -185 1 -76 27 -145 94 -245 50 -75
268 -316 290 -321 18 -4 236 235 296 325 63 94 90 168 90 244 0 122 -74 199
-192 199 -72 0 -116 -24 -157 -87 l-35 -52 -30 47 c-46 69 -86 92 -160 92 -36
-1 -73 -7 -91 -17z"/>
<path d="M1725 4806 c-43 -19 -92 -78 -106 -128 -23 -87 22 -216 122 -351 26
-34 95 -112 153 -172 l106 -110 105 108 c124 126 209 237 250 327 24 54 30 78
30 140 0 85 -21 128 -83 170 -35 25 -120 38 -166 26 -35 -9 -93 -61 -115 -103
l-17 -34 -36 54 c-22 32 -50 60 -71 70 -42 20 -130 22 -172 3z"/>
<path d="M4125 4806 c-63 -29 -115 -110 -115 -180 0 -55 37 -158 81 -227 51
-78 155 -202 244 -289 l67 -65 112 117 c264 274 336 466 223 595 -40 45 -82
63 -147 63 -75 0 -134 -39 -173 -114 l-15 -30 -28 46 c-45 73 -77 92 -153 95
-41 2 -77 -2 -96 -11z"/>
<path d="M8934 4811 c-82 -20 -154 -108 -154 -186 0 -129 92 -282 300 -498
l88 -92 42 40 c85 80 215 232 262 305 60 93 93 193 85 260 -12 102 -93 173
-197 173 -72 0 -120 -27 -156 -89 -14 -24 -29 -44 -32 -44 -4 0 -20 20 -35 45
-46 71 -125 105 -203 86z"/>
<path d="M5719 4787 c-29 -15 -54 -40 -73 -71 -25 -40 -29 -56 -28 -113 0 -58
7 -79 46 -158 47 -96 151 -227 274 -348 l69 -68 97 103 c123 129 210 244 250
328 27 56 31 76 31 147 0 76 -2 84 -31 120 -92 114 -243 110 -316 -8 l-32 -51
-16 23 c-75 115 -170 149 -271 96z"/>
<path d="M6555 4795 c-59 -16 -121 -77 -131 -131 -28 -148 46 -290 274 -530
l104 -109 112 115 c121 125 186 210 236 309 82 161 32 318 -110 350 -86 19
-151 -10 -206 -91 l-31 -46 -18 32 c-54 95 -130 128 -230 101z"/>
<path d="M7356 4789 c-89 -21 -146 -97 -146 -194 0 -123 85 -267 269 -457
l116 -120 98 99 c229 233 311 389 283 538 -11 56 -79 120 -141 133 -92 20
-156 -8 -211 -91 l-30 -46 -19 32 c-52 92 -127 127 -219 106z"/>
<path d="M8110 4778 c-24 -13 -58 -40 -74 -61 -29 -36 -31 -45 -31 -121 0 -75
3 -89 37 -157 48 -95 111 -177 240 -313 l103 -109 105 109 c122 127 193 218
241 312 29 57 34 79 37 147 3 74 1 83 -26 126 -50 77 -152 110 -235 75 -31
-13 -75 -56 -107 -105 l-16 -23 -32 51 c-53 87 -152 115 -242 69z"/>
<path d="M125 3986 c-17 -7 -45 -29 -62 -49 -115 -131 -41 -324 233 -606 l103
-106 66 65 c205 200 326 393 325 519 -1 80 -73 173 -145 187 -54 10 -129 0
-158 -22 -15 -10 -41 -41 -59 -68 l-31 -48 -15 28 c-19 39 -61 83 -94 100 -34
17 -123 18 -163 0z"/>
<path d="M915 3984 c-84 -43 -124 -129 -106 -228 21 -114 108 -246 279 -426
l100 -105 87 85 c122 119 209 231 258 329 38 77 42 91 42 161 0 68 -3 81 -29
118 -37 53 -95 82 -168 82 -67 0 -109 -25 -154 -92 l-31 -46 -34 50 c-19 28
-50 59 -69 69 -43 23 -133 25 -175 3z"/>
<path d="M1735 3984 c-84 -43 -124 -129 -106 -228 21 -116 112 -253 290 -437
l90 -94 86 85 c48 47 116 121 151 165 66 82 144 221 144 258 0 31 10 14 34
-55 29 -87 96 -183 224 -324 60 -65 116 -125 124 -132 14 -11 29 1 113 87 204
210 295 360 295 486 0 51 -44 131 -89 161 -97 63 -239 25 -281 -76 -7 -16 -15
-30 -19 -30 -3 0 -19 22 -36 48 -83 130 -272 118 -335 -22 -17 -37 -18 -37
-25 -15 -25 84 -103 139 -197 139 -67 0 -109 -25 -154 -92 l-32 -47 -35 53
c-21 32 -49 59 -70 69 -44 21 -133 22 -172 1z"/>
<path d="M4165 3993 c-55 -10 -67 -16 -100 -45 -143 -125 -75 -325 214 -628
l99 -105 72 70 c120 117 228 253 273 344 38 77 42 91 42 161 0 67 -4 82 -28
118 -35 53 -95 85 -162 85 -76 0 -139 -42 -177 -117 l-15 -28 -27 46 c-41 71
-121 112 -191 99z"/>
<path d="M4915 3984 c-53 -27 -85 -66 -102 -123 -20 -70 -7 -135 48 -241 41
-79 165 -234 268 -335 l61 -59 86 84 c122 120 209 232 257 329 38 77 42 91 42
161 0 64 -4 82 -24 112 -43 62 -84 83 -167 83 -85 0 -110 -14 -160 -88 l-32
-46 -35 53 c-21 32 -49 59 -70 69 -44 21 -133 22 -172 1z"/>
<path d="M7322 3979 c-25 -13 -55 -39 -70 -62 -24 -36 -27 -50 -27 -121 1 -92
16 -135 89 -245 46 -69 269 -314 291 -319 17 -4 236 237 295 325 63 94 90 168
90 244 0 122 -74 199 -192 199 -71 0 -115 -25 -157 -88 l-35 -51 -30 46 c-45
68 -75 86 -149 91 -49 2 -71 -2 -105 -19z"/>
<path d="M8115 3984 c-130 -68 -147 -213 -44 -387 47 -78 157 -213 253 -307
l66 -64 71 69 c240 235 352 441 309 569 -16 48 -66 105 -107 122 -42 18 -127
18 -161 0 -33 -17 -75 -61 -94 -100 l-15 -28 -31 49 c-41 64 -93 93 -163 93
-30 0 -67 -7 -84 -16z"/>
<path d="M8920 3984 c-80 -35 -114 -96 -108 -198 6 -126 85 -253 285 -465 l98
-103 106 114 c200 214 268 324 277 448 6 87 -20 148 -81 188 -35 23 -51 27
-113 27 -85 0 -111 -14 -160 -88 l-30 -46 -35 51 c-19 28 -50 60 -69 70 -42
22 -122 23 -170 2z"/>
<path d="M5708 3970 c-49 -26 -85 -75 -99 -136 -29 -127 66 -298 299 -535 l84
-87 102 105 c127 132 199 227 245 323 32 66 36 84 36 152 0 70 -2 79 -31 114
-55 68 -77 79 -159 79 -86 0 -111 -14 -162 -88 l-31 -47 -28 44 c-41 65 -95
96 -164 96 -35 -1 -69 -8 -92 -20z"/>
<path d="M6522 3969 c-64 -32 -96 -86 -100 -168 -8 -136 72 -270 307 -514 l75
-77 49 47 c81 79 212 234 255 302 55 85 82 159 82 228 0 116 -68 193 -179 201
-79 6 -132 -22 -174 -90 -27 -43 -33 -48 -42 -33 -33 56 -67 94 -98 108 -49
24 -123 22 -175 -4z"/>
<path d="M3305 3966 c-17 -7 -44 -29 -62 -49 -113 -129 -41 -321 223 -595
l112 -117 67 65 c207 203 326 391 325 519 -1 71 -58 156 -123 180 -40 15 -123
14 -155 -3 -30 -16 -69 -56 -97 -100 l-18 -29 -15 29 c-19 39 -61 82 -94 100
-34 17 -123 18 -163 0z"/>
<path d="M4925 3214 c-154 -80 -145 -260 24 -484 27 -36 94 -112 149 -170
l100 -105 72 70 c318 308 406 566 232 676 -38 24 -57 29 -107 29 -75 0 -115
-23 -162 -93 l-31 -47 -26 45 c-40 67 -87 95 -161 95 -35 0 -73 -7 -90 -16z"/>
<path d="M7360 3218 c-93 -26 -146 -108 -137 -214 9 -121 96 -261 281 -452
l103 -106 104 108 c177 185 256 305 279 424 16 86 -3 146 -64 200 -102 89
-251 50 -310 -81 -4 -8 -10 -6 -18 7 -36 54 -91 104 -126 114 -46 14 -64 14
-112 0z"/>
<path d="M962 3210 c-55 -13 -108 -55 -132 -105 -19 -39 -22 -58 -17 -110 9
-123 95 -259 284 -454 l103 -106 101 105 c272 284 348 479 237 606 -44 49 -81
66 -150 66 -72 0 -125 -31 -160 -92 -13 -22 -26 -40 -30 -40 -4 0 -14 12 -22
28 -25 47 -78 90 -126 101 -25 6 -47 10 -50 10 -3 -1 -20 -5 -38 -9z"/>
<path d="M3362 3210 c-55 -13 -108 -55 -132 -105 -19 -40 -22 -57 -17 -112 12
-124 97 -259 283 -451 l104 -107 101 105 c271 282 348 479 237 606 -43 49 -83
67 -150 67 -70 0 -125 -32 -159 -93 -12 -22 -26 -40 -30 -40 -4 0 -19 20 -33
44 -42 72 -123 106 -204 86z"/>
<path d="M4165 3211 c-54 -13 -95 -41 -123 -83 -23 -36 -27 -52 -27 -117 0
-67 4 -85 36 -151 20 -41 58 -104 85 -140 52 -69 251 -280 264 -280 5 0 61 57
125 127 188 206 257 325 257 449 1 65 -10 93 -51 137 -39 43 -78 59 -142 59
-75 0 -114 -22 -158 -89 l-35 -52 -19 32 c-53 88 -130 128 -212 108z"/>
<path d="M5725 3206 c-17 -7 -45 -29 -62 -49 -115 -131 -41 -324 233 -606
l103 -106 66 65 c318 311 404 551 240 676 -38 29 -117 43 -169 30 -34 -8 -83
-52 -113 -99 l-26 -41 -14 30 c-20 39 -62 82 -95 100 -34 17 -123 18 -163 0z"/>
<path d="M6522 3199 c-25 -13 -55 -39 -70 -62 -24 -36 -27 -51 -27 -121 0 -70
4 -90 31 -146 40 -85 114 -181 245 -319 l106 -113 104 112 c201 216 271 330
277 456 3 57 0 79 -17 111 -37 74 -104 109 -196 101 -64 -5 -105 -33 -141 -95
l-27 -45 -28 45 c-41 66 -81 91 -154 95 -47 2 -69 -2 -103 -19z"/>
<path d="M8905 3205 c-47 -24 -95 -84 -102 -128 l-6 -39 -26 53 c-14 29 -43
67 -64 84 -35 27 -46 30 -112 30 -86 0 -111 -14 -162 -89 l-32 -47 -17 28
c-50 80 -100 113 -171 113 -115 -1 -203 -88 -203 -201 0 -49 39 -155 81 -220
56 -86 105 -145 217 -260 l93 -97 96 99 c172 177 250 290 283 414 l17 59 7
-43 c15 -98 108 -237 274 -411 l100 -105 87 85 c251 246 350 450 285 585 -32
66 -85 99 -169 103 -56 3 -71 0 -101 -20 -19 -13 -49 -44 -66 -70 l-31 -46
-34 51 c-19 28 -50 59 -69 69 -43 22 -133 24 -175 3z"/>
<path d="M115 3193 c-72 -38 -107 -97 -106 -182 0 -115 72 -244 233 -421 53
-58 109 -117 125 -133 l29 -27 106 113 c198 212 267 323 276 447 6 87 -20 148
-81 188 -34 23 -51 27 -111 27 -84 0 -121 -21 -165 -91 l-27 -44 -34 52 c-19
28 -51 60 -70 70 -43 22 -133 23 -175 1z"/>
<path d="M1766 3198 c-54 -12 -92 -37 -124 -82 -24 -34 -27 -49 -27 -116 0
-70 4 -84 42 -161 45 -91 154 -229 272 -344 l72 -70 90 94 c131 135 207 234
253 330 34 73 40 94 40 150 0 73 -15 110 -61 153 -37 35 -77 50 -135 49 -69 0
-114 -25 -156 -88 l-36 -54 -14 28 c-18 34 -60 81 -87 96 -32 17 -87 24 -129
15z"/>
<path d="M2565 3194 c-101 -25 -157 -125 -136 -239 21 -118 101 -240 275 -420
l106 -110 104 107 c123 126 205 233 249 326 27 57 32 78 32 142 0 64 -4 80
-25 110 -45 64 -97 92 -171 92 -73 -1 -134 -42 -171 -116 l-15 -28 -32 50
c-18 28 -43 58 -57 67 -39 25 -104 33 -159 19z"/>
<path d="M4965 2411 c-54 -13 -95 -41 -123 -83 -23 -36 -27 -51 -27 -117 0
-63 6 -87 30 -141 41 -90 126 -200 250 -327 l105 -108 101 105 c129 135 190
215 241 317 36 72 41 91 41 150 1 72 -9 101 -52 146 -40 43 -78 59 -143 59
-74 0 -125 -30 -164 -98 l-27 -46 -15 28 c-44 87 -134 135 -217 115z"/>
<path d="M5761 2398 c-92 -16 -151 -93 -151 -197 0 -76 27 -150 90 -244 56
-84 279 -329 295 -325 6 2 61 56 122 120 123 130 214 257 244 342 59 169 -20
307 -176 307 -79 0 -121 -26 -171 -108 l-22 -37 -20 41 c-25 48 -73 91 -110
99 -50 10 -57 10 -101 2z"/>
<path d="M6555 2394 c-101 -25 -157 -125 -136 -239 21 -119 100 -239 275 -420
l106 -110 113 117 c120 123 201 231 245 325 37 82 38 192 2 243 -45 64 -97 92
-171 92 -73 -1 -134 -42 -171 -116 l-15 -28 -32 50 c-18 28 -43 58 -57 67 -39
25 -104 33 -159 19z"/>
<path d="M7322 2384 c-90 -45 -126 -137 -97 -248 32 -120 105 -227 281 -408
l98 -101 104 108 c127 134 192 218 238 311 41 82 54 169 34 228 -52 157 -263
182 -346 40 -14 -24 -29 -44 -34 -44 -4 0 -13 13 -20 29 -24 60 -104 111 -173
111 -18 0 -57 -12 -85 -26z"/>
<path d="M8920 2394 c-46 -20 -68 -41 -93 -89 -24 -47 -27 -129 -7 -190 33
-101 156 -269 307 -418 l69 -67 105 112 c131 140 188 214 236 309 35 68 38 81
38 156 0 76 -2 84 -31 119 -54 67 -77 79 -157 79 -85 0 -122 -20 -166 -92
l-28 -45 -28 45 c-56 88 -154 121 -245 81z"/>
<path d="M955 2391 c-104 -25 -163 -123 -144 -241 18 -116 98 -238 283 -430
l98 -103 70 69 c259 255 361 459 300 597 -37 85 -134 130 -225 106 -49 -13
-79 -38 -117 -96 l-27 -42 -22 39 c-28 50 -72 86 -119 100 -41 11 -54 11 -97
1z"/>
<path d="M3336 2385 c-47 -17 -94 -59 -112 -102 -22 -50 -17 -149 9 -214 36
-87 122 -203 246 -332 l114 -118 70 68 c295 291 387 516 263 651 -45 50 -127
71 -195 51 -40 -12 -85 -52 -122 -109 l-16 -24 -25 39 c-33 52 -58 74 -105 91
-48 17 -78 17 -127 -1z"/>
<path d="M4155 2391 c-45 -11 -69 -27 -103 -65 -112 -127 -35 -319 243 -611
l96 -100 103 106 c188 195 274 331 283 453 9 109 -44 189 -145 216 -83 22
-159 -10 -208 -87 -15 -24 -30 -43 -33 -42 -3 0 -19 21 -36 47 -16 25 -44 54
-60 64 -37 21 -99 30 -140 19z"/>
<path d="M8136 2385 c-47 -17 -94 -59 -112 -102 -20 -46 -17 -144 5 -203 32
-85 128 -216 249 -341 l115 -120 70 68 c258 254 365 469 298 600 -58 115 -202
147 -292 66 -22 -20 -47 -50 -56 -67 l-16 -30 -18 25 c-52 70 -66 83 -103 100
-48 22 -87 23 -140 4z"/>
<path d="M115 2376 c-44 -20 -75 -53 -97 -104 -57 -127 31 -307 269 -552 l102
-105 41 40 c85 81 215 232 262 305 52 80 88 179 88 239 -1 71 -58 156 -123
180 -42 16 -124 13 -164 -6 -21 -10 -49 -38 -71 -70 l-36 -54 -14 28 c-19 38
-61 82 -94 99 -34 18 -123 18 -163 0z"/>
<path d="M1739 2375 c-95 -30 -149 -131 -128 -240 21 -114 99 -232 276 -421
l103 -109 71 70 c284 278 383 506 277 640 -31 39 -95 68 -153 68 -76 0 -125
-32 -173 -112 l-20 -33 -17 33 c-49 96 -137 135 -236 104z"/>
<path d="M2566 2379 c-141 -33 -186 -190 -104 -354 50 -99 112 -179 238 -308
l109 -112 103 109 c196 207 269 326 276 448 5 84 -9 128 -57 171 -37 34 -121
62 -153 53 -7 -3 -25 -7 -40 -10 -37 -8 -85 -51 -109 -99 l-21 -40 -20 34
c-56 94 -129 129 -222 108z"/>
<path d="M4925 1573 c-79 -41 -109 -92 -108 -185 0 -123 89 -269 292 -479 l90
-94 86 85 c122 120 209 231 258 329 38 77 42 91 42 161 0 87 -20 127 -83 171
-52 36 -154 39 -202 7 -19 -13 -49 -45 -66 -70 l-32 -47 -35 53 c-21 32 -49
59 -70 69 -44 21 -132 21 -172 0z"/>
<path d="M8930 1574 c-138 -60 -158 -218 -49 -399 37 -62 186 -240 266 -318
l50 -48 117 122 c188 196 269 335 269 460 0 103 -73 187 -172 197 -84 8 -134
-21 -201 -118 -15 -22 -16 -22 -48 29 -50 82 -146 112 -232 75z"/>
<path d="M3370 1570 c-51 -9 -96 -39 -128 -84 -24 -34 -27 -49 -27 -115 0 -64
5 -86 32 -143 44 -93 126 -200 249 -326 l104 -107 100 104 c278 289 351 481
234 611 -41 45 -87 63 -157 61 -64 -1 -106 -28 -148 -92 l-32 -51 -15 28 c-17
35 -60 82 -87 97 -30 16 -86 24 -125 17z"/>
<path d="M5725 1565 c-39 -18 -56 -33 -85 -75 -21 -30 -25 -46 -25 -111 0 -69
4 -83 42 -160 48 -97 135 -209 257 -329 l86 -84 41 39 c92 88 229 252 272 324
101 169 97 296 -9 377 -34 26 -45 29 -113 29 -89 0 -113 -13 -162 -87 l-31
-48 -31 47 c-46 69 -87 93 -156 93 -31 -1 -69 -7 -86 -15z"/>
<path d="M7375 1571 c-54 -13 -95 -41 -123 -83 -23 -36 -27 -51 -27 -118 0
-70 4 -84 42 -161 45 -91 153 -227 273 -344 l72 -70 94 100 c173 183 259 312
283 424 17 82 3 139 -48 194 -39 43 -78 59 -142 59 -75 0 -114 -22 -159 -90
l-34 -52 -14 27 c-44 86 -135 134 -217 114z"/>
<path d="M120 1554 c-46 -20 -68 -41 -92 -87 -20 -40 -25 -110 -13 -169 21
-95 117 -234 277 -403 l104 -108 116 126 c131 142 195 228 235 313 23 49 28
73 28 140 0 69 -4 86 -24 116 -43 62 -85 83 -165 83 -84 0 -121 -21 -165 -91
l-27 -45 -33 51 c-20 31 -48 58 -71 70 -47 24 -120 26 -170 4z"/>
<path d="M898 1541 c-174 -110 -86 -367 231 -676 l72 -70 90 94 c230 239 324
413 289 540 -13 50 -63 109 -107 127 -47 20 -132 18 -173 -4 -19 -11 -50 -42
-69 -71 l-35 -52 -14 28 c-19 38 -61 82 -94 99 -15 8 -53 14 -86 14 -47 0 -67
-6 -104 -29z"/>
<path d="M4107 1549 c-20 -11 -49 -38 -65 -61 -23 -36 -27 -51 -27 -118 0 -70
4 -84 42 -161 49 -98 136 -210 258 -329 l87 -85 95 100 c224 237 309 396 281
528 -19 92 -92 147 -195 147 -72 0 -120 -29 -159 -95 l-26 -45 -31 47 c-47 70
-87 93 -161 93 -41 -1 -73 -7 -99 -21z"/>
<path d="M6535 1551 c-52 -23 -102 -81 -111 -127 -27 -144 52 -296 276 -528
l105 -108 102 106 c123 127 207 237 248 326 26 55 30 77 30 147 0 76 -2 84
-31 120 -91 114 -243 107 -321 -15 l-27 -44 -16 23 c-71 110 -159 144 -255
100z"/>
<path d="M8145 1558 c-52 -19 -82 -47 -109 -100 -29 -58 -32 -91 -12 -163 30
-113 109 -229 274 -400 l104 -107 35 33 c75 72 217 237 264 309 53 80 89 178
89 241 0 195 -246 271 -352 110 -18 -28 -36 -51 -39 -51 -4 0 -12 13 -19 29
-34 84 -145 131 -235 99z"/>
<path d="M1713 1539 c-22 -11 -54 -39 -70 -61 -25 -37 -28 -50 -28 -118 0 -70
4 -84 42 -161 48 -96 143 -217 263 -334 l81 -80 90 94 c131 135 207 234 253
330 34 73 40 94 40 151 0 77 -18 116 -77 163 -31 26 -49 32 -101 35 -85 6
-127 -15 -173 -84 l-35 -53 -32 47 c-45 67 -87 92 -155 92 -36 0 -71 -7 -98
-21z"/>
<path d="M2535 1547 c-63 -29 -115 -114 -115 -188 0 -116 127 -316 325 -509
l66 -65 103 106 c274 282 348 475 233 606 -39 45 -82 63 -147 63 -75 0 -134
-39 -173 -114 l-15 -30 -28 46 c-45 73 -77 92 -153 95 -40 2 -78 -2 -96 -10z"/>
<path d="M5730 794 c-70 -30 -111 -94 -112 -174 0 -70 10 -106 48 -180 47 -90
115 -177 236 -304 l103 -109 106 114 c200 214 268 325 277 449 6 86 -19 144
-80 186 -36 25 -50 29 -112 29 -84 0 -121 -20 -165 -92 l-27 -44 -31 50 c-52
83 -153 114 -243 75z"/>
<path d="M7350 798 c-136 -38 -180 -192 -101 -349 51 -99 116 -184 236 -308
l110 -113 100 101 c181 185 275 331 283 442 7 89 -4 124 -51 173 -96 99 -240
78 -308 -44 l-22 -39 -27 42 c-35 54 -60 76 -107 93 -44 15 -65 16 -113 2z"/>
<path d="M8124 791 c-82 -37 -124 -132 -103 -233 26 -119 105 -239 276 -418
l108 -112 114 123 c135 147 180 205 229 302 34 65 37 79 37 153 0 69 -4 86
-24 116 -43 62 -85 83 -165 83 -84 0 -121 -21 -165 -92 l-28 -45 -31 49 c-56
88 -154 117 -248 74z"/>
<path d="M4941 793 c-13 -2 -45 -26 -72 -53 -38 -38 -49 -56 -54 -94 -21 -140
50 -275 274 -514 l105 -112 69 67 c234 229 348 429 318 557 -22 94 -96 155
-188 156 -75 0 -122 -28 -170 -104 l-25 -39 -28 45 c-41 66 -82 92 -149 94
-31 1 -67 0 -80 -3z"/>
<path d="M6522 779 c-80 -40 -118 -129 -100 -231 21 -114 110 -247 293 -437
l90 -93 98 103 c124 130 211 245 251 329 27 56 31 76 31 147 0 91 -10 111 -79
167 -34 28 -45 31 -109 31 -85 0 -122 -20 -163 -91 -14 -24 -27 -44 -29 -44
-2 0 -17 22 -35 49 -55 86 -157 115 -248 70z"/>
<path d="M8920 778 c-82 -44 -120 -131 -101 -228 23 -116 108 -243 280 -422
l106 -110 106 113 c132 141 198 229 241 316 29 60 33 78 33 149 0 73 -3 84
-27 117 -50 65 -84 82 -163 82 -83 0 -120 -21 -164 -91 l-27 -43 -34 46 c-51
68 -81 86 -147 91 -47 3 -67 -1 -103 -20z"/>
<path d="M901 768 c-28 -14 -54 -37 -73 -67 -27 -42 -29 -52 -26 -122 5 -129
80 -252 280 -463 l104 -110 122 133 c192 209 262 329 262 448 0 119 -69 194
-184 201 -77 4 -119 -17 -163 -82 -18 -26 -35 -47 -38 -47 -3 0 -20 21 -38 47
-18 26 -48 56 -67 66 -48 25 -124 23 -179 -4z"/>
<path d="M1710 774 c-76 -33 -114 -97 -113 -191 0 -52 7 -77 40 -145 50 -104
105 -176 240 -318 l108 -112 123 133 c203 222 256 313 256 445 1 69 -2 85 -23
116 -43 62 -85 83 -165 83 -84 0 -121 -21 -165 -92 l-28 -45 -31 49 c-55 85
-152 116 -242 77z"/>
<path d="M2515 776 c-42 -18 -92 -73 -106 -114 -17 -52 -6 -151 25 -217 38
-83 102 -169 234 -312 l116 -126 104 108 c197 208 272 329 280 456 4 63 1 82
-17 117 -30 59 -88 95 -160 100 -77 6 -128 -20 -172 -87 l-32 -50 -36 51 c-20
28 -52 59 -71 70 -41 21 -121 23 -165 4z"/>
<path d="M3304 776 c-42 -19 -102 -92 -110 -134 -25 -134 57 -288 282 -526
l101 -107 105 110 c174 182 257 308 278 423 26 140 -59 247 -196 248 -62 0
-104 -25 -154 -92 l-34 -47 -27 43 c-41 65 -82 90 -154 93 -36 2 -72 -2 -91
-11z"/>
<path d="M143 773 c-35 -7 -110 -80 -124 -120 -6 -21 -9 -63 -6 -99 9 -118 82
-236 276 -444 l104 -112 69 69 c229 225 340 419 318 555 -17 96 -106 164 -205
156 -66 -6 -111 -35 -150 -95 l-27 -44 -35 51 c-50 75 -122 102 -220 83z"/>
<path d="M4121 773 c-13 -2 -45 -26 -72 -53 -38 -38 -49 -56 -54 -94 -22 -142
48 -272 273 -514 l105 -113 70 68 c147 145 267 305 303 404 40 110 11 224 -68
276 -35 24 -52 28 -109 28 -78 0 -103 -14 -159 -88 l-34 -46 -27 43 c-40 63
-79 87 -147 91 -31 2 -68 1 -81 -2z"/>
</g>
</svg>
