<?xml version="1.0" standalone="no"?>
<!DOCTYPE svg PUBLIC "-//W3C//DTD SVG 20010904//EN"
 "http://www.w3.org/TR/2001/REC-SVG-20010904/DTD/svg10.dtd">
<svg version="1.0" xmlns="http://www.w3.org/2000/svg"
 width="1280.000000pt" height="916.000000pt" viewBox="0 0 1280.000000 916.000000"
 preserveAspectRatio="xMidYMid meet">
<metadata>
Created by potrace 1.15, written by Peter Selinger 2001-2017
</metadata>
<g transform="translate(0.000000,916.000000) scale(0.100000,-0.100000)"
fill="#000000" stroke="none">
<path d="M351 9144 c-169 -45 -304 -185 -340 -352 -8 -39 -11 -1022 -11 -3645
0 -3925 -4 -3640 56 -3759 58 -115 190 -215 313 -238 35 -7 922 -10 2537 -10
l2484 0 0 -72 c0 -140 -49 -347 -113 -473 -124 -249 -309 -388 -589 -445 -91
-19 -139 -20 -841 -20 -842 0 -777 7 -777 -81 l0 -49 3305 0 3305 0 0 54 c0
33 -5 58 -12 63 -7 4 -391 10 -853 13 l-840 5 -80 27 c-168 57 -311 173 -392
318 -84 150 -143 388 -143 579 l0 81 2498 0 c2130 0 2507 2 2565 15 177 37
317 169 362 340 13 53 15 457 15 3655 0 3197 -2 3602 -15 3655 -45 171 -170
295 -342 340 -50 13 -768 15 -6048 14 -5198 0 -5997 -2 -6044 -15z"/>
</g>
</svg>
