<?xml version="1.0" standalone="no"?>
<!DOCTYPE svg PUBLIC "-//W3C//DTD SVG 20010904//EN"
 "http://www.w3.org/TR/2001/REC-SVG-20010904/DTD/svg10.dtd">
<svg version="1.0" xmlns="http://www.w3.org/2000/svg"
 width="1280.000000pt" height="1274.000000pt" viewBox="0 0 1280.000000 1274.000000"
 preserveAspectRatio="xMidYMid meet">
<metadata>
Created by potrace 1.15, written by Peter Selinger 2001-2017
</metadata>
<g transform="translate(0.000000,1274.000000) scale(0.100000,-0.100000)"
fill="#000000" stroke="none">
<path d="M4364 11391 c-18 -11 -43 -34 -56 -53 -51 -70 -181 -381 -198 -477
-6 -30 -19 -86 -31 -125 -11 -39 -23 -79 -25 -88 -4 -15 -17 -18 -67 -19 -129
-1 -348 -56 -577 -146 -63 -25 -181 -71 -263 -103 -192 -75 -240 -112 -266
-205 -13 -47 2 -150 29 -205 39 -80 149 -270 164 -285 9 -9 35 -48 57 -86 24
-39 68 -94 102 -125 36 -32 57 -58 51 -63 -5 -4 -72 -27 -149 -49 -195 -58
-225 -93 -170 -201 47 -94 288 -356 420 -458 44 -34 95 -77 113 -96 l34 -35
-25 -48 c-60 -121 -92 -315 -109 -668 -14 -289 -14 -291 -6 -347 l7 -46 -47
-34 c-84 -60 -140 -125 -183 -215 -53 -110 -68 -194 -64 -360 4 -158 35 -287
109 -463 l27 -63 -59 -62 c-171 -179 -271 -386 -274 -566 -6 -334 9 -403 109
-527 60 -75 92 -104 178 -160 121 -80 263 -137 434 -174 l109 -24 57 -200 c31
-110 72 -258 90 -330 18 -71 46 -170 60 -220 15 -49 40 -139 57 -200 35 -129
41 -152 96 -345 23 -80 62 -217 86 -305 46 -167 100 -360 141 -505 13 -47 33
-119 44 -160 11 -41 48 -172 82 -290 34 -118 67 -242 75 -275 22 -105 26 -110
98 -139 37 -14 72 -26 80 -26 11 0 7 24 -16 107 -30 111 -68 255 -118 448 -16
61 -47 178 -70 260 -22 83 -62 233 -89 335 -27 102 -68 255 -91 340 -23 85
-55 202 -70 260 -15 58 -47 175 -70 260 -23 85 -50 191 -61 235 -10 44 -27
109 -38 145 -16 54 -93 340 -145 541 -13 49 -13 49 11 55 14 4 29 2 35 -4 6
-6 28 -75 48 -154 20 -79 70 -269 109 -423 75 -289 153 -591 285 -1110 43
-165 107 -415 142 -555 36 -140 92 -358 124 -485 32 -126 63 -242 69 -257 8
-21 24 -31 80 -49 39 -13 73 -20 76 -17 3 3 -11 67 -31 144 -20 76 -40 155
-44 174 -20 87 -102 422 -119 485 -11 39 -23 88 -26 110 -4 22 -36 153 -70
290 -34 138 -79 320 -99 405 -20 85 -52 216 -71 290 -52 199 -154 610 -180
725 -53 234 -76 333 -90 385 -8 30 -13 55 -12 56 1 0 16 4 33 7 31 6 31 5 44
-51 35 -161 227 -977 265 -1127 13 -49 33 -137 45 -195 24 -112 90 -395 170
-730 27 -113 61 -259 75 -325 25 -114 120 -513 147 -619 l13 -49 68 -20 c37
-11 70 -17 73 -14 8 8 -9 92 -116 552 -33 143 -66 294 -75 335 -8 41 -28 136
-45 210 -17 74 -39 178 -50 230 -11 52 -31 142 -44 200 -13 58 -49 220 -80
360 -31 140 -72 327 -92 415 -20 88 -58 257 -84 375 -27 118 -63 277 -80 353
-18 77 -28 143 -24 147 5 5 21 11 35 15 26 6 26 6 43 -87 9 -51 46 -223 81
-383 79 -357 101 -462 125 -590 10 -55 30 -152 45 -215 14 -63 39 -180 55
-260 26 -130 61 -292 121 -565 11 -49 26 -124 34 -165 14 -77 96 -460 175
-817 11 -50 20 -98 20 -107 0 -8 5 -18 12 -22 12 -8 141 -44 144 -41 2 2 -28
151 -57 283 -11 50 -26 129 -33 175 -12 76 -70 362 -110 544 -18 83 -102 508
-122 615 -7 41 -41 212 -75 380 -34 168 -72 357 -84 420 -35 178 -82 417 -126
626 -21 105 -42 212 -45 237 -5 31 -12 47 -23 49 -13 3 -11 6 7 16 19 11 27
10 52 -4 25 -15 30 -27 40 -83 24 -145 38 -221 59 -326 42 -217 101 -532 116
-620 20 -116 118 -625 150 -775 13 -63 27 -137 30 -165 7 -53 35 -202 90 -480
19 -93 43 -222 54 -285 11 -63 30 -162 41 -220 54 -273 70 -357 72 -375 3 -15
18 -24 63 -37 93 -26 94 -25 84 23 -5 23 -18 91 -29 153 -20 122 -62 356 -85
481 -8 44 -28 161 -45 260 -17 99 -46 263 -65 365 -20 102 -45 241 -56 310
-11 69 -31 181 -44 250 -13 69 -36 197 -50 285 -15 88 -33 187 -40 220 -8 33
-19 98 -25 145 -6 47 -22 141 -35 210 -49 255 -96 532 -92 536 3 3 17 2 32 -2
35 -9 41 -29 65 -193 11 -75 31 -199 45 -276 14 -77 41 -237 60 -355 20 -118
42 -246 50 -285 7 -38 19 -115 25 -170 6 -55 18 -129 26 -165 8 -36 23 -119
34 -185 27 -175 108 -657 125 -750 8 -44 19 -107 24 -140 6 -47 67 -414 116
-712 4 -23 12 -34 28 -38 77 -17 120 -25 123 -22 2 1 -3 45 -11 97 -24 155
-52 334 -79 510 -14 91 -39 253 -57 360 -17 107 -35 231 -40 275 -5 44 -18
132 -29 195 -11 63 -29 174 -40 245 -10 72 -35 229 -55 350 -44 276 -84 529
-96 620 -5 39 -18 124 -29 190 -28 173 -60 375 -60 381 0 3 17 4 38 2 l37 -3
7 -80 c5 -44 17 -136 28 -205 10 -69 33 -226 50 -350 17 -124 38 -265 46 -315
9 -49 26 -166 39 -260 24 -177 106 -747 150 -1040 29 -190 45 -308 75 -535 11
-85 31 -220 43 -299 25 -162 16 -150 121 -164 l49 -7 -6 48 c-3 26 -13 99 -22
162 -34 247 -56 416 -90 685 -20 154 -38 287 -40 295 -3 8 -16 110 -30 225
-14 116 -34 262 -45 325 -10 63 -24 167 -30 230 -6 63 -15 140 -20 170 -5 30
-17 116 -25 190 -9 74 -34 263 -55 420 -60 434 -67 489 -62 495 3 3 18 5 33 5
24 0 29 -5 33 -33 8 -51 44 -338 77 -617 66 -564 107 -900 139 -1140 11 -85
24 -204 30 -265 5 -60 17 -155 25 -210 8 -55 21 -161 30 -235 16 -154 48 -414
70 -575 8 -60 15 -124 15 -142 0 -17 3 -34 8 -36 4 -3 38 -8 76 -12 l68 -8 -7
74 c-3 41 -13 128 -21 194 -8 66 -26 224 -39 350 -14 127 -30 268 -35 315 -22
184 -110 992 -120 1105 -6 66 -20 185 -31 265 -11 80 -24 199 -30 265 -5 66
-23 226 -39 355 -16 129 -32 267 -36 306 l-6 71 33 6 c19 2 35 4 36 3 0 0 11
-100 22 -221 12 -121 30 -310 41 -420 11 -110 24 -249 29 -310 6 -60 19 -198
30 -305 33 -314 80 -775 106 -1050 14 -140 34 -336 44 -435 11 -99 27 -265 37
-370 9 -104 20 -193 24 -198 3 -4 36 -10 73 -14 l67 -6 -6 84 c-3 46 -12 152
-19 234 -8 83 -24 263 -35 400 -11 138 -29 342 -40 455 -11 113 -25 266 -30
340 -6 74 -29 333 -51 575 -22 242 -44 494 -49 560 -24 303 -32 388 -46 499
-7 66 -12 121 -10 123 2 2 19 -3 38 -12 l34 -17 43 -566 c23 -312 46 -614 51
-672 12 -134 30 -373 80 -1040 22 -294 47 -629 56 -745 9 -115 19 -213 22
-216 4 -4 40 -9 81 -12 l73 -6 -5 57 c-4 31 -11 143 -17 247 -6 105 -18 278
-26 385 -15 194 -35 521 -54 865 -6 99 -15 239 -20 310 -6 72 -17 240 -25 375
-8 135 -21 340 -29 455 -9 116 -18 279 -22 363 l-7 152 32 0 c24 0 31 -4 31
-19 0 -11 4 -86 10 -168 5 -81 14 -249 20 -373 6 -124 20 -385 31 -580 11
-195 26 -481 34 -635 8 -154 22 -408 30 -565 8 -157 19 -391 25 -520 6 -129
13 -259 16 -288 5 -49 7 -52 34 -52 16 0 32 -4 35 -10 3 -5 24 -10 46 -10 l39
0 0 73 c0 40 -4 176 -10 302 -5 127 -14 352 -20 500 -13 375 -47 1249 -60
1550 -12 295 -30 749 -30 786 0 21 6 28 26 33 15 4 28 5 30 3 2 -2 8 -167 14
-368 10 -364 17 -578 46 -1489 21 -667 33 -1113 33 -1252 l1 -118 29 0 c17 0
33 -4 36 -10 3 -5 27 -10 52 -10 l46 0 -7 362 c-4 200 -11 566 -16 813 -10
461 -30 1740 -30 1944 l0 113 27 -7 c16 -4 29 -7 29 -8 3 -4 14 -1206 20
-2189 l6 -1008 29 0 c15 0 31 -4 34 -10 7 -12 82 -14 88 -2 3 4 7 392 11 862
3 470 9 1191 12 1603 l7 747 35 0 35 0 -7 -257 c-4 -142 -11 -406 -16 -588 -5
-181 -10 -460 -10 -618 0 -159 -4 -420 -9 -580 -6 -161 -13 -487 -16 -725 l-6
-432 21 0 c12 0 30 -5 41 -11 12 -6 37 -8 60 -4 l39 7 0 141 c0 78 5 266 10
417 5 151 14 428 20 615 6 187 17 538 25 780 8 242 20 629 26 860 12 449 11
445 62 445 18 0 19 -6 13 -97 -3 -54 -13 -276 -21 -493 -14 -372 -21 -553 -45
-1070 -6 -118 -15 -336 -20 -485 -5 -148 -14 -373 -20 -500 -6 -126 -14 -314
-18 -418 l-7 -187 78 0 c67 0 77 2 77 18 0 9 5 91 10 182 28 472 40 686 50
895 6 127 15 282 20 346 6 64 15 226 20 360 6 134 17 350 25 479 8 129 24 415
35 635 12 220 23 409 25 420 3 11 18 28 35 37 36 20 34 33 20 -157 -5 -71 -14
-213 -20 -315 -5 -102 -15 -246 -20 -320 -22 -306 -52 -744 -70 -1040 -11
-173 -24 -382 -30 -465 -37 -553 -65 -1000 -65 -1045 0 -23 3 -25 40 -22 22 1
56 5 75 8 l36 5 22 259 c13 143 30 353 37 467 8 114 22 287 30 383 9 96 20
245 25 330 6 85 19 252 29 370 11 118 24 292 31 385 12 195 30 404 65 796 14
151 25 297 25 323 l0 48 33 -7 c17 -4 33 -8 33 -9 2 -1 -12 -157 -31 -351 -8
-82 -20 -217 -25 -300 -6 -82 -15 -188 -21 -235 -11 -88 -31 -313 -74 -815
-27 -308 -34 -388 -65 -720 -45 -478 -82 -916 -78 -920 2 -2 37 2 78 9 l74 11
17 140 c10 77 27 241 38 365 12 124 28 281 36 350 8 69 19 186 25 260 6 74 20
203 30 285 10 83 28 247 40 365 11 118 34 343 50 500 16 157 34 339 40 405 6
66 19 199 30 295 10 96 22 213 26 260 7 94 15 110 52 110 23 0 24 -2 19 -43
-3 -23 -11 -100 -17 -172 -6 -71 -20 -200 -31 -285 -33 -259 -68 -566 -84
-735 -9 -88 -20 -188 -25 -221 -6 -34 -17 -129 -25 -210 -8 -82 -22 -207 -30
-279 -26 -231 -55 -489 -60 -540 -3 -27 -12 -104 -21 -170 -13 -109 -53 -457
-69 -612 -4 -35 -3 -63 2 -63 26 0 139 22 145 28 7 7 80 557 118 887 10 88 25
208 34 265 14 95 36 267 66 515 6 50 26 214 46 365 19 151 41 336 49 410 8 74
21 180 30 235 8 55 24 174 35 265 10 91 26 208 34 260 9 52 16 111 16 131 0
28 6 41 26 54 17 11 30 13 36 7 11 -11 -2 -142 -32 -327 -11 -66 -27 -174 -35
-240 -9 -66 -20 -142 -25 -170 -6 -27 -17 -111 -25 -185 -7 -74 -25 -207 -39
-295 -13 -88 -34 -234 -46 -325 -11 -91 -28 -212 -36 -270 -8 -58 -21 -157
-29 -220 -8 -63 -22 -162 -30 -220 -8 -58 -26 -193 -40 -300 -14 -107 -33
-242 -41 -300 -44 -317 -73 -535 -70 -538 6 -6 151 29 156 38 3 5 14 67 24
137 10 70 33 223 51 338 19 116 37 235 40 265 4 30 20 140 36 244 16 103 38
252 50 330 32 220 65 443 99 661 17 110 39 263 50 340 11 77 26 176 34 220 9
44 22 136 31 205 22 179 80 538 88 546 3 3 18 3 33 0 22 -6 25 -11 20 -32 -4
-14 -13 -78 -22 -142 -8 -64 -23 -162 -34 -217 -11 -55 -26 -145 -34 -200 -8
-55 -32 -206 -54 -335 -22 -129 -45 -271 -51 -315 -6 -44 -24 -159 -41 -255
-44 -262 -108 -660 -125 -785 -9 -60 -17 -117 -20 -125 -5 -16 -38 -228 -60
-380 -8 -52 -20 -133 -28 -180 -30 -171 -50 -311 -45 -315 3 -3 38 2 78 12 53
13 75 23 81 38 5 11 18 76 29 145 22 142 103 618 150 880 18 96 38 216 46 265
7 50 25 151 39 225 48 256 64 345 70 400 4 30 16 97 26 149 10 51 42 224 69
385 27 160 59 343 70 406 10 63 29 168 41 233 l21 117 29 0 c17 0 29 -5 29
-13 0 -7 -16 -95 -36 -197 -20 -102 -51 -273 -69 -380 -19 -107 -43 -240 -54
-295 -11 -55 -34 -176 -51 -270 -59 -327 -104 -569 -171 -920 -23 -121 -48
-258 -55 -305 -7 -47 -20 -116 -28 -155 -8 -38 -24 -122 -35 -185 -11 -63 -34
-189 -51 -280 -45 -243 -42 -223 -23 -216 9 4 45 14 80 23 47 11 67 22 73 37
5 12 21 84 35 161 14 77 37 192 50 255 13 63 33 165 44 225 11 61 32 164 46
230 14 66 34 167 45 225 10 58 35 182 54 275 19 94 40 199 46 235 6 36 17 92
25 125 8 33 30 146 50 250 20 105 45 231 55 280 23 107 82 404 141 709 l42
218 31 13 c17 7 32 12 34 11 2 -3 -45 -236 -53 -257 -2 -8 -15 -72 -29 -144
-13 -71 -44 -224 -69 -340 -25 -115 -58 -268 -72 -340 -15 -71 -51 -249 -81
-395 -30 -146 -63 -310 -74 -365 -11 -55 -24 -117 -30 -138 -6 -20 -17 -74
-25 -120 -7 -45 -30 -152 -50 -237 -20 -85 -40 -182 -45 -215 -5 -33 -24 -127
-43 -210 -19 -82 -38 -170 -42 -195 -4 -25 -18 -92 -31 -150 -12 -57 -21 -106
-19 -108 2 -2 41 7 86 20 l82 24 83 375 c46 206 100 448 121 539 20 91 42 190
49 220 6 30 26 118 42 195 33 154 99 451 137 615 25 111 70 313 110 495 13 61
44 201 70 312 25 111 54 246 65 300 39 201 67 302 98 350 16 26 39 66 51 88
12 22 19 31 17 20 -3 -11 -12 -51 -20 -90 -36 -169 -58 -267 -81 -360 -13 -55
-54 -226 -90 -380 -36 -154 -87 -374 -115 -490 -28 -115 -54 -233 -59 -260 -6
-28 -25 -114 -44 -190 -20 -77 -40 -167 -47 -200 -11 -57 -27 -128 -70 -310
-10 -44 -31 -134 -46 -200 -14 -66 -32 -142 -39 -170 -14 -49 -45 -183 -70
-300 -7 -33 -38 -168 -69 -299 -31 -132 -55 -241 -53 -243 2 -1 41 10 86 25
l83 28 43 169 c33 134 97 396 141 580 2 11 18 72 34 135 16 63 52 210 80 325
100 411 131 541 155 630 13 50 39 155 59 235 19 80 69 282 110 450 41 168 93
382 115 475 23 94 48 193 56 220 8 28 21 84 30 125 9 41 20 91 25 111 l10 36
82 7 c92 8 234 51 306 93 73 43 163 139 205 220 58 110 78 204 76 353 -2 148
-15 224 -71 385 -141 413 -464 813 -877 1087 -121 80 -148 95 -297 163 -103
46 -115 55 -165 115 -55 67 -227 243 -289 295 -60 52 -246 188 -307 226 -208
131 -458 225 -658 249 -78 9 -105 17 -127 35 -15 13 -44 29 -65 35 -88 28
-243 94 -243 103 0 6 49 58 109 117 68 66 125 133 151 176 23 38 50 78 60 89
35 38 172 297 186 351 44 172 -25 263 -261 345 -44 15 -140 52 -213 82 -72 31
-174 67 -225 82 -50 14 -110 33 -132 41 -57 22 -189 44 -265 44 l-66 0 -27 98
c-15 53 -32 124 -38 157 -6 33 -19 75 -29 95 -10 19 -27 62 -38 95 -32 97
-110 247 -149 287 -41 42 -84 55 -127 38 -16 -6 -81 -57 -144 -113 -236 -208
-354 -341 -419 -472 -20 -38 -49 -89 -64 -112 -57 -82 -97 -207 -120 -376 -19
-140 -34 -127 -35 31 -1 229 -45 346 -164 435 -36 27 -75 56 -87 65 -18 14
-26 40 -44 142 -27 158 -60 260 -105 329 -20 29 -52 85 -73 125 -65 125 -170
247 -364 424 -195 177 -227 194 -293 153z m879 -2193 c-8 -47 -16 -51 -42 -24
l-23 24 29 16 c40 22 43 20 36 -16z m146 -522 l22 -24 -33 -25 c-18 -14 -34
-25 -35 -23 -6 6 10 96 17 96 3 0 17 -11 29 -24z"/>
<path d="M3155 4364 c-47 -24 -61 -41 -123 -143 -95 -156 -151 -268 -182 -360
-15 -47 -40 -112 -55 -144 l-27 -59 -72 7 c-79 7 -185 -4 -356 -35 -114 -21
-311 -70 -365 -90 -15 -6 -67 -19 -116 -30 -170 -38 -238 -79 -284 -169 -31
-61 -15 -163 49 -317 83 -199 170 -361 227 -423 27 -29 70 -86 96 -125 63 -95
124 -153 284 -267 162 -116 178 -125 293 -157 80 -22 112 -25 256 -25 184 -1
256 12 367 65 57 27 66 29 115 19 148 -28 334 -20 463 20 70 22 173 86 227
143 60 61 115 184 134 299 14 83 14 116 5 205 -15 141 -37 186 -138 285 l-80
78 -7 132 c-8 152 -31 263 -70 333 -15 27 -37 76 -48 109 -37 109 -107 220
-235 373 -240 287 -279 317 -358 276z"/>
<path d="M10479 2876 c-48 -6 -106 -8 -130 -4 -120 21 -383 -103 -531 -249
l-76 -76 -71 -1 c-47 -1 -71 -5 -71 -13 0 -6 -17 -17 -37 -23 -66 -21 -187
-89 -249 -138 -32 -26 -74 -58 -92 -71 -33 -23 -73 -90 -87 -146 -4 -16 -13
-73 -20 -125 -10 -79 -10 -111 2 -190 17 -116 26 -145 70 -223 42 -76 70 -106
149 -163 134 -96 368 -140 581 -110 59 8 67 7 125 -22 120 -59 203 -75 393
-76 233 -1 304 16 435 104 30 20 93 62 140 93 111 73 191 145 228 206 17 27
67 87 111 135 45 47 81 91 81 98 0 7 23 49 50 93 27 44 80 141 116 215 58 118
67 144 71 207 12 149 -52 225 -234 281 -59 18 -139 44 -178 57 -140 47 -232
73 -330 94 -55 12 -120 26 -145 31 -25 5 -70 12 -100 15 -30 3 -68 8 -85 9
-16 2 -69 -1 -116 -8z"/>
</g>
</svg>
