<?xml version="1.0" standalone="no"?>
<!DOCTYPE svg PUBLIC "-//W3C//DTD SVG 20010904//EN"
 "http://www.w3.org/TR/2001/REC-SVG-20010904/DTD/svg10.dtd">
<svg version="1.0" xmlns="http://www.w3.org/2000/svg"
 width="1126.000000pt" height="1280.000000pt" viewBox="0 0 1126.000000 1280.000000"
 preserveAspectRatio="xMidYMid meet">
<metadata>
Created by potrace 1.15, written by Peter Selinger 2001-2017
</metadata>
<g transform="translate(0.000000,1280.000000) scale(0.100000,-0.100000)"
fill="#000000" stroke="none">
<path d="M7060 12789 c-511 -39 -791 -82 -1009 -156 -84 -28 -298 -127 -370
-171 l-46 -28 -135 7 c-163 8 -464 -5 -620 -26 -281 -40 -490 -100 -680 -196
-118 -60 -155 -89 -257 -205 -52 -60 -104 -119 -116 -131 l-20 -22 61 -80 61
-79 -77 -6 c-440 -38 -858 -157 -1346 -382 -372 -172 -689 -370 -931 -583
-279 -244 -499 -585 -530 -817 l-7 -52 84 -59 c709 -510 1663 -984 2321 -1152
63 -16 135 -32 159 -36 25 -4 50 -10 56 -14 6 -3 22 -74 36 -156 14 -83 32
-177 40 -210 8 -33 14 -60 13 -61 -1 -1 -54 -35 -118 -77 -551 -360 -1167
-949 -1584 -1512 -514 -695 -797 -1387 -882 -2158 -32 -297 -18 -786 31 -1067
l13 -75 -37 -41 c-21 -22 -58 -72 -84 -110 -25 -38 -56 -81 -69 -96 l-22 -27
4 84 c4 115 -15 170 -79 228 -104 93 -310 113 -435 42 -84 -48 -190 -177 -222
-270 -32 -93 -17 -273 32 -389 8 -18 5 -19 -46 -12 -110 14 -229 96 -229 159
0 10 -4 15 -10 12 -15 -9 -12 -125 6 -184 27 -92 113 -164 251 -210 73 -25
178 -27 238 -6 36 13 46 12 103 -5 206 -64 589 -41 784 47 32 14 60 24 61 22
2 -2 27 -47 56 -99 29 -52 82 -138 117 -191 35 -53 64 -102 64 -111 0 -49
-114 -368 -175 -489 -29 -56 -31 -106 -10 -198 23 -97 61 -156 165 -262 197
-201 508 -362 1025 -534 347 -116 778 -234 1127 -310 200 -43 472 -85 478 -75
4 6 71 -34 151 -88 162 -110 194 -122 337 -122 263 0 455 136 600 425 41 81
94 207 89 211 -1 1 -76 7 -167 13 -91 7 -182 14 -203 17 l-38 6 98 48 c110 54
188 110 198 141 9 27 -20 59 -55 59 -15 0 -81 -11 -146 -24 -202 -41 -345 -60
-363 -49 -9 6 -31 14 -49 17 -52 12 -46 23 16 30 153 17 397 80 585 151 55 20
101 34 104 31 15 -15 65 -311 78 -461 6 -69 15 -96 65 -201 120 -248 255 -369
488 -437 66 -18 102 -22 242 -22 91 0 197 6 235 13 145 26 265 56 265 65 0 5
-55 106 -122 225 -68 119 -125 220 -127 226 -2 6 25 -15 60 -45 167 -145 316
-237 401 -246 52 -6 103 15 113 47 25 78 -86 246 -327 496 l-143 149 -82 175
c-73 159 -183 426 -229 557 l-18 51 69 66 c52 48 75 64 90 61 154 -40 478
-120 575 -142 l125 -29 8 -121 7 -121 63 -113 c102 -186 198 -269 383 -331 95
-32 313 -32 449 -1 134 31 205 53 205 64 0 5 -49 88 -110 184 -60 96 -105 175
-101 175 5 0 14 -6 21 -14 6 -8 51 -41 98 -74 188 -128 295 -159 352 -102 25
25 25 50 0 102 -11 23 -20 43 -20 45 0 1 30 18 68 37 75 39 156 116 221 213
35 52 123 227 145 286 6 18 -1 19 -136 12 l-143 -7 92 61 c98 65 136 107 131
144 -5 36 -44 32 -191 -17 -74 -25 -146 -46 -160 -46 -27 0 -589 135 -623 149
-31 13 -354 551 -354 589 0 5 -37 86 -83 179 -93 190 -158 340 -229 526 -47
126 -48 131 -48 240 0 82 -8 154 -30 272 -122 645 -178 1129 -160 1385 7 99
31 179 111 383 86 219 153 331 271 456 61 64 82 78 220 147 224 112 376 168
863 319 337 104 830 267 1046 346 75 27 150 49 168 49 48 0 339 125 386 167
22 19 32 32 22 29 -63 -21 -65 -14 -4 23 37 22 81 49 97 61 20 14 37 19 54 14
21 -5 38 7 117 83 341 328 633 764 748 1118 69 209 85 312 85 535 l1 195 -74
220 c-41 121 -74 221 -75 222 -1 1 -22 -5 -46 -13 -30 -10 -60 -13 -95 -9 -80
11 -248 70 -383 137 -103 50 -136 72 -192 127 -119 118 -180 221 -355 601
-266 577 -396 815 -555 1014 -463 582 -1184 902 -2145 955 -112 6 -174 14
-205 26 -67 27 -70 35 -13 35 121 0 230 79 208 151 -6 17 -16 19 -83 18 -42
-1 -124 -5 -182 -10z m-6309 -9690 c74 -37 88 -99 44 -184 -28 -51 -29 -50 30
-31 11 4 -2 -5 -30 -19 -121 -60 -245 -1 -245 116 0 61 21 103 63 130 37 23
78 19 138 -12z m4034 -2209 c4 -6 -17 -9 -57 -9 -58 2 -60 2 -23 9 61 11 73
11 80 0z"/>
</g>
</svg>
