<?xml version="1.0" standalone="no"?>
<!DOCTYPE svg PUBLIC "-//W3C//DTD SVG 20010904//EN"
 "http://www.w3.org/TR/2001/REC-SVG-20010904/DTD/svg10.dtd">
<svg version="1.0" xmlns="http://www.w3.org/2000/svg"
 width="1280.000000pt" height="1268.000000pt" viewBox="0 0 1280.000000 1268.000000"
 preserveAspectRatio="xMidYMid meet">
<metadata>
Created by potrace 1.15, written by Peter Selinger 2001-2017
</metadata>
<g transform="translate(0.000000,1268.000000) scale(0.100000,-0.100000)"
fill="#000000" stroke="none">
<path d="M6710 12673 c-25 -2 -90 -10 -145 -19 -533 -81 -1001 -335 -1367
-742 l-65 -73 -84 45 c-869 470 -1958 306 -2664 -399 -315 -316 -513 -683
-619 -1147 -5 -23 -15 -30 -64 -43 -136 -38 -306 -101 -427 -160 -670 -328
-1136 -962 -1251 -1705 -22 -142 -25 -491 -6 -625 145 -1004 882 -1768 1877
-1946 113 -21 162 -24 380 -23 266 0 345 8 545 59 229 58 493 173 681 296 l93
61 51 -12 c284 -67 433 -84 678 -77 181 5 335 26 492 65 l70 18 75 -60 c307
-244 686 -408 1083 -466 150 -23 445 -27 587 -10 416 52 839 229 1148 481 l73
60 89 -51 c268 -153 567 -253 875 -291 117 -14 417 -14 525 0 225 30 486 103
667 186 l83 38 127 -19 c170 -25 470 -25 633 0 515 79 970 315 1323 686 325
342 525 752 603 1235 22 136 25 485 6 620 -99 685 -474 1268 -1050 1632 -320
202 -774 341 -1120 343 l-72 0 -113 113 c-388 393 -872 620 -1432 672 l-70 7
-56 102 c-268 481 -730 863 -1260 1039 -272 91 -610 132 -899 110z"/>
<path d="M3943 5543 c-60 -12 -557 -585 -717 -828 -121 -183 -153 -279 -143
-435 17 -274 207 -501 474 -565 101 -24 243 -17 340 17 182 65 322 205 385
388 34 96 32 291 -5 496 -41 230 -114 542 -187 794 -38 134 -56 151 -147 133z"/>
<path d="M7553 5543 c-44 -9 -441 -455 -632 -712 -183 -246 -226 -345 -225
-521 1 -87 5 -119 27 -183 71 -205 236 -360 442 -412 76 -19 214 -19 290 0
114 29 203 81 290 169 87 88 133 167 161 278 42 162 -10 521 -156 1079 -84
320 -86 323 -197 302z"/>
<path d="M11163 5542 c-43 -13 -429 -447 -608 -684 -112 -148 -183 -261 -217
-348 -19 -47 -22 -75 -23 -190 0 -116 3 -145 23 -202 83 -241 300 -403 555
-416 288 -14 526 153 623 438 52 154 -10 582 -171 1167 -58 213 -75 244 -129
242 -17 -1 -41 -4 -53 -7z"/>
<path d="M5303 4620 c-32 -7 -108 -82 -289 -285 -275 -308 -453 -545 -526
-702 -160 -341 44 -750 422 -844 30 -7 98 -13 150 -13 257 3 483 165 572 410
57 160 23 475 -107 991 -115 455 -122 467 -222 443z"/>
<path d="M8918 4623 c-62 -10 -548 -565 -723 -828 -117 -174 -145 -252 -145
-404 0 -166 54 -301 169 -423 117 -125 263 -190 431 -192 109 -1 176 13 275
59 161 73 293 232 336 405 38 151 -2 451 -127 955 -76 304 -102 388 -130 413
-25 22 -32 23 -86 15z"/>
<path d="M6664 3698 c-36 -8 -56 -24 -141 -116 -446 -484 -663 -775 -717 -961
-26 -88 -21 -243 9 -339 38 -120 119 -237 214 -307 249 -182 575 -163 794 45
154 146 210 310 186 544 -23 233 -110 641 -210 986 -41 140 -62 163 -135 148z"/>
<path d="M10275 3696 c-33 -9 -64 -36 -167 -146 -229 -245 -448 -510 -562
-680 -118 -176 -152 -277 -143 -435 11 -209 121 -393 298 -498 393 -232 898
31 926 482 9 154 -46 484 -152 896 -81 315 -95 356 -130 376 -25 13 -37 14
-70 5z"/>
<path d="M3024 3691 c-21 -9 -181 -177 -320 -336 -334 -382 -485 -607 -520
-775 -66 -312 148 -639 466 -714 320 -76 654 127 737 447 33 128 3 402 -83
776 -61 263 -142 554 -162 580 -20 28 -78 38 -118 22z"/>
<path d="M4393 2773 c-52 -10 -509 -527 -687 -776 -73 -102 -134 -214 -157
-287 -26 -81 -28 -236 -4 -324 55 -207 237 -387 444 -441 80 -20 226 -21 304
0 214 56 381 217 442 430 38 130 13 383 -76 779 -42 185 -130 519 -150 569
-20 48 -52 62 -116 50z"/>
<path d="M8008 2773 c-20 -3 -62 -41 -146 -131 -367 -391 -619 -720 -689 -897
-24 -63 -27 -83 -28 -195 0 -106 4 -136 24 -199 51 -154 171 -292 316 -361
105 -49 159 -62 276 -61 171 1 306 58 430 181 132 131 188 282 176 474 -12
181 -60 441 -147 786 -65 257 -98 362 -121 387 -22 22 -34 25 -91 16z"/>
<path d="M2140 1850 c-38 -9 -111 -81 -304 -300 -315 -356 -486 -591 -536
-733 -64 -182 -38 -378 72 -543 120 -179 332 -285 545 -271 268 18 498 208
563 465 16 62 14 241 -5 362 -43 285 -196 924 -238 990 -9 15 -52 43 -60 39
-1 -1 -18 -5 -37 -9z"/>
<path d="M5754 1848 c-37 -8 -57 -26 -177 -156 -415 -451 -636 -753 -682 -929
-20 -75 -19 -210 1 -292 41 -165 176 -333 326 -405 151 -72 315 -84 465 -33
99 34 156 69 233 143 109 104 175 239 187 378 15 179 -82 690 -222 1171 -36
124 -52 139 -131 123z"/>
<path d="M9371 1850 c-41 -10 -105 -72 -291 -280 -375 -422 -535 -650 -576
-827 -33 -139 1 -322 82 -451 170 -269 502 -365 789 -229 142 68 265 205 316
354 21 60 24 85 23 218 -1 187 -36 394 -135 785 -72 288 -105 393 -134 418
-14 12 -29 22 -33 21 -4 -1 -22 -5 -41 -9z"/>
</g>
</svg>
