<?xml version="1.0" standalone="no"?>
<!DOCTYPE svg PUBLIC "-//W3C//DTD SVG 20010904//EN"
 "http://www.w3.org/TR/2001/REC-SVG-20010904/DTD/svg10.dtd">
<svg version="1.0" xmlns="http://www.w3.org/2000/svg"
 width="1262.000000pt" height="1280.000000pt" viewBox="0 0 1262.000000 1280.000000"
 preserveAspectRatio="xMidYMid meet">
<metadata>
Created by potrace 1.15, written by Peter Selinger 2001-2017
</metadata>
<g transform="translate(0.000000,1280.000000) scale(0.100000,-0.100000)"
fill="#000000" stroke="none">
<path d="M12195 12794 c-22 -3 -125 -13 -230 -24 -1740 -183 -3273 -785 -4690
-1844 -463 -346 -813 -653 -1316 -1156 -502 -502 -833 -872 -1318 -1472 -78
-97 -148 -175 -154 -173 -14 5 -292 39 -452 55 -176 18 -585 28 -770 18 -472
-24 -786 -112 -1057 -296 -510 -347 -997 -994 -1443 -1917 -228 -471 -426
-953 -644 -1568 -116 -328 -125 -358 -117 -429 17 -164 154 -288 318 -288 56
0 71 5 718 230 272 94 662 230 865 300 204 70 382 133 397 139 27 10 52 -13
1135 -1061 610 -590 1109 -1078 1111 -1085 2 -7 -124 -421 -279 -920 -217
-696 -284 -923 -287 -973 -7 -124 62 -241 176 -297 49 -24 69 -28 137 -27 72
1 94 6 228 58 1078 414 1855 792 2472 1201 314 208 544 395 766 621 481 491
619 846 620 1593 0 363 -48 844 -117 1172 -4 24 7 37 103 120 1496 1294 2472
2429 3146 3661 652 1190 1006 2439 1098 3868 13 207 8 255 -33 333 -69 128
-193 181 -383 161z"/>
</g>
</svg>
