<?xml version="1.0" standalone="no"?>
<!DOCTYPE svg PUBLIC "-//W3C//DTD SVG 20010904//EN"
 "http://www.w3.org/TR/2001/REC-SVG-20010904/DTD/svg10.dtd">
<svg version="1.0" xmlns="http://www.w3.org/2000/svg"
 width="1280.000000pt" height="755.000000pt" viewBox="0 0 1280.000000 755.000000"
 preserveAspectRatio="xMidYMid meet">
<metadata>
Created by potrace 1.15, written by Peter Selinger 2001-2017
</metadata>
<g transform="translate(0.000000,755.000000) scale(0.100000,-0.100000)"
fill="#000000" stroke="none">
<path d="M7501 7543 c-58 -4 -71 -9 -150 -61 -97 -64 -287 -243 -397 -375 -92
-109 -518 -676 -513 -682 3 -2 118 -8 257 -14 389 -17 661 -52 968 -126 210
-50 397 -109 794 -250 470 -166 680 -238 684 -234 2 2 -3 56 -10 119 -7 63
-20 196 -29 295 -47 542 -83 730 -185 951 -23 50 -48 88 -66 101 -85 60 -275
137 -462 189 -282 77 -567 105 -891 87z"/>
<path d="M3644 6663 c-28 -38 -111 -138 -184 -223 -144 -169 -209 -259 -263
-366 -35 -67 -103 -252 -96 -258 2 -1 135 -15 294 -30 2417 -228 4861 -775
7683 -1720 206 -69 222 -73 217 -53 -3 12 -37 195 -75 407 -108 585 -109 593
-117 601 -20 18 -1071 367 -1633 542 -2026 631 -3869 1014 -5495 1142 -110 8
-218 18 -240 20 -40 5 -41 5 -91 -62z"/>
<path d="M0 5705 l0 -116 324 -642 c718 -1424 1356 -2696 1356 -2704 0 -5 -20
-35 -45 -68 -127 -169 -182 -386 -157 -613 7 -59 22 -146 35 -194 l24 -87 -55
50 c-110 101 -256 183 -381 215 -92 23 -265 16 -343 -15 -295 -115 -380 -452
-201 -805 l30 -59 11 72 c24 141 60 191 138 191 33 0 52 -8 85 -33 88 -66 139
-176 146 -312 10 -175 -55 -322 -212 -483 -120 -120 -136 -113 162 -78 941
111 1858 169 3423 218 520 17 3275 16 4490 -1 1105 -15 2887 -15 3390 0 212 6
386 12 387 13 0 0 3 9 5 19 2 15 -14 25 -92 52 -91 33 -295 130 -334 160 -18
13 -16 17 34 72 116 127 248 360 328 578 118 325 187 662 234 1155 14 146 17
913 4 1010 l-7 55 -237 84 c-1593 561 -3010 990 -4447 1348 -2646 657 -5045
979 -7585 1018 -201 3 -398 8 -437 11 l-73 5 0 -116z"/>
</g>
</svg>
