<?xml version="1.0" standalone="no"?>
<!DOCTYPE svg PUBLIC "-//W3C//DTD SVG 20010904//EN"
 "http://www.w3.org/TR/2001/REC-SVG-20010904/DTD/svg10.dtd">
<svg version="1.0" xmlns="http://www.w3.org/2000/svg"
 width="1280.000000pt" height="858.000000pt" viewBox="0 0 1280.000000 858.000000"
 preserveAspectRatio="xMidYMid meet">
<metadata>
Created by potrace 1.15, written by Peter Selinger 2001-2017
</metadata>
<g transform="translate(0.000000,858.000000) scale(0.100000,-0.100000)"
fill="#000000" stroke="none">
<path d="M830 8399 c-189 -52 -327 -171 -360 -311 -18 -75 -8 -244 25 -401 47
-226 155 -449 323 -667 103 -133 535 -555 1102 -1075 168 -154 337 -311 376
-350 l70 -70 424 -1275 c233 -701 445 -1329 473 -1395 192 -465 472 -905 769
-1211 l98 -101 25 -154 c71 -429 133 -700 206 -890 l29 -76 198 -76 c491 -188
951 -298 1407 -337 156 -13 558 -13 705 0 161 15 351 46 407 68 51 20 524 308
720 440 127 85 244 178 414 329 99 87 108 98 119 145 13 54 8 253 -10 398 -5
41 -13 147 -16 235 -8 191 7 280 61 384 27 51 46 73 82 96 63 39 317 231 402
302 134 112 359 325 462 435 58 62 315 343 570 624 l466 510 42 125 c71 204
137 363 241 574 133 271 222 418 326 542 108 127 221 312 382 626 116 224 196
364 284 494 72 107 206 266 236 281 9 5 91 35 182 67 365 127 459 172 508 245
20 30 23 42 17 89 -15 123 -84 264 -159 328 -107 90 -436 161 -691 149 -298
-14 -527 -72 -780 -196 -161 -79 -282 -156 -415 -268 -181 -151 -587 -538
-992 -944 -224 -224 -410 -408 -413 -408 -3 0 -5 7 -5 15 0 16 -71 157 -170
340 -78 144 -103 219 -106 320 l-2 80 -173 234 c-96 128 -241 324 -323 435
-250 335 -481 544 -764 689 l-87 45 -203 -9 c-297 -12 -539 -46 -659 -91 -122
-45 -234 -148 -269 -248 -43 -121 -68 -150 -131 -150 -51 0 -174 36 -273 80
l-95 42 -125 -6 c-287 -13 -593 -93 -785 -205 -107 -62 -219 -174 -268 -267
-20 -40 -44 -75 -53 -78 -33 -13 -144 -5 -257 19 -162 34 -247 40 -368 26
-162 -19 -208 -30 -298 -73 -166 -79 -309 -260 -327 -411 -4 -31 -11 -57 -15
-57 -5 0 -9 4 -9 9 0 18 -364 344 -725 649 -405 342 -559 476 -735 638 -213
196 -459 447 -560 572 -71 88 -77 94 -140 114 -98 31 -289 35 -390 7z"/>
</g>
</svg>
