<?xml version="1.0" standalone="no"?>
<!DOCTYPE svg PUBLIC "-//W3C//DTD SVG 20010904//EN"
 "http://www.w3.org/TR/2001/REC-SVG-20010904/DTD/svg10.dtd">
<svg version="1.0" xmlns="http://www.w3.org/2000/svg"
 width="1280.000000pt" height="780.000000pt" viewBox="0 0 1280.000000 780.000000"
 preserveAspectRatio="xMidYMid meet">
<metadata>
Created by potrace 1.15, written by Peter Selinger 2001-2017
</metadata>
<g transform="translate(0.000000,780.000000) scale(0.100000,-0.100000)"
fill="#000000" stroke="none">
<path d="M4650 7788 c-44 -24 -48 -49 -54 -313 -6 -291 -33 -516 -77 -653
l-11 -34 -16 24 c-9 13 -29 48 -43 78 -14 30 -53 91 -86 135 -63 85 -252 270
-263 258 -4 -5 -15 -34 -25 -66 -20 -66 -67 -141 -107 -170 -38 -28 -121 -33
-193 -12 -32 9 -108 42 -169 72 -137 69 -266 119 -328 128 l-48 7 0 -91 c0
-51 4 -90 9 -87 5 3 21 -29 36 -72 15 -42 54 -133 87 -202 33 -69 73 -159 90
-200 29 -74 62 -210 49 -210 -3 0 -39 9 -80 20 -82 22 -152 26 -182 10 -24
-13 -49 -61 -49 -96 0 -24 -3 -26 -27 -21 -473 101 -648 117 -760 67 -62 -27
-78 -68 -57 -142 46 -153 165 -326 395 -571 66 -70 118 -131 115 -136 -8 -13
-105 -30 -231 -41 -260 -22 -396 -56 -493 -120 -92 -62 -92 -59 -29 -137 30
-37 98 -114 151 -170 53 -57 96 -109 96 -117 0 -31 -134 -116 -255 -161 -119
-45 -165 -88 -180 -167 -7 -34 -5 -38 14 -38 15 0 21 -6 21 -22 0 -32 50 -127
111 -210 131 -180 136 -252 20 -294 -91 -33 -156 -66 -183 -91 -35 -33 -37
-85 -8 -188 11 -38 20 -90 20 -114 0 -41 -4 -47 -72 -113 -40 -38 -89 -78
-108 -88 -45 -23 -126 -95 -127 -112 -6 -118 -18 -184 -38 -204 -34 -34 -84
-40 -132 -16 -21 11 -56 23 -76 27 -31 6 -38 4 -42 -11 -19 -61 -107 -196
-120 -182 -1 1 -14 21 -29 42 -24 36 -26 47 -26 142 0 57 9 172 20 256 10 84
31 272 45 418 24 253 49 478 60 565 l6 40 -25 -45 c-108 -193 -253 -659 -305
-980 -7 -41 -18 -102 -25 -135 l-12 -60 -29 55 -28 55 14 140 c17 181 17 536
0 695 -10 90 -11 141 -4 183 10 56 9 57 -8 41 -15 -14 -19 -14 -19 -3 0 8 -12
-13 -26 -46 -76 -179 -99 -285 -118 -544 l-11 -153 -122 243 c-127 254 -145
301 -174 434 l-16 80 -8 -49 c-13 -80 13 -327 51 -494 3 -15 -35 41 -86 123
-98 158 -170 291 -170 312 0 7 -4 13 -8 13 -8 0 -2 -82 19 -240 14 -109 52
-269 83 -348 14 -34 23 -62 21 -62 -2 0 -14 19 -28 43 -35 58 -129 149 -188
181 l-49 27 34 -98 c106 -304 253 -557 474 -815 244 -286 448 -440 696 -527
121 -43 238 -61 386 -62 236 0 357 26 868 190 273 87 351 109 508 140 105 21
304 39 304 27 0 -12 -72 -151 -100 -191 -34 -50 -255 -400 -302 -480 -20 -33
-76 -141 -124 -240 -87 -176 -88 -181 -87 -250 0 -39 9 -97 20 -131 34 -105
177 -298 324 -439 l94 -89 3 67 c2 37 5 67 8 67 3 0 32 -18 65 -40 33 -22 64
-40 68 -40 4 0 24 -21 45 -46 28 -33 41 -42 47 -33 6 10 10 10 23 0 14 -12 16
-7 16 42 0 30 3 68 6 85 l6 30 47 -20 c25 -11 64 -40 87 -65 l40 -46 22 51
c15 35 22 71 22 116 l0 66 43 0 42 0 1 -243 c1 -268 16 -441 43 -502 38 -85
115 -130 315 -180 76 -19 164 -46 196 -61 51 -23 61 -32 86 -82 16 -30 35 -57
41 -59 8 -3 19 18 30 57 11 42 26 69 46 86 33 28 88 32 108 8 7 -9 32 -29 55
-45 l42 -29 12 35 c16 48 65 95 99 95 16 0 57 -9 91 -20 35 -11 64 -19 66 -17
3 3 -16 102 -31 157 -5 22 0 30 32 50 21 14 39 33 41 42 4 21 -66 111 -82 105
-6 -3 -33 6 -61 18 -55 26 -45 34 12 10 20 -8 38 -14 40 -12 2 2 -19 25 -47
51 -63 59 -133 91 -229 106 -134 20 -170 52 -196 177 -21 99 -30 342 -16 433
7 41 36 179 66 305 62 266 80 357 95 475 8 64 44 230 55 247 0 1 54 -16 120
-37 151 -51 184 -56 450 -76 288 -21 468 -10 614 38 49 16 76 19 119 14 31 -4
58 -8 60 -10 2 -2 -8 -46 -22 -97 -14 -52 -44 -193 -67 -314 -40 -214 -41
-228 -49 -515 -9 -340 -13 -363 -88 -453 -67 -80 -91 -133 -107 -235 -8 -48
-17 -103 -21 -122 -9 -54 12 -115 56 -161 38 -40 47 -60 70 -146 l10 -42 43
25 c55 31 85 30 133 -5 47 -35 59 -57 74 -131 17 -89 23 -89 64 -6 28 56 44
78 62 82 36 9 83 -14 101 -50 9 -17 27 -48 41 -69 l26 -38 12 23 c7 13 18 46
25 73 13 58 43 95 76 95 13 0 54 -23 91 -51 l67 -52 3 92 c1 50 6 91 10 91 4
-1 43 -9 87 -20 44 -10 81 -17 83 -15 8 8 -72 146 -104 182 -29 31 -34 34 -29
15 8 -29 8 -29 -130 65 -129 88 -160 131 -160 216 1 52 10 82 54 185 29 68 77
196 107 284 67 196 101 271 190 415 38 61 98 160 134 220 91 151 179 237 302
297 142 69 217 80 468 72 132 -5 237 -3 295 4 76 9 97 8 135 -5 96 -34 111
-51 208 -238 348 -669 656 -1057 1055 -1326 117 -79 162 -124 238 -235 83
-122 138 -171 263 -232 104 -51 113 -54 188 -54 90 0 171 -23 245 -70 43 -27
48 -29 51 -13 17 93 44 123 112 123 23 0 30 4 30 20 0 15 15 4 62 -45 34 -36
65 -65 69 -65 3 0 12 20 19 45 12 43 11 82 -5 118 -5 13 -2 17 14 17 11 0 41
5 65 12 35 9 53 9 86 -1 23 -7 44 -11 46 -9 1 2 -15 32 -36 66 l-39 62 39 0
c22 0 40 3 40 6 0 3 -12 24 -27 45 -47 68 -138 107 -472 205 -85 25 -181 59
-214 76 -101 54 -206 183 -312 383 -103 194 -151 274 -219 363 -319 421 -339
477 -307 897 21 276 29 338 49 365 55 75 163 84 805 68 620 -15 879 -1 1168
62 118 25 283 81 388 131 47 23 127 54 176 69 114 36 509 136 595 150 137 23
207 53 282 119 57 51 85 94 107 169 18 59 16 73 -16 153 -15 37 -70 100 -108
125 -29 18 -148 40 -320 59 -203 22 -281 38 -367 76 -100 44 -112 47 -292 69
-109 14 -220 20 -351 20 -241 0 -285 10 -362 80 -53 48 -73 60 -73 41 0 -5
-26 -49 -58 -98 -33 -49 -61 -96 -64 -103 -3 -8 -11 5 -17 30 -6 25 -17 64
-23 88 -13 53 -43 92 -69 92 -10 0 -46 -24 -78 -54 -93 -86 -135 -100 -211
-73 -141 49 -169 130 -115 330 l8 29 -62 -31 c-33 -17 -109 -62 -168 -100
-106 -67 -207 -122 -249 -135 l-21 -7 19 78 c17 65 21 123 25 348 2 153 0 276
-5 283 -13 20 -87 -4 -342 -108 -118 -49 -235 -95 -260 -104 -53 -17 -163 -46
-166 -43 -2 2 27 110 54 197 147 474 181 608 202 779 10 83 1 193 -19 230 -44
82 -167 86 -375 14 -130 -44 -375 -165 -494 -242 -51 -34 -95 -61 -98 -61 -12
0 28 189 76 360 56 201 66 296 51 493 -19 262 -44 459 -82 654 -24 125 -31
144 -66 188 -61 76 -117 71 -311 -24 -138 -69 -240 -129 -452 -271 -114 -75
-204 -130 -214 -130 -3 0 -4 60 -3 133 2 124 0 136 -25 196 -15 35 -68 129
-117 210 -140 231 -181 326 -181 423 l0 38 -42 -6 c-117 -18 -227 -98 -393
-283 l-108 -121 -25 22 c-13 13 -78 84 -143 158 -147 169 -196 209 -256 210
-24 0 -37 -7 -49 -25 -25 -38 -46 -215 -39 -317 4 -49 3 -88 -1 -88 -5 0 -94
87 -199 194 -231 236 -287 272 -365 231 -39 -20 -68 -64 -94 -141 l-22 -63
-49 28 c-28 16 -113 77 -190 135 -77 58 -161 117 -186 131 -58 31 -125 41
-159 23z m-1129 -6060 c6 -24 35 -103 65 -175 30 -73 60 -164 68 -203 7 -38
12 -70 11 -70 -1 0 -26 7 -56 16 -76 22 -149 66 -197 118 -39 43 -82 114 -82
136 0 28 152 220 174 220 3 0 10 -19 17 -42z"/>
</g>
</svg>
