<?xml version="1.0" standalone="no"?>
<!DOCTYPE svg PUBLIC "-//W3C//DTD SVG 20010904//EN"
 "http://www.w3.org/TR/2001/REC-SVG-20010904/DTD/svg10.dtd">
<svg version="1.0" xmlns="http://www.w3.org/2000/svg"
 width="1280.000000pt" height="640.000000pt" viewBox="0 0 1280.000000 640.000000"
 preserveAspectRatio="xMidYMid meet">
<metadata>
Created by potrace 1.15, written by Peter Selinger 2001-2017
</metadata>
<g transform="translate(0.000000,640.000000) scale(0.100000,-0.100000)"
fill="#000000" stroke="none">
<path d="M4810 6200 c0 -80 -203 -423 -543 -920 -426 -622 -883 -1250 -1150
-1585 -344 -429 -807 -904 -1132 -1159 -55 -44 -104 -83 -109 -87 -5 -5 1 -12
14 -17 23 -8 21 -11 -31 -44 -218 -139 -1453 -789 -1468 -772 -13 15 -51 131
-66 201 -8 38 -15 98 -15 135 0 76 -6 82 -79 94 -52 8 -139 -32 -178 -82 l-26
-35 18 -57 c9 -31 53 -125 96 -209 l78 -152 -93 -56 c-51 -30 -101 -64 -111
-75 -17 -19 -17 -20 2 -20 24 0 107 28 185 63 l56 25 108 -168 108 -168 90 5
c50 3 92 6 93 7 1 1 -19 36 -45 77 -99 154 -191 324 -181 333 2 2 51 27 109
56 151 75 398 207 940 500 261 141 485 262 497 269 l22 11 -24 -53 c-33 -71
-63 -254 -75 -451 -5 -89 -10 -166 -10 -172 0 -20 60 -71 119 -103 303 -161
1433 -428 2233 -528 l219 -27 -78 -79 c-101 -102 -216 -199 -414 -348 l-159
-120 -25 28 c-48 53 -158 215 -195 286 -20 40 -45 104 -55 142 -22 86 -29 95
-69 95 -80 0 -154 -49 -191 -126 -16 -34 -16 -36 9 -78 44 -76 115 -163 251
-309 l134 -144 -34 -33 c-38 -37 -49 -65 -30 -80 15 -12 71 0 115 25 24 13 27
12 90 -50 l65 -65 88 27 88 27 -80 80 c-45 45 -81 86 -80 91 0 6 73 72 162
147 89 76 223 192 297 258 74 67 159 142 188 167 l54 47 181 -17 c237 -22 554
-45 847 -61 l235 -13 985 93 c1362 128 1373 129 1377 117 3 -7 24 -6 66 3 82
18 95 17 100 -3 4 -14 5 -13 6 4 1 26 -61 18 646 85 l540 51 512 1 513 1 0 25
c0 14 -16 170 -35 348 -19 177 -35 328 -35 335 0 12 161 117 179 117 4 0 55
-22 112 -49 495 -231 1314 -584 1522 -655 11 -3 15 -11 11 -18 -29 -50 -114
-170 -182 -257 -45 -58 -80 -106 -78 -108 2 -3 162 -33 173 -33 2 0 213 267
248 313 28 38 30 39 74 32 25 -3 56 -9 69 -12 40 -9 23 16 -28 42 l-49 25 76
112 c42 62 91 144 109 182 31 63 32 71 19 96 -17 33 -78 88 -112 101 -30 11
-113 12 -131 0 -7 -4 -17 -38 -23 -75 -11 -81 -48 -194 -89 -276 l-30 -59
-107 45 c-60 25 -292 122 -518 216 -1029 427 -1022 424 -1136 544 -197 209
-494 745 -878 1581 -494 1080 -694 1690 -728 2235 l-8 117 -90 -76 c-637 -534
-1122 -835 -1626 -1008 -221 -76 -310 -90 -564 -90 -202 1 -231 3 -349 28
-247 53 -567 176 -770 298 -300 178 -554 437 -737 749 -35 60 -67 109 -71 109
-5 1 -8 -8 -8 -19z"/>
</g>
</svg>
