<?xml version="1.0" standalone="no"?>
<!DOCTYPE svg PUBLIC "-//W3C//DTD SVG 20010904//EN"
 "http://www.w3.org/TR/2001/REC-SVG-20010904/DTD/svg10.dtd">
<svg version="1.0" xmlns="http://www.w3.org/2000/svg"
 width="1280.000000pt" height="980.000000pt" viewBox="0 0 1280.000000 980.000000"
 preserveAspectRatio="xMidYMid meet">
<metadata>
Created by potrace 1.15, written by Peter Selinger 2001-2017
</metadata>
<g transform="translate(0.000000,980.000000) scale(0.100000,-0.100000)"
fill="#000000" stroke="none">
<path d="M9674 9764 c-400 -212 -663 -627 -788 -1243 -14 -68 -27 -125 -29
-127 -2 -2 -75 7 -163 21 -359 55 -785 108 -1159 142 -274 24 -933 25 -1130 0
-567 -71 -955 -214 -1324 -490 -202 -151 -498 -480 -636 -707 -22 -37 -45 -62
-58 -65 -32 -6 -373 -56 -428 -62 l-46 -5 -18 113 c-48 319 -159 626 -304 846
-108 163 -288 333 -431 406 l-55 29 -129 -61 -129 -62 57 -34 c258 -155 507
-445 662 -770 71 -150 181 -484 163 -499 -2 -2 -16 -6 -31 -10 -24 -5 -32 1
-82 67 -65 87 -128 148 -214 205 -34 24 -62 47 -62 51 0 21 -161 221 -250 310
-618 618 -1589 744 -2430 315 -204 -103 -412 -254 -593 -427 l-68 -65 33 -25
c18 -14 65 -45 103 -70 841 -538 2042 -639 3051 -256 l135 52 52 -36 c73 -51
165 -145 146 -151 -8 -3 -75 -17 -149 -31 -1042 -204 -1723 -519 -2098 -969
-337 -405 -502 -934 -502 -1613 0 -445 110 -971 325 -1548 462 -1241 1197
-2216 1988 -2639 322 -172 680 -259 999 -242 184 9 1650 229 1812 271 33 9 91
29 129 45 l69 29 57 -28 c155 -79 288 -125 433 -151 420 -76 1833 -269 2028
-277 980 -40 1949 621 2751 1877 584 916 1025 2126 1113 3059 32 338 10 711
-64 1081 -110 550 -321 956 -671 1295 -190 183 -382 318 -648 454 -423 216
-886 363 -1595 506 -148 30 -271 56 -273 58 -7 7 122 122 180 160 33 22 66 37
75 34 9 -3 74 -30 143 -60 745 -327 1648 -385 2424 -156 240 71 514 191 694
306 l62 40 -97 102 c-295 311 -692 550 -1087 656 -174 47 -312 67 -508 72
-489 14 -896 -112 -1267 -391 -103 -79 -280 -253 -352 -349 -29 -40 -68 -74
-120 -107 -80 -52 -207 -176 -255 -248 -18 -27 -33 -41 -42 -37 -8 3 -19 5
-24 5 -16 0 -10 27 40 178 110 335 264 589 500 822 120 118 252 220 355 272
32 16 56 31 55 32 -6 6 -250 136 -254 136 -2 0 -34 -16 -71 -36z"/>
</g>
</svg>
