<?xml version="1.0" standalone="no"?>
<!DOCTYPE svg PUBLIC "-//W3C//DTD SVG 20010904//EN"
 "http://www.w3.org/TR/2001/REC-SVG-20010904/DTD/svg10.dtd">
<svg version="1.0" xmlns="http://www.w3.org/2000/svg"
 width="823.000000pt" height="1280.000000pt" viewBox="0 0 823.000000 1280.000000"
 preserveAspectRatio="xMidYMid meet">
<metadata>
Created by potrace 1.15, written by Peter Selinger 2001-2017
</metadata>
<g transform="translate(0.000000,1280.000000) scale(0.100000,-0.100000)"
fill="#000000" stroke="none">
<path d="M4001 12783 c-5 -10 -21 -63 -36 -118 -43 -159 -54 -180 -108 -193
-65 -17 -117 -68 -117 -116 0 -47 58 -112 135 -152 59 -31 63 -41 24 -63 -36
-20 -65 -9 -144 54 -92 74 -111 83 -132 62 -15 -14 -15 -29 -6 -129 6 -62 9
-114 8 -116 -2 -2 -30 15 -63 37 -80 55 -94 53 -121 -10 -35 -79 -24 -118 57
-201 52 -55 63 -70 53 -82 -28 -33 -52 -27 -115 33 -81 77 -100 87 -132 67
-13 -9 -26 -27 -30 -41 -8 -31 0 -174 11 -199 18 -42 -21 -8 -61 52 -57 87
-83 112 -115 112 -41 0 -59 -36 -59 -122 0 -114 48 -254 137 -399 19 -31 41
-80 48 -110 18 -65 19 -208 4 -296 -11 -62 -12 -64 -38 -59 -122 23 -204 13
-222 -28 -18 -39 12 -79 103 -140 131 -88 127 -83 99 -104 -52 -38 -88 -52
-132 -52 -37 0 -55 7 -99 40 -62 47 -107 52 -170 20 -86 -44 -123 -145 -82
-226 11 -21 30 -50 42 -64 25 -29 53 -80 47 -86 -4 -4 -55 13 -167 55 -36 14
-78 21 -122 21 -61 0 -69 -3 -84 -25 -12 -19 -14 -38 -9 -89 l7 -64 -48 -7
c-72 -10 -94 -28 -94 -74 0 -51 40 -87 108 -96 138 -19 157 -47 96 -142 -43
-65 -85 -83 -193 -83 -57 0 -105 -5 -126 -14 -31 -13 -35 -19 -35 -52 0 -53
56 -107 135 -129 75 -22 223 -15 323 14 130 39 182 83 303 253 51 71 158 159
270 221 61 34 67 35 72 18 4 -15 -19 -35 -112 -98 l-116 -78 -40 -83 c-32 -66
-58 -101 -123 -166 l-82 -82 0 -94 c0 -52 -5 -130 -12 -175 l-11 -81 -116 -70
c-84 -51 -116 -75 -116 -89 0 -18 9 -21 75 -25 l75 -5 -57 -61 c-32 -33 -58
-65 -58 -70 0 -5 19 -28 41 -52 23 -24 40 -44 38 -45 -95 -61 -170 -164 -189
-259 -28 -140 -69 -223 -155 -317 -62 -66 -76 -111 -51 -159 22 -43 73 -57
149 -43 67 12 150 46 170 69 8 10 47 118 87 242 40 124 77 236 82 250 5 14 34
42 68 63 32 21 64 44 70 52 6 7 16 53 22 102 9 79 8 95 -10 155 l-20 67 47 30
c87 55 369 221 375 221 3 0 6 -37 6 -82 1 -161 23 -251 76 -309 l24 -25 -59 4
-59 4 -56 -170 c-31 -94 -56 -178 -55 -189 0 -10 33 -83 73 -163 l74 -145
-122 -130 c-111 -118 -189 -220 -302 -390 -34 -51 -42 -73 -53 -150 -7 -49
-14 -91 -15 -93 -2 -1 -32 -7 -67 -13 -88 -14 -107 -32 -71 -66 68 -66 249
-213 262 -213 11 0 37 26 51 51 6 11 15 19 20 17 6 -2 60 -77 122 -168 62 -91
119 -166 127 -168 10 -2 36 25 67 66 l52 69 -9 84 c-4 46 -7 85 -6 86 1 1 46
-54 100 -123 109 -139 101 -134 218 -109 49 10 82 25 120 53 64 48 130 82 159
82 11 0 32 -9 46 -20 16 -13 41 -20 66 -20 36 0 46 6 90 52 l48 51 63 -21 c36
-12 88 -22 120 -22 38 0 56 -4 56 -12 0 -10 -27 -13 -102 -13 -119 0 -172 -19
-198 -70 -39 -79 -88 -153 -190 -289 l-111 -149 18 -26 c119 -182 156 -321
114 -431 -12 -30 -21 -59 -21 -63 0 -16 65 -67 85 -67 11 1 31 7 45 15 14 8
28 14 32 15 3 0 4 -44 1 -98 -7 -114 -7 -114 90 -139 l67 -18 48 55 c27 30 61
69 75 85 22 25 28 28 37 15 16 -25 12 -34 -50 -115 -33 -43 -60 -84 -60 -92 0
-7 10 -27 21 -43 16 -20 20 -36 15 -55 -6 -25 -10 -27 -49 -21 -23 3 -72 8
-109 12 l-67 7 -22 -73 c-20 -68 -24 -87 -20 -117 0 -6 33 -35 71 -64 93 -69
94 -89 9 -150 -33 -24 -83 -62 -111 -83 -49 -38 -50 -40 -44 -81 9 -56 16 -93
25 -136 8 -34 6 -38 -45 -83 -30 -26 -54 -55 -54 -64 0 -10 16 -41 36 -70 l35
-53 -25 -30 -26 -30 -10 28 c-6 15 -18 48 -27 73 -9 25 -23 52 -30 62 -21 24
-104 48 -167 48 -50 0 -57 -3 -92 -40 -46 -48 -82 -63 -115 -46 -13 6 -51 46
-84 88 -33 42 -67 77 -75 77 -9 1 -42 -26 -75 -59 -59 -60 -60 -60 -117 -60
-32 0 -58 4 -58 9 0 5 9 28 20 52 11 24 20 51 20 59 0 18 -265 310 -282 310
-20 0 -188 -162 -188 -181 0 -11 34 -86 75 -168 l74 -149 -55 -69 c-122 -149
-147 -174 -228 -222 -45 -28 -95 -55 -110 -61 -33 -12 -33 -7 23 -140 22 -52
46 -99 54 -104 10 -7 37 7 97 50 45 32 92 66 104 74 12 8 38 27 57 42 20 16
40 28 46 28 5 0 43 -42 84 -93 l74 -92 6 -95 c4 -52 7 -143 8 -202 l1 -106
-32 -27 c-18 -15 -51 -44 -73 -64 -22 -20 -58 -51 -80 -70 -51 -43 -148 -128
-239 -209 l-71 -63 -70 7 c-38 3 -93 9 -122 13 -60 9 -58 10 -166 -125 -45
-56 -62 -71 -80 -68 -75 11 -292 46 -343 56 -76 14 -92 8 -98 -34 -7 -52 -27
-277 -29 -342 l-2 -60 54 -30 c47 -27 61 -43 107 -121 51 -87 54 -90 96 -97
24 -3 86 -7 139 -7 l97 -1 62 70 63 71 111 -3 111 -3 7 -80 c11 -134 36 -269
52 -280 10 -8 44 -8 108 -2 90 9 94 10 134 48 l41 40 47 -13 c55 -14 49 -5
105 -180 20 -65 46 -127 57 -139 19 -21 169 -151 204 -177 15 -11 35 -11 116
1 l97 15 106 106 105 107 56 -15 c31 -7 73 -22 93 -33 l37 -18 -102 -85 -103
-85 -44 -102 c-50 -116 -36 -106 -196 -138 l-110 -23 -152 97 c-249 158 -206
143 -384 130 -85 -6 -173 -8 -196 -5 -52 7 -52 7 -139 -131 -92 -146 -88 -143
-145 -143 l-49 0 -35 70 c-19 39 -41 70 -48 70 -7 0 -49 -33 -92 -74 l-79 -73
29 -104 c15 -57 30 -109 32 -115 2 -6 -68 -63 -156 -128 l-161 -117 -61 13
c-60 12 -62 12 -80 -11 -11 -13 -32 -51 -47 -83 -27 -59 -29 -60 -124 -109
-54 -27 -98 -55 -98 -61 0 -10 -26 -82 -45 -125 -1 -2 -113 -7 -251 -13 -137
-5 -265 -14 -284 -18 l-35 -8 1 -93 c1 -100 6 -111 55 -111 48 0 186 -46 244
-81 62 -37 102 -92 112 -153 5 -32 9 -36 35 -36 60 0 189 136 233 247 13 32
35 67 49 77 24 18 26 18 78 1 29 -9 65 -25 79 -36 52 -36 65 -28 116 76 41 82
50 94 68 89 36 -11 332 -153 619 -295 153 -77 287 -139 297 -139 24 0 62 49
132 171 50 88 57 108 57 155 0 50 1 53 28 56 24 3 35 19 97 139 l70 136 200
-59 c629 -187 1035 -298 1087 -298 38 0 58 46 58 132 l0 63 97 -3 c54 -1 156
-7 227 -12 187 -14 295 -13 302 4 3 7 -6 57 -19 110 -14 53 -23 96 -20 96 2 0
30 -19 61 -43 31 -23 67 -49 79 -57 11 -8 90 -64 173 -125 83 -60 160 -116
170 -123 14 -11 43 -11 142 -3 261 22 395 31 459 31 l66 0 137 -90 c188 -124
166 -125 514 25 148 63 272 115 278 115 5 0 20 -16 33 -35 34 -51 57 -46 115
24 26 32 66 76 87 97 39 38 44 39 142 51 56 6 120 12 143 12 53 1 70 21 83 96
5 33 19 110 31 170 43 224 45 236 29 246 -8 5 -30 7 -49 3 -19 -3 -62 -10 -95
-15 -188 -26 -338 -50 -346 -54 -9 -6 -14 12 -50 159 -13 54 -28 100 -34 101
-5 2 -54 7 -108 10 -54 4 -96 9 -94 11 3 3 80 8 173 12 l169 7 67 125 c37 69
67 134 68 146 0 15 -9 24 -32 32 -29 9 -21 10 55 11 l89 1 84 55 c46 30 84 57
84 60 0 12 -23 50 -52 88 -34 43 -31 44 65 21 l68 -17 46 44 c165 160 348 419
426 600 30 72 31 79 35 250 4 175 3 177 -23 230 -134 266 -458 486 -838 568
-227 49 -389 8 -446 -114 -11 -25 -21 -60 -21 -79 0 -34 0 -34 -32 -26 -46 14
-107 59 -135 102 l-25 37 30 44 c38 54 76 84 169 130 103 53 118 77 117 197 0
74 -7 115 -28 185 -30 99 -110 285 -163 381 -48 87 -45 98 25 113 152 34 138
115 -83 491 -117 198 -115 215 22 308 33 22 63 48 67 57 26 70 -25 136 -242
308 -62 50 -78 70 -113 140 -94 188 -173 295 -264 357 -49 34 -151 70 -196 70
-51 0 -109 22 -139 51 -149 150 -174 722 -58 1337 15 80 18 122 12 140 -6 18
-38 46 -92 82 -46 30 -97 73 -114 95 -48 63 -95 170 -138 314 -61 199 -112
288 -197 338 -43 25 -56 28 -133 27 -47 -1 -103 -7 -125 -13 -22 -6 -68 -11
-102 -11 -33 0 -105 -9 -160 -20 -157 -31 -233 -36 -276 -15 -40 19 -57 56
-37 80 25 30 80 38 225 31 161 -8 158 -9 189 77 13 34 23 47 37 47 10 0 63
-22 116 -50 110 -57 166 -65 198 -30 38 42 29 203 -16 291 -18 36 -81 99 -99
99 -6 0 -10 4 -10 9 0 4 100 109 223 232 304 305 476 507 578 679 59 98 80
155 90 248 13 115 37 154 134 213 62 37 85 57 103 90 51 97 14 177 -121 262
-71 45 -341 131 -497 158 -124 21 -278 39 -342 39 -64 0 -77 4 -186 60 -155
79 -184 80 -291 11 -149 -95 -140 -93 -360 -96 -107 -1 -201 0 -208 2 -42 16
17 123 87 158 l48 24 28 -22 c23 -18 41 -22 97 -22 l69 0 79 82 c46 48 79 91
79 103 0 34 -55 60 -130 60 -67 0 -103 12 -85 28 6 5 84 60 175 123 277 190
602 419 655 461 66 52 185 241 210 333 l18 65 -22 24 c-28 30 -137 60 -271 75
-52 6 -133 16 -179 21 -93 11 -540 14 -590 4 -23 -5 -37 -17 -51 -43 -10 -20
-30 -49 -43 -65 l-24 -29 -12 64 c-7 35 -19 79 -27 97 -21 52 -98 145 -157
190 -52 40 -57 42 -125 42 -58 0 -73 -3 -81 -17z m288 -8219 c5 -4 -42 -63
-51 -63 -6 -1 -141 171 -162 207 -5 9 182 -117 213 -144z"/>
<path d="M1490 7990 c-19 -17 -40 -30 -47 -30 -7 0 -47 12 -89 26 -42 14 -86
24 -97 22 -16 -2 -35 -27 -69 -92 -26 -48 -48 -89 -50 -91 -11 -11 -123 20
-180 50 -53 28 -72 34 -83 25 -16 -13 -67 -99 -156 -263 l-64 -117 -67 5 c-38
3 -99 7 -137 10 -89 8 -93 -2 -40 -107 22 -44 38 -82 36 -84 -2 -3 -60 -20
-128 -40 -68 -19 -135 -39 -149 -44 -14 -5 -58 -18 -97 -30 -72 -21 -73 -21
-73 -54 0 -28 17 -55 86 -143 47 -59 124 -157 172 -218 47 -60 110 -140 139
-177 l54 -68 138 0 c99 0 141 4 149 13 10 12 19 49 45 192 l13 69 55 13 c30 7
72 17 94 22 22 5 41 9 42 7 4 -3 22 -139 29 -208 l5 -67 89 -66 89 -67 -34
-69 c-19 -37 -35 -75 -35 -83 0 -10 25 -22 73 -36 39 -12 85 -25 101 -31 56
-18 73 -12 101 35 l26 45 90 -66 90 -66 72 7 c40 4 78 13 87 21 9 9 40 60 68
114 l52 99 58 7 c31 4 108 10 170 14 62 4 117 12 124 19 6 6 15 57 19 114 4
57 13 166 19 244 6 77 8 148 4 158 -7 18 -16 18 -177 -9 -59 -10 -85 -10 -108
-2 -16 6 -29 14 -29 18 0 7 60 63 158 147 60 52 62 55 61 100 -3 95 -7 103
-89 147 l-75 40 -14 75 c-11 62 -11 92 -1 170 21 158 25 146 -55 195 -38 24
-104 64 -146 89 l-76 46 -104 0 c-100 -1 -105 -2 -139 -30z"/>
</g>
</svg>
