<?xml version="1.0" standalone="no"?>
<!DOCTYPE svg PUBLIC "-//W3C//DTD SVG 20010904//EN"
 "http://www.w3.org/TR/2001/REC-SVG-20010904/DTD/svg10.dtd">
<svg version="1.0" xmlns="http://www.w3.org/2000/svg"
 width="1280.000000pt" height="1080.000000pt" viewBox="0 0 1280.000000 1080.000000"
 preserveAspectRatio="xMidYMid meet">
<metadata>
Created by potrace 1.15, written by Peter Selinger 2001-2017
</metadata>
<g transform="translate(0.000000,1080.000000) scale(0.100000,-0.100000)"
fill="#000000" stroke="none">
<path d="M6869 10412 c-374 -189 -642 -453 -814 -798 -140 -283 -204 -545
-281 -1165 l-28 -226 -105 -21 c-294 -58 -625 -191 -800 -320 l-64 -47 8 -425
c3 -234 10 -587 15 -785 4 -198 6 -362 4 -364 -4 -4 47 -49 -1114 974 -525
462 -959 845 -966 850 -10 8 -11 40 -3 155 56 809 93 1378 93 1440 0 109 -41
179 -126 215 -54 22 -93 19 -225 -19 -161 -46 -277 -93 -468 -186 -700 -342
-1388 -968 -1684 -1530 -86 -164 -168 -418 -158 -492 10 -77 66 -119 172 -131
28 -3 407 -48 843 -99 l794 -92 1393 -1812 c766 -997 1400 -1822 1408 -1835
15 -24 16 -58 41 -799 3 -69 1 -109 -2 -90 -5 26 -9 31 -14 18 -4 -9 -40 -38
-79 -65 -66 -43 -179 -145 -221 -200 -84 -109 -119 -279 -84 -411 79 -297 409
-509 1086 -697 47 -13 117 -33 155 -44 39 -11 142 -34 230 -51 88 -17 178 -35
200 -40 51 -13 274 -46 430 -65 66 -8 134 -17 150 -20 199 -35 856 -55 1185
-36 181 11 562 49 650 65 14 3 68 10 120 16 52 6 111 15 130 20 19 5 80 16
135 25 363 56 881 204 1145 326 167 78 268 145 371 248 70 70 108 128 141 213
25 65 31 232 9 288 -21 56 -55 124 -68 138 -7 7 -13 17 -13 21 0 15 -116 129
-177 173 -34 25 -70 53 -78 62 -9 9 -21 16 -26 16 -5 0 -10 8 -10 18 -1 9 -5
4 -9 -13 -11 -43 -11 45 -1 215 14 225 70 333 279 540 135 133 265 235 642
505 319 227 418 306 589 469 80 76 156 146 169 154 34 22 168 186 228 277 101
156 205 386 269 597 14 46 30 91 36 101 5 10 7 23 3 29 -4 7 -3 8 4 4 7 -4 12
-5 12 -2 0 3 13 65 30 138 39 174 54 340 45 500 -4 70 -11 126 -15 123 -4 -2
-10 30 -14 73 -4 42 -18 132 -31 199 -128 635 -496 1015 -1075 1109 -126 21
-383 21 -523 0 -200 -29 -508 -107 -658 -166 -27 -11 -52 -20 -56 -20 -3 0 -3
47 0 105 l5 106 -72 50 c-217 153 -434 239 -779 309 -230 47 -284 59 -379 87
l-87 26 -5 51 c-3 28 -11 101 -17 161 -94 945 -387 1548 -869 1790 -150 75
-189 83 -540 105 -173 11 -327 20 -341 20 -15 0 -78 -26 -140 -58z m661 -742
c120 -375 162 -584 195 -985 8 -104 20 -225 26 -269 6 -43 9 -79 7 -81 -2 -2
-188 -6 -414 -10 l-410 -8 13 154 c56 637 194 1085 435 1413 l51 70 19 -50
c10 -27 45 -132 78 -234z m3370 -2236 c359 -84 650 -533 721 -1114 19 -159 6
-336 -40 -540 -96 -431 -214 -748 -373 -1004 -205 -331 -525 -587 -920 -736
-49 -19 -91 -31 -94 -27 -10 10 -13 50 -74 1256 l-60 1164 57 84 c108 163 151
319 160 580 l6 172 61 40 c187 122 383 166 556 125z"/>
</g>
</svg>
